#pragma bank 255

#include "hUGEDriver.h"
#include <stddef.h>
#include "hUGEDriverRoutines.h"

static const unsigned char order_cnt = 8;
static const unsigned char song_pattern_0[] = {
    DN(___, 0, 0xE00),
    DN(___, 0, 0x000),
    DN(___, 0, 0x000),
    DN(___, 0, 0x000),
    DN(___, 0, 0x000),
    DN(___, 0, 0x000),
    DN(___, 0, 0x000),
    DN(___, 0, 0x000),
    DN(___, 0, 0x000),
    DN(___, 0, 0x000),
    DN(___, 0, 0x000),
    DN(___, 0, 0x000),
    DN(___, 0, 0x000),
    DN(___, 0, 0x000),
    DN(___, 0, 0x000),
    DN(___, 0, 0x000),
    DN(___, 0, 0x000),
    DN(___, 0, 0x000),
    DN(___, 0, 0x000),
    DN(___, 0, 0x000),
    DN(___, 0, 0x000),
    DN(___, 0, 0x000),
    DN(___, 0, 0x000),
    DN(___, 0, 0x000),
    DN(___, 0, 0x000),
    DN(___, 0, 0x000),
    DN(___, 0, 0x000),
    DN(___, 0, 0x000),
    DN(___, 0, 0x000),
    DN(___, 0, 0x000),
    DN(___, 0, 0x000),
    DN(___, 0, 0x000),
    DN(___, 0, 0x000),
    DN(___, 0, 0x000),
    DN(___, 0, 0x000),
    DN(___, 0, 0x000),
    DN(___, 0, 0x000),
    DN(___, 0, 0x000),
    DN(___, 0, 0x000),
    DN(___, 0, 0x000),
    DN(___, 0, 0x000),
    DN(___, 0, 0x000),
    DN(___, 0, 0x000),
    DN(___, 0, 0x000),
    DN(___, 0, 0x000),
    DN(___, 0, 0x000),
    DN(___, 0, 0x000),
    DN(___, 0, 0x000),
    DN(___, 0, 0x000),
    DN(___, 0, 0x000),
    DN(___, 0, 0x000),
    DN(___, 0, 0x000),
    DN(___, 0, 0x000),
    DN(___, 0, 0x000),
    DN(___, 0, 0x000),
    DN(___, 0, 0x000),
    DN(___, 0, 0x000),
    DN(___, 0, 0x000),
    DN(___, 0, 0x000),
    DN(___, 0, 0x000),
    DN(___, 0, 0x000),
    DN(___, 0, 0x000),
    DN(___, 0, 0x000),
    DN(___, 0, 0x000),
};
static const unsigned char song_pattern_1[] = {
    DN(F_4, 1, 0x000),
    DN(C_5, 1, 0x000),
    DN(F_5, 1, 0x000),
    DN(F_4, 1, 0x000),
    DN(Ds5, 1, 0x000),
    DN(C_5, 1, 0x000),
    DN(Ds5, 1, 0x000),
    DN(F_5, 1, 0x000),
    DN(F_4, 1, 0x000),
    DN(C_5, 1, 0x000),
    DN(F_5, 1, 0x000),
    DN(F_4, 1, 0x000),
    DN(Ds5, 1, 0x000),
    DN(C_5, 1, 0x000),
    DN(Ds5, 1, 0x000),
    DN(F_5, 1, 0x000),
    DN(F_4, 1, 0x000),
    DN(C_5, 1, 0x000),
    DN(F_5, 1, 0x000),
    DN(F_4, 1, 0x000),
    DN(Ds5, 1, 0x000),
    DN(C_5, 1, 0x000),
    DN(Ds5, 1, 0x000),
    DN(F_5, 1, 0x000),
    DN(F_4, 1, 0x000),
    DN(C_5, 1, 0x000),
    DN(F_5, 1, 0x000),
    DN(F_4, 1, 0x000),
    DN(Ds5, 1, 0x000),
    DN(C_5, 1, 0x000),
    DN(Ds5, 1, 0x000),
    DN(F_5, 1, 0x000),
    DN(F_4, 1, 0x000),
    DN(C_5, 1, 0x000),
    DN(F_5, 1, 0x000),
    DN(F_4, 1, 0x000),
    DN(Ds5, 1, 0x000),
    DN(C_5, 1, 0x000),
    DN(Ds5, 1, 0x000),
    DN(F_5, 1, 0x000),
    DN(F_4, 1, 0x000),
    DN(C_5, 1, 0x000),
    DN(F_5, 1, 0x000),
    DN(F_4, 1, 0x000),
    DN(Ds5, 1, 0x000),
    DN(C_5, 1, 0x000),
    DN(Ds5, 1, 0x000),
    DN(F_5, 1, 0x000),
    DN(F_4, 1, 0x000),
    DN(C_5, 1, 0x000),
    DN(F_5, 1, 0x000),
    DN(F_4, 1, 0x000),
    DN(Ds5, 1, 0x000),
    DN(C_5, 1, 0x000),
    DN(Ds5, 1, 0x000),
    DN(F_5, 1, 0x000),
    DN(F_4, 1, 0x000),
    DN(C_5, 1, 0x000),
    DN(F_5, 1, 0x000),
    DN(F_4, 1, 0x000),
    DN(Ds5, 1, 0x000),
    DN(C_5, 1, 0x000),
    DN(Ds5, 1, 0x000),
    DN(F_5, 1, 0x000),
};
static const unsigned char song_pattern_2[] = {
    DN(___, 0, 0xE00),
    DN(___, 0, 0x000),
    DN(___, 0, 0x000),
    DN(___, 0, 0x000),
    DN(___, 0, 0x000),
    DN(___, 0, 0x000),
    DN(___, 0, 0x000),
    DN(___, 0, 0x000),
    DN(___, 0, 0x000),
    DN(___, 0, 0x000),
    DN(___, 0, 0x000),
    DN(___, 0, 0x000),
    DN(___, 0, 0x000),
    DN(___, 0, 0x000),
    DN(___, 0, 0x000),
    DN(___, 0, 0x000),
    DN(___, 0, 0x000),
    DN(___, 0, 0x000),
    DN(___, 0, 0x000),
    DN(___, 0, 0x000),
    DN(___, 0, 0x000),
    DN(___, 0, 0x000),
    DN(___, 0, 0x000),
    DN(___, 0, 0x000),
    DN(___, 0, 0x000),
    DN(___, 0, 0x000),
    DN(___, 0, 0x000),
    DN(___, 0, 0x000),
    DN(___, 0, 0x000),
    DN(___, 0, 0x000),
    DN(___, 0, 0x000),
    DN(___, 0, 0xB02),
    DN(___, 0, 0x000),
    DN(___, 0, 0x000),
    DN(___, 0, 0x000),
    DN(___, 0, 0x000),
    DN(___, 0, 0x000),
    DN(___, 0, 0x000),
    DN(___, 0, 0x000),
    DN(___, 0, 0x000),
    DN(___, 0, 0x000),
    DN(___, 0, 0x000),
    DN(___, 0, 0x000),
    DN(___, 0, 0x000),
    DN(___, 0, 0x000),
    DN(___, 0, 0x000),
    DN(___, 0, 0x000),
    DN(___, 0, 0x000),
    DN(___, 0, 0x000),
    DN(___, 0, 0x000),
    DN(___, 0, 0x000),
    DN(___, 0, 0x000),
    DN(___, 0, 0x000),
    DN(___, 0, 0x000),
    DN(___, 0, 0x000),
    DN(___, 0, 0x000),
    DN(___, 0, 0x000),
    DN(___, 0, 0x000),
    DN(___, 0, 0x000),
    DN(___, 0, 0x000),
    DN(___, 0, 0x000),
    DN(___, 0, 0x000),
    DN(___, 0, 0x000),
    DN(___, 0, 0x000),
};
static const unsigned char song_pattern_3[] = {
    DN(___, 0, 0x000),
    DN(___, 0, 0x000),
    DN(___, 0, 0x000),
    DN(___, 0, 0x000),
    DN(___, 0, 0x000),
    DN(___, 0, 0x000),
    DN(___, 0, 0x000),
    DN(___, 0, 0x000),
    DN(___, 0, 0x000),
    DN(___, 0, 0x000),
    DN(___, 0, 0x000),
    DN(___, 0, 0x000),
    DN(___, 0, 0x000),
    DN(___, 0, 0x000),
    DN(___, 0, 0x000),
    DN(___, 0, 0x000),
    DN(Fs5, 2, 0x288),
    DN(___, 0, 0x227),
    DN(Fs3, 0, 0x000),
    DN(___, 0, 0x000),
    DN(Fs5, 2, 0x288),
    DN(___, 0, 0x227),
    DN(Fs3, 0, 0x000),
    DN(___, 0, 0x000),
    DN(Cs5, 2, 0x288),
    DN(___, 0, 0x257),
    DN(Cs3, 0, 0x000),
    DN(___, 0, 0x000),
    DN(Cs5, 2, 0x288),
    DN(___, 0, 0x257),
    DN(Cs3, 0, 0x000),
    DN(___, 0, 0x000),
    DN(F_5, 2, 0x298),
    DN(___, 0, 0x227),
    DN(F_3, 0, 0x000),
    DN(___, 0, 0x000),
    DN(F_5, 2, 0x298),
    DN(___, 0, 0x227),
    DN(F_3, 0, 0x000),
    DN(___, 0, 0x000),
    DN(F_5, 2, 0x298),
    DN(___, 0, 0x227),
    DN(F_3, 0, 0x000),
    DN(___, 0, 0x000),
    DN(F_5, 2, 0x298),
    DN(___, 0, 0x227),
    DN(F_3, 0, 0x000),
    DN(___, 0, 0x000),
    DN(F_5, 2, 0x298),
    DN(___, 0, 0x227),
    DN(F_3, 0, 0x000),
    DN(___, 0, 0x000),
    DN(F_5, 2, 0x298),
    DN(___, 0, 0x227),
    DN(F_3, 0, 0x000),
    DN(___, 0, 0x000),
    DN(F_5, 2, 0x298),
    DN(___, 0, 0x227),
    DN(F_3, 0, 0x000),
    DN(___, 0, 0x000),
    DN(F_5, 2, 0x298),
    DN(___, 0, 0x227),
    DN(F_3, 0, 0x000),
    DN(___, 0, 0x000),
};
static const unsigned char song_pattern_4[] = {
    DN(F_6, 1, 0x206),
    DN(___, 0, 0x206),
    DN(___, 0, 0x206),
    DN(___, 0, 0x206),
    DN(___, 0, 0x206),
    DN(___, 0, 0x206),
    DN(___, 0, 0x206),
    DN(___, 0, 0x206),
    DN(___, 0, 0x206),
    DN(___, 0, 0x206),
    DN(___, 0, 0x206),
    DN(___, 0, 0x206),
    DN(___, 0, 0x206),
    DN(___, 0, 0x206),
    DN(___, 0, 0x206),
    DN(___, 0, 0x206),
    DN(___, 0, 0x206),
    DN(___, 0, 0x206),
    DN(___, 0, 0x206),
    DN(___, 0, 0x206),
    DN(___, 0, 0x206),
    DN(___, 0, 0x206),
    DN(___, 0, 0x206),
    DN(___, 0, 0x206),
    DN(___, 0, 0x206),
    DN(___, 0, 0x206),
    DN(___, 0, 0x206),
    DN(___, 0, 0x206),
    DN(___, 0, 0x206),
    DN(___, 0, 0x206),
    DN(___, 0, 0x206),
    DN(___, 0, 0x206),
    DN(F_5, 1, 0x000),
    DN(C_6, 1, 0x000),
    DN(F_6, 1, 0x000),
    DN(F_5, 1, 0x000),
    DN(Ds6, 1, 0x000),
    DN(C_6, 1, 0x000),
    DN(Ds6, 1, 0x000),
    DN(F_6, 1, 0x000),
    DN(F_5, 1, 0x000),
    DN(C_6, 1, 0x000),
    DN(F_6, 1, 0x000),
    DN(F_5, 1, 0x000),
    DN(Ds6, 1, 0x000),
    DN(C_6, 1, 0x000),
    DN(Ds6, 1, 0x000),
    DN(F_6, 1, 0x000),
    DN(F_5, 1, 0x000),
    DN(C_6, 1, 0x000),
    DN(F_6, 1, 0x000),
    DN(F_5, 1, 0x000),
    DN(Ds6, 1, 0x000),
    DN(C_6, 1, 0x000),
    DN(Ds6, 1, 0x000),
    DN(F_6, 1, 0x000),
    DN(F_5, 1, 0x000),
    DN(C_6, 1, 0x000),
    DN(F_6, 1, 0x000),
    DN(F_5, 1, 0x000),
    DN(Ds6, 1, 0x000),
    DN(C_6, 1, 0x000),
    DN(Ds6, 1, 0x000),
    DN(F_6, 1, 0x000),
};
static const unsigned char song_pattern_5[] = {
    DN(B_5, 2, 0x000),
    DN(___, 0, 0x000),
    DN(___, 0, 0x000),
    DN(___, 0, 0x000),
    DN(B_5, 2, 0x000),
    DN(___, 0, 0x000),
    DN(___, 0, 0x000),
    DN(___, 0, 0x000),
    DN(B_5, 2, 0x000),
    DN(___, 0, 0x000),
    DN(___, 0, 0x000),
    DN(___, 0, 0x000),
    DN(B_5, 2, 0x000),
    DN(___, 0, 0x000),
    DN(___, 0, 0x000),
    DN(___, 0, 0x000),
    DN(B_5, 2, 0x000),
    DN(___, 0, 0x000),
    DN(___, 0, 0x000),
    DN(___, 0, 0x000),
    DN(B_5, 2, 0x000),
    DN(___, 0, 0x000),
    DN(___, 0, 0x000),
    DN(___, 0, 0x000),
    DN(B_5, 2, 0x000),
    DN(___, 0, 0x000),
    DN(___, 0, 0x000),
    DN(___, 0, 0x000),
    DN(B_5, 2, 0x000),
    DN(___, 0, 0x000),
    DN(___, 0, 0x000),
    DN(___, 0, 0x000),
    DN(B_5, 2, 0x000),
    DN(___, 0, 0x000),
    DN(Ds7, 2, 0x000),
    DN(___, 0, 0x000),
    DN(B_5, 2, 0x000),
    DN(___, 0, 0x000),
    DN(Ds7, 2, 0x000),
    DN(___, 0, 0x000),
    DN(B_5, 2, 0x000),
    DN(___, 0, 0x000),
    DN(Ds7, 2, 0x000),
    DN(___, 0, 0x000),
    DN(B_5, 2, 0x000),
    DN(___, 0, 0x000),
    DN(Ds7, 2, 0x000),
    DN(___, 0, 0x000),
    DN(B_5, 2, 0x000),
    DN(___, 0, 0x000),
    DN(Ds7, 2, 0x000),
    DN(___, 0, 0x000),
    DN(B_5, 2, 0x000),
    DN(___, 0, 0x000),
    DN(Ds7, 2, 0x000),
    DN(___, 0, 0x000),
    DN(B_5, 2, 0x000),
    DN(___, 0, 0x000),
    DN(Ds7, 2, 0x000),
    DN(___, 0, 0x000),
    DN(B_5, 2, 0x000),
    DN(___, 0, 0x000),
    DN(Ds7, 2, 0x000),
    DN(___, 0, 0x000),
};
static const unsigned char song_pattern_6[] = {
    DN(F_5, 2, 0x298),
    DN(___, 0, 0x227),
    DN(F_3, 0, 0x000),
    DN(___, 0, 0x000),
    DN(F_5, 2, 0x298),
    DN(___, 0, 0x227),
    DN(F_3, 0, 0x000),
    DN(___, 0, 0x000),
    DN(F_5, 2, 0x298),
    DN(___, 0, 0x227),
    DN(F_3, 0, 0x000),
    DN(___, 0, 0x000),
    DN(F_5, 2, 0x298),
    DN(___, 0, 0x227),
    DN(F_3, 0, 0x000),
    DN(___, 0, 0x000),
    DN(F_5, 2, 0x298),
    DN(___, 0, 0x227),
    DN(F_3, 0, 0x000),
    DN(___, 0, 0x000),
    DN(F_5, 2, 0x298),
    DN(___, 0, 0x227),
    DN(F_3, 0, 0x000),
    DN(___, 0, 0x000),
    DN(F_5, 2, 0x298),
    DN(___, 0, 0x227),
    DN(F_3, 0, 0x000),
    DN(___, 0, 0x000),
    DN(F_5, 2, 0x298),
    DN(___, 0, 0x227),
    DN(F_3, 0, 0x000),
    DN(___, 0, 0x000),
    DN(F_5, 2, 0x298),
    DN(___, 0, 0x227),
    DN(F_3, 0, 0x000),
    DN(___, 0, 0x000),
    DN(F_5, 2, 0x298),
    DN(___, 0, 0x227),
    DN(F_3, 0, 0x000),
    DN(___, 0, 0x000),
    DN(F_5, 2, 0x298),
    DN(___, 0, 0x227),
    DN(F_3, 0, 0x000),
    DN(___, 0, 0x000),
    DN(F_5, 2, 0x298),
    DN(___, 0, 0x227),
    DN(F_3, 0, 0x000),
    DN(___, 0, 0x000),
    DN(F_5, 2, 0x298),
    DN(___, 0, 0x227),
    DN(F_3, 0, 0x000),
    DN(___, 0, 0x000),
    DN(F_5, 2, 0x298),
    DN(___, 0, 0x227),
    DN(F_3, 0, 0x000),
    DN(___, 0, 0x000),
    DN(F_5, 2, 0x298),
    DN(___, 0, 0x227),
    DN(F_3, 0, 0x000),
    DN(___, 0, 0x000),
    DN(F_5, 2, 0x298),
    DN(___, 0, 0x227),
    DN(F_3, 0, 0x000),
    DN(___, 0, 0x000),
};
static const unsigned char song_pattern_7[] = {
    DN(As4, 1, 0x000),
    DN(F_5, 1, 0x000),
    DN(As5, 1, 0x000),
    DN(As4, 1, 0x000),
    DN(Gs5, 1, 0x000),
    DN(F_5, 1, 0x000),
    DN(Gs5, 1, 0x000),
    DN(As5, 1, 0x000),
    DN(As4, 1, 0x000),
    DN(F_5, 1, 0x000),
    DN(As5, 1, 0x000),
    DN(As4, 1, 0x000),
    DN(Gs5, 1, 0x000),
    DN(F_5, 1, 0x000),
    DN(Gs5, 1, 0x000),
    DN(As5, 1, 0x000),
    DN(As4, 1, 0x000),
    DN(F_5, 1, 0x000),
    DN(As5, 1, 0x000),
    DN(As4, 1, 0x000),
    DN(Gs5, 1, 0x000),
    DN(F_5, 1, 0x000),
    DN(Gs5, 1, 0x000),
    DN(As5, 1, 0x000),
    DN(As4, 1, 0x000),
    DN(F_5, 1, 0x000),
    DN(As5, 1, 0x000),
    DN(As4, 1, 0x000),
    DN(Gs5, 1, 0x000),
    DN(F_5, 1, 0x000),
    DN(Gs5, 1, 0x000),
    DN(As5, 1, 0x000),
    DN(F_5, 1, 0x000),
    DN(C_6, 1, 0x000),
    DN(F_6, 1, 0x000),
    DN(F_5, 1, 0x000),
    DN(Ds6, 1, 0x000),
    DN(C_6, 1, 0x000),
    DN(Ds6, 1, 0x000),
    DN(F_6, 1, 0x000),
    DN(F_5, 1, 0x000),
    DN(C_6, 1, 0x000),
    DN(F_6, 1, 0x000),
    DN(F_5, 1, 0x000),
    DN(Ds6, 1, 0x000),
    DN(C_6, 1, 0x000),
    DN(Ds6, 1, 0x000),
    DN(F_6, 1, 0x000),
    DN(C_6, 1, 0x000),
    DN(G_6, 1, 0x000),
    DN(C_7, 1, 0x000),
    DN(C_6, 1, 0x000),
    DN(As6, 1, 0x000),
    DN(G_6, 1, 0x000),
    DN(As6, 1, 0x000),
    DN(C_7, 1, 0x000),
    DN(As4, 1, 0x000),
    DN(F_5, 1, 0x000),
    DN(As5, 1, 0x000),
    DN(As4, 1, 0x000),
    DN(Gs5, 1, 0x000),
    DN(F_5, 1, 0x000),
    DN(Gs5, 1, 0x000),
    DN(As5, 1, 0x000),
};
static const unsigned char song_pattern_8[] = {
    DN(F_4, 1, 0x055),
    DN(C_5, 1, 0x055),
    DN(F_5, 1, 0x055),
    DN(F_4, 1, 0x055),
    DN(Ds5, 1, 0x055),
    DN(C_5, 1, 0x055),
    DN(Ds5, 1, 0x055),
    DN(F_5, 1, 0x055),
    DN(F_4, 1, 0x055),
    DN(C_5, 1, 0x055),
    DN(F_5, 1, 0x055),
    DN(F_4, 1, 0x055),
    DN(Ds5, 1, 0x055),
    DN(C_5, 1, 0x055),
    DN(Ds5, 1, 0x055),
    DN(F_5, 1, 0x055),
    DN(F_4, 1, 0x055),
    DN(C_5, 1, 0x055),
    DN(F_5, 1, 0x055),
    DN(F_4, 1, 0x055),
    DN(Ds5, 1, 0x055),
    DN(C_5, 1, 0x055),
    DN(Ds5, 1, 0x055),
    DN(F_5, 1, 0x055),
    DN(F_4, 1, 0x055),
    DN(C_5, 1, 0x055),
    DN(F_5, 1, 0x055),
    DN(F_4, 1, 0x055),
    DN(Ds5, 1, 0x055),
    DN(C_5, 1, 0x055),
    DN(Ds5, 1, 0x055),
    DN(F_5, 1, 0x055),
    DN(F_4, 1, 0x000),
    DN(C_5, 1, 0x000),
    DN(F_5, 1, 0x000),
    DN(F_4, 1, 0x000),
    DN(Ds5, 1, 0x000),
    DN(C_5, 1, 0x000),
    DN(Ds5, 1, 0x000),
    DN(F_5, 1, 0x000),
    DN(F_4, 1, 0x000),
    DN(C_5, 1, 0x000),
    DN(F_5, 1, 0x000),
    DN(F_4, 1, 0x000),
    DN(Ds5, 1, 0x000),
    DN(C_5, 1, 0x000),
    DN(Ds5, 1, 0x000),
    DN(F_5, 1, 0x000),
    DN(G_4, 1, 0x055),
    DN(D_5, 1, 0x055),
    DN(G_5, 1, 0x055),
    DN(G_4, 1, 0x055),
    DN(F_5, 1, 0x055),
    DN(D_5, 1, 0x055),
    DN(F_5, 1, 0x055),
    DN(G_5, 1, 0x055),
    DN(F_4, 1, 0x055),
    DN(C_5, 1, 0x055),
    DN(F_5, 1, 0x055),
    DN(F_4, 1, 0x055),
    DN(Ds5, 1, 0x055),
    DN(C_5, 1, 0x055),
    DN(Ds5, 1, 0x055),
    DN(F_5, 1, 0x055),
};
static const unsigned char song_pattern_9[] = {
    DN(B_5, 2, 0x000),
    DN(___, 0, 0x000),
    DN(Ds7, 2, 0x000),
    DN(___, 0, 0x000),
    DN(B_5, 2, 0x000),
    DN(___, 0, 0x000),
    DN(Ds7, 2, 0x000),
    DN(___, 0, 0x000),
    DN(B_5, 2, 0x000),
    DN(___, 0, 0x000),
    DN(Ds7, 2, 0x000),
    DN(___, 0, 0x000),
    DN(B_5, 2, 0x000),
    DN(___, 0, 0x000),
    DN(Ds7, 2, 0x000),
    DN(___, 0, 0x000),
    DN(B_5, 2, 0x000),
    DN(___, 0, 0x000),
    DN(Ds7, 2, 0x000),
    DN(___, 0, 0x000),
    DN(B_5, 2, 0x000),
    DN(___, 0, 0x000),
    DN(Ds7, 2, 0x000),
    DN(___, 0, 0x000),
    DN(B_5, 2, 0x000),
    DN(___, 0, 0x000),
    DN(Ds7, 2, 0x000),
    DN(___, 0, 0x000),
    DN(B_5, 2, 0x000),
    DN(___, 0, 0x000),
    DN(Ds7, 2, 0x000),
    DN(___, 0, 0x000),
    DN(B_5, 2, 0x000),
    DN(___, 0, 0x000),
    DN(Ds7, 2, 0x000),
    DN(___, 0, 0x000),
    DN(B_5, 2, 0x000),
    DN(___, 0, 0x000),
    DN(Ds7, 2, 0x000),
    DN(___, 0, 0x000),
    DN(B_5, 2, 0x000),
    DN(___, 0, 0x000),
    DN(Ds7, 2, 0x000),
    DN(___, 0, 0x000),
    DN(B_5, 2, 0x000),
    DN(___, 0, 0x000),
    DN(Ds7, 2, 0x000),
    DN(___, 0, 0x000),
    DN(B_5, 2, 0x000),
    DN(___, 0, 0x000),
    DN(Ds7, 2, 0x000),
    DN(___, 0, 0x000),
    DN(B_5, 2, 0x000),
    DN(___, 0, 0x000),
    DN(Ds7, 2, 0x000),
    DN(___, 0, 0x000),
    DN(B_5, 2, 0x000),
    DN(___, 0, 0x000),
    DN(Ds7, 2, 0x000),
    DN(___, 0, 0x000),
    DN(B_5, 2, 0x000),
    DN(___, 0, 0x000),
    DN(Ds7, 2, 0x000),
    DN(___, 0, 0x000),
};
static const unsigned char song_pattern_10[] = {
    DN(B_5, 2, 0x000),
    DN(___, 0, 0x000),
    DN(___, 0, 0x000),
    DN(___, 0, 0x000),
    DN(B_5, 2, 0x000),
    DN(___, 0, 0x000),
    DN(___, 0, 0x000),
    DN(___, 0, 0x000),
    DN(B_5, 2, 0x000),
    DN(___, 0, 0x000),
    DN(___, 0, 0x000),
    DN(___, 0, 0x000),
    DN(B_5, 2, 0x000),
    DN(___, 0, 0x000),
    DN(___, 0, 0x000),
    DN(___, 0, 0x000),
    DN(B_5, 2, 0x000),
    DN(___, 0, 0x000),
    DN(___, 0, 0x000),
    DN(___, 0, 0x000),
    DN(B_5, 2, 0x000),
    DN(___, 0, 0x000),
    DN(___, 0, 0x000),
    DN(___, 0, 0x000),
    DN(B_5, 2, 0x000),
    DN(___, 0, 0x000),
    DN(___, 0, 0x000),
    DN(___, 0, 0x000),
    DN(B_5, 2, 0x000),
    DN(___, 0, 0x000),
    DN(___, 0, 0x000),
    DN(___, 0, 0xB02),
    DN(___, 0, 0x000),
    DN(___, 0, 0x000),
    DN(___, 0, 0x000),
    DN(___, 0, 0x000),
    DN(___, 0, 0x000),
    DN(___, 0, 0x000),
    DN(___, 0, 0x000),
    DN(___, 0, 0x000),
    DN(___, 0, 0x000),
    DN(___, 0, 0x000),
    DN(___, 0, 0x000),
    DN(___, 0, 0x000),
    DN(___, 0, 0x000),
    DN(___, 0, 0x000),
    DN(___, 0, 0x000),
    DN(___, 0, 0x000),
    DN(___, 0, 0x000),
    DN(___, 0, 0x000),
    DN(___, 0, 0x000),
    DN(___, 0, 0x000),
    DN(___, 0, 0x000),
    DN(___, 0, 0x000),
    DN(___, 0, 0x000),
    DN(___, 0, 0x000),
    DN(___, 0, 0x000),
    DN(___, 0, 0x000),
    DN(___, 0, 0x000),
    DN(___, 0, 0x000),
    DN(___, 0, 0x000),
    DN(___, 0, 0x000),
    DN(___, 0, 0x000),
    DN(___, 0, 0x000),
};
static const unsigned char* const order1[] = {song_pattern_0, song_pattern_3, song_pattern_6, song_pattern_0};
static const unsigned char* const order2[] = {song_pattern_0, song_pattern_4, song_pattern_7, song_pattern_0};
static const unsigned char* const order3[] = {song_pattern_1, song_pattern_1, song_pattern_8, song_pattern_1};
static const unsigned char* const order4[] = {song_pattern_2, song_pattern_5, song_pattern_9, song_pattern_10};
static const unsigned char duty_instruments[] = {
    0x00, 0x00, 0xB0, 0x80,
    0x00, 0x80, 0xF0, 0x80,
    0x00, 0x80, 0xF0, 0x80,
    0x00, 0xC0, 0xF0, 0x80,
    0x00, 0x00, 0xF1, 0x80,
    0x00, 0x40, 0xF1, 0x80,
    0x00, 0x80, 0xF1, 0x80,
    0x00, 0xC0, 0xF1, 0x80,
    0x00, 0x80, 0xF0, 0x80,
    0x00, 0x80, 0xF0, 0x80,
    0x00, 0x80, 0xF0, 0x80,
    0x00, 0x80, 0xF0, 0x80,
    0x00, 0x80, 0xF0, 0x80,
    0x00, 0x80, 0xF0, 0x80,
    0x00, 0x80, 0xF0, 0x80,
};
static const unsigned char wave_instruments[] = {
    0x00, 0x20, 0x00, 0x80,
    0x00, 0x20, 0x01, 0x80,
    0x00, 0x20, 0x02, 0x80,
    0x00, 0x20, 0x03, 0x80,
    0x00, 0x20, 0x04, 0x80,
    0x00, 0x20, 0x05, 0x80,
    0x00, 0x20, 0x06, 0x80,
    0x00, 0x20, 0x07, 0x80,
    0x00, 0x20, 0x08, 0x80,
    0x00, 0x20, 0x09, 0x80,
    0x00, 0x20, 0x0A, 0x80,
    0x00, 0x20, 0x0B, 0x80,
    0x00, 0x20, 0x0C, 0x80,
    0x00, 0x20, 0x0D, 0x80,
    0x00, 0x20, 0x0E, 0x80,
};
static const unsigned char noise_instruments[] = {
    0xF0, 0x00, 0, 0, 0, 0, 0, 0,
    0xB1, 0x00, 0, 0, 0, 0, 0, 0,
    0xF0, 0x00, 0, 0, 0, 0, 0, 0,
    0xF0, 0x00, 0, 0, 0, 0, 0, 0,
    0xF0, 0x00, 0, 0, 0, 0, 0, 0,
    0xF0, 0x00, 0, 0, 0, 0, 0, 0,
    0xF0, 0x00, 0, 0, 0, 0, 0, 0,
    0xF0, 0x00, 0, 0, 0, 0, 0, 0,
    0xF0, 0x00, 0, 0, 0, 0, 0, 0,
    0xF0, 0x00, 0, 0, 0, 0, 0, 0,
    0xF0, 0x00, 0, 0, 0, 0, 0, 0,
    0xF0, 0x00, 0, 0, 0, 0, 0, 0,
    0xF0, 0x00, 0, 0, 0, 0, 0, 0,
    0xF0, 0x00, 0, 0, 0, 0, 0, 0,
    0xF0, 0x00, 0, 0, 0, 0, 0, 0,
};
static const unsigned char waves[] = {
    0xFF, 0xEE, 0xDD, 0xCC, 0xBB, 0xAA, 0x99, 0x88, 0x77, 0x66, 0x55, 0x44, 0x33, 0x22, 0x11, 0x00,
    0x00, 0x00, 0x00, 0x00, 0xFF, 0xFF, 0xFF, 0xFF, 0xFF, 0xFF, 0xFF, 0xFF, 0xFF, 0xFF, 0xFF, 0xFF,
    0x00, 0x00, 0x00, 0x00, 0x00, 0x00, 0x00, 0x00, 0xFF, 0xFF, 0xFF, 0xFF, 0xFF, 0xFF, 0xFF, 0xFF,
    0x00, 0x00, 0x00, 0x00, 0x00, 0x00, 0x00, 0x00, 0x00, 0x00, 0x00, 0x00, 0xFF, 0xFF, 0xFF, 0xFF,
    0x00, 0x01, 0x12, 0x23, 0x34, 0x45, 0x56, 0x67, 0x78, 0x89, 0x9A, 0xAB, 0xBC, 0xCD, 0xDE, 0xEF,
    0xFE, 0xDC, 0xBA, 0x98, 0x76, 0x54, 0x32, 0x10, 0x12, 0x34, 0x56, 0x78, 0x9A, 0xBC, 0xDE, 0xFF,
    0x7A, 0xCD, 0xDB, 0x75, 0x21, 0x13, 0x68, 0xBD, 0xDC, 0x97, 0x41, 0x01, 0x47, 0x9C, 0xDD, 0xB8,
    0x0F, 0x0F, 0x0F, 0x0F, 0x0F, 0x0F, 0x0F, 0x0F, 0x0F, 0x0F, 0x0F, 0x0F, 0x0F, 0x0F, 0x0F, 0x0F,
    0xFE, 0xFC, 0xFA, 0xF8, 0xF6, 0xF4, 0xF2, 0xF0, 0xF2, 0xF4, 0xF6, 0xF8, 0xFA, 0xFC, 0xFE, 0xFF,
    0xFE, 0xDD, 0xCC, 0xBB, 0xAA, 0x99, 0x88, 0x77, 0x8A, 0xBD, 0xF1, 0x24, 0x57, 0x8A, 0xBD, 0xEE,
    0x84, 0x11, 0x61, 0xED, 0x57, 0x47, 0x5A, 0xAD, 0xCE, 0xA3, 0x17, 0x79, 0xDD, 0x20, 0x03, 0x47,
    0x24, 0x96, 0x17, 0x01, 0xA7, 0x0B, 0x55, 0x6A, 0x0E, 0x39, 0x51, 0x72, 0x21, 0x16, 0x48, 0x8C,
    0xDB, 0x14, 0xC9, 0x13, 0x36, 0x28, 0x67, 0xA6, 0x17, 0xCD, 0x08, 0xB3, 0x90, 0x56, 0x5A, 0x99,
    0x36, 0x19, 0x42, 0x6E, 0x91, 0xC9, 0x90, 0xD6, 0xAD, 0x52, 0x2D, 0xE6, 0x1A, 0x6E, 0xCE, 0x6E,
    0xEA, 0x6D, 0x4D, 0xCC, 0x87, 0x63, 0x48, 0x72, 0x8C, 0x1B, 0xBC, 0x1D, 0xD3, 0xDD, 0x47, 0x88,
    0x89, 0xBC, 0x0B, 0xD4, 0x99, 0x2D, 0x4D, 0x28, 0x01, 0x6B, 0x17, 0xD5, 0xCB, 0x80, 0x18, 0x9A,
};

const void __at(255) __bank_song_rulz_fastpacespeedrace_0_Data;
const hUGESong_t song_rulz_fastpacespeedrace_0_Data = {
    6,
    &order_cnt,
    order1, order2, order3, order4,
    duty_instruments, wave_instruments, noise_instruments,
    routines,
    waves
};
