#pragma bank 255

#include "hUGEDriver.h"
#include <stddef.h>
#include "hUGEDriverRoutines.h"

static const unsigned char order_cnt = 16;
static const unsigned char song_pattern_0[] = {
    DN(___, 0, 0x000),
    DN(___, 0, 0x000),
    DN(___, 0, 0x000),
    DN(___, 0, 0x000),
    DN(___, 0, 0x000),
    DN(___, 0, 0x000),
    DN(___, 0, 0x000),
    DN(___, 0, 0x000),
    DN(___, 0, 0x000),
    DN(___, 0, 0x000),
    DN(___, 0, 0x000),
    DN(___, 0, 0x000),
    DN(___, 0, 0x000),
    DN(___, 0, 0x000),
    DN(___, 0, 0x000),
    DN(___, 0, 0x000),
    DN(___, 0, 0x000),
    DN(___, 0, 0x000),
    DN(___, 0, 0x000),
    DN(___, 0, 0x000),
    DN(___, 0, 0x000),
    DN(___, 0, 0x000),
    DN(___, 0, 0x000),
    DN(___, 0, 0x000),
    DN(___, 0, 0x000),
    DN(___, 0, 0x000),
    DN(___, 0, 0x000),
    DN(___, 0, 0x000),
    DN(___, 0, 0x000),
    DN(___, 0, 0x000),
    DN(___, 0, 0x000),
    DN(___, 0, 0x000),
    DN(___, 0, 0x000),
    DN(___, 0, 0x000),
    DN(___, 0, 0x000),
    DN(___, 0, 0x000),
    DN(___, 0, 0x000),
    DN(___, 0, 0x000),
    DN(___, 0, 0x000),
    DN(___, 0, 0x000),
    DN(___, 0, 0x000),
    DN(___, 0, 0x000),
    DN(___, 0, 0x000),
    DN(___, 0, 0x000),
    DN(___, 0, 0x000),
    DN(___, 0, 0x000),
    DN(___, 0, 0x000),
    DN(___, 0, 0x000),
    DN(___, 0, 0x000),
    DN(___, 0, 0x000),
    DN(___, 0, 0x000),
    DN(___, 0, 0x000),
    DN(___, 0, 0x000),
    DN(___, 0, 0x000),
    DN(___, 0, 0x000),
    DN(___, 0, 0x000),
    DN(___, 0, 0x000),
    DN(___, 0, 0x000),
    DN(___, 0, 0x000),
    DN(___, 0, 0x000),
    DN(___, 0, 0x000),
    DN(___, 0, 0x000),
    DN(___, 0, 0x000),
    DN(___, 0, 0x000),
};
static const unsigned char song_pattern_1[] = {
    DN(___, 0, 0x000),
    DN(___, 0, 0x000),
    DN(___, 0, 0x000),
    DN(___, 0, 0x000),
    DN(___, 0, 0x000),
    DN(___, 0, 0x000),
    DN(___, 0, 0x000),
    DN(___, 0, 0x000),
    DN(___, 0, 0x000),
    DN(___, 0, 0x000),
    DN(E_5, 2, 0xC01),
    DN(F_5, 2, 0xC02),
    DN(Fs5, 2, 0xC05),
    DN(Gs5, 2, 0xC06),
    DN(A_5, 2, 0xC07),
    DN(B_5, 2, 0xC08),
    DN(Cs6, 1, 0x000),
    DN(___, 0, 0x000),
    DN(___, 0, 0x000),
    DN(___, 0, 0x000),
    DN(___, 0, 0x000),
    DN(___, 0, 0x000),
    DN(___, 0, 0x000),
    DN(___, 0, 0x000),
    DN(B_5, 1, 0x000),
    DN(___, 0, 0x000),
    DN(___, 0, 0x000),
    DN(___, 0, 0x000),
    DN(___, 0, 0x000),
    DN(___, 0, 0x000),
    DN(___, 0, 0x000),
    DN(___, 0, 0x000),
    DN(___, 0, 0x000),
    DN(___, 0, 0x000),
    DN(___, 0, 0x000),
    DN(___, 0, 0x000),
    DN(___, 0, 0x000),
    DN(___, 0, 0x000),
    DN(___, 0, 0x000),
    DN(___, 0, 0x000),
    DN(___, 0, 0x000),
    DN(___, 0, 0x000),
    DN(___, 0, 0x000),
    DN(___, 0, 0x000),
    DN(___, 0, 0x000),
    DN(___, 0, 0x000),
    DN(___, 0, 0x000),
    DN(___, 0, 0x000),
    DN(___, 0, 0x000),
    DN(___, 0, 0x000),
    DN(___, 0, 0x000),
    DN(___, 0, 0x000),
    DN(___, 0, 0x000),
    DN(___, 0, 0x000),
    DN(___, 0, 0x000),
    DN(___, 0, 0x000),
    DN(___, 0, 0x000),
    DN(___, 0, 0x000),
    DN(___, 0, 0x000),
    DN(___, 0, 0x000),
    DN(___, 0, 0x000),
    DN(___, 0, 0x000),
    DN(___, 0, 0x000),
    DN(___, 0, 0x000),
};
static const unsigned char song_pattern_2[] = {
    DN(C_4, 1, 0x000),
    DN(C_4, 1, 0xC05),
    DN(___, 0, 0xE00),
    DN(___, 0, 0x000),
    DN(C_4, 1, 0x000),
    DN(C_4, 1, 0xC05),
    DN(___, 0, 0xE00),
    DN(___, 0, 0x000),
    DN(___, 0, 0x000),
    DN(___, 0, 0x000),
    DN(___, 0, 0x000),
    DN(___, 0, 0x000),
    DN(C_4, 1, 0x000),
    DN(C_4, 1, 0xC05),
    DN(___, 0, 0xE00),
    DN(___, 0, 0x000),
    DN(___, 0, 0x000),
    DN(___, 0, 0x000),
    DN(___, 0, 0x000),
    DN(___, 0, 0x000),
    DN(___, 0, 0x000),
    DN(___, 0, 0x000),
    DN(___, 0, 0x000),
    DN(___, 0, 0x000),
    DN(___, 0, 0x000),
    DN(___, 0, 0x000),
    DN(___, 0, 0x000),
    DN(___, 0, 0x000),
    DN(___, 0, 0x000),
    DN(___, 0, 0x000),
    DN(___, 0, 0x000),
    DN(___, 0, 0x000),
    DN(C_4, 1, 0x000),
    DN(C_4, 1, 0xC05),
    DN(___, 0, 0xE00),
    DN(___, 0, 0x000),
    DN(C_4, 1, 0x000),
    DN(C_4, 1, 0xC05),
    DN(___, 0, 0xE00),
    DN(___, 0, 0x000),
    DN(___, 0, 0x000),
    DN(___, 0, 0x000),
    DN(___, 0, 0x000),
    DN(___, 0, 0x000),
    DN(C_4, 1, 0x000),
    DN(C_4, 1, 0xC05),
    DN(___, 0, 0xE00),
    DN(___, 0, 0x000),
    DN(___, 0, 0x000),
    DN(___, 0, 0x000),
    DN(___, 0, 0x000),
    DN(___, 0, 0x000),
    DN(___, 0, 0x000),
    DN(___, 0, 0x000),
    DN(___, 0, 0x000),
    DN(___, 0, 0x000),
    DN(___, 0, 0x000),
    DN(___, 0, 0x000),
    DN(___, 0, 0x000),
    DN(___, 0, 0x000),
    DN(___, 0, 0x000),
    DN(___, 0, 0x000),
    DN(___, 0, 0x000),
    DN(___, 0, 0x000),
};
static const unsigned char song_pattern_3[] = {
    DN(C_6, 1, 0xE01),
    DN(___, 0, 0x000),
    DN(___, 0, 0x000),
    DN(___, 0, 0x000),
    DN(C_6, 1, 0xE01),
    DN(___, 0, 0x000),
    DN(___, 0, 0x000),
    DN(___, 0, 0x000),
    DN(C_7, 2, 0x000),
    DN(___, 0, 0x000),
    DN(___, 0, 0x000),
    DN(___, 0, 0x000),
    DN(C_6, 1, 0xE01),
    DN(___, 0, 0x000),
    DN(___, 0, 0x000),
    DN(___, 0, 0x000),
    DN(___, 0, 0x000),
    DN(___, 0, 0x000),
    DN(___, 0, 0x000),
    DN(___, 0, 0x000),
    DN(___, 0, 0x000),
    DN(___, 0, 0x000),
    DN(___, 0, 0x000),
    DN(___, 0, 0x000),
    DN(___, 0, 0x000),
    DN(___, 0, 0x000),
    DN(___, 0, 0x000),
    DN(___, 0, 0x000),
    DN(___, 0, 0x000),
    DN(___, 0, 0x000),
    DN(___, 0, 0x000),
    DN(___, 0, 0x000),
    DN(C_6, 1, 0xE01),
    DN(___, 0, 0x000),
    DN(___, 0, 0x000),
    DN(___, 0, 0x000),
    DN(C_6, 1, 0xE01),
    DN(___, 0, 0x000),
    DN(___, 0, 0x000),
    DN(___, 0, 0x000),
    DN(C_7, 2, 0x000),
    DN(___, 0, 0x000),
    DN(___, 0, 0x000),
    DN(___, 0, 0x000),
    DN(C_6, 1, 0xE01),
    DN(___, 0, 0x000),
    DN(___, 0, 0x000),
    DN(___, 0, 0x000),
    DN(___, 0, 0x000),
    DN(___, 0, 0x000),
    DN(___, 0, 0x000),
    DN(___, 0, 0x000),
    DN(___, 0, 0x000),
    DN(___, 0, 0x000),
    DN(___, 0, 0x000),
    DN(___, 0, 0x000),
    DN(___, 0, 0x000),
    DN(___, 0, 0x000),
    DN(___, 0, 0x000),
    DN(___, 0, 0x000),
    DN(___, 0, 0x000),
    DN(___, 0, 0x000),
    DN(___, 0, 0x000),
    DN(___, 0, 0x000),
};
static const unsigned char song_pattern_4[] = {
    DN(___, 0, 0x000),
    DN(___, 0, 0x000),
    DN(___, 0, 0x000),
    DN(___, 0, 0x000),
    DN(___, 0, 0x000),
    DN(___, 0, 0x000),
    DN(___, 0, 0x000),
    DN(___, 0, 0x000),
    DN(___, 0, 0x000),
    DN(___, 0, 0x000),
    DN(E_5, 2, 0xC01),
    DN(F_5, 2, 0xC02),
    DN(Fs5, 2, 0xC05),
    DN(Gs5, 2, 0xC06),
    DN(A_5, 2, 0xC07),
    DN(B_5, 2, 0xC08),
    DN(Cs6, 1, 0x000),
    DN(___, 0, 0x000),
    DN(___, 0, 0x000),
    DN(___, 0, 0x000),
    DN(___, 0, 0x000),
    DN(___, 0, 0x000),
    DN(___, 0, 0x000),
    DN(___, 0, 0x000),
    DN(Ds6, 1, 0x000),
    DN(___, 0, 0x000),
    DN(___, 0, 0x000),
    DN(___, 0, 0x000),
    DN(___, 0, 0x000),
    DN(___, 0, 0x000),
    DN(___, 0, 0x000),
    DN(___, 0, 0x000),
    DN(___, 0, 0x000),
    DN(___, 0, 0x000),
    DN(___, 0, 0x000),
    DN(___, 0, 0x000),
    DN(___, 0, 0x000),
    DN(___, 0, 0x000),
    DN(___, 0, 0x000),
    DN(___, 0, 0x000),
    DN(___, 0, 0x000),
    DN(___, 0, 0x000),
    DN(___, 0, 0x000),
    DN(___, 0, 0x000),
    DN(___, 0, 0x000),
    DN(___, 0, 0x000),
    DN(___, 0, 0x000),
    DN(___, 0, 0x000),
    DN(___, 0, 0x000),
    DN(___, 0, 0x000),
    DN(___, 0, 0x000),
    DN(___, 0, 0x000),
    DN(___, 0, 0x000),
    DN(___, 0, 0x000),
    DN(___, 0, 0x000),
    DN(___, 0, 0x000),
    DN(___, 0, 0x000),
    DN(___, 0, 0x000),
    DN(___, 0, 0x000),
    DN(___, 0, 0x000),
    DN(___, 0, 0x000),
    DN(___, 0, 0x000),
    DN(___, 0, 0x000),
    DN(___, 0, 0x000),
};
static const unsigned char song_pattern_5[] = {
    DN(C_4, 1, 0x000),
    DN(C_4, 1, 0xC05),
    DN(___, 0, 0xE00),
    DN(___, 0, 0x000),
    DN(C_4, 1, 0x000),
    DN(C_4, 1, 0xC05),
    DN(___, 0, 0xE00),
    DN(___, 0, 0x000),
    DN(___, 0, 0x000),
    DN(___, 0, 0x000),
    DN(___, 0, 0x000),
    DN(___, 0, 0x000),
    DN(C_4, 1, 0x000),
    DN(C_4, 1, 0xC05),
    DN(___, 0, 0xE00),
    DN(___, 0, 0x000),
    DN(___, 0, 0x000),
    DN(___, 0, 0x000),
    DN(___, 0, 0x000),
    DN(___, 0, 0x000),
    DN(___, 0, 0x000),
    DN(___, 0, 0x000),
    DN(___, 0, 0x000),
    DN(___, 0, 0x000),
    DN(___, 0, 0x000),
    DN(___, 0, 0x000),
    DN(___, 0, 0x000),
    DN(___, 0, 0x000),
    DN(___, 0, 0x000),
    DN(___, 0, 0x000),
    DN(___, 0, 0x000),
    DN(___, 0, 0x000),
    DN(C_4, 1, 0x000),
    DN(C_4, 1, 0xC05),
    DN(___, 0, 0xE00),
    DN(___, 0, 0x000),
    DN(C_4, 1, 0x000),
    DN(C_4, 1, 0xC05),
    DN(___, 0, 0xE00),
    DN(___, 0, 0x000),
    DN(___, 0, 0x000),
    DN(___, 0, 0x000),
    DN(___, 0, 0x000),
    DN(___, 0, 0x000),
    DN(C_4, 1, 0x000),
    DN(C_4, 1, 0xC05),
    DN(___, 0, 0xE00),
    DN(___, 0, 0x000),
    DN(___, 0, 0x000),
    DN(___, 0, 0x000),
    DN(___, 0, 0x000),
    DN(___, 0, 0x000),
    DN(___, 0, 0x000),
    DN(___, 0, 0x000),
    DN(___, 0, 0x000),
    DN(___, 0, 0x000),
    DN(B_5, 1, 0x000),
    DN(___, 0, 0x000),
    DN(___, 0, 0x000),
    DN(___, 0, 0x000),
    DN(B_5, 1, 0xC08),
    DN(___, 0, 0x000),
    DN(B_5, 1, 0xC04),
    DN(___, 0, 0x000),
};
static const unsigned char song_pattern_6[] = {
    DN(___, 0, 0x000),
    DN(___, 0, 0x000),
    DN(___, 0, 0x000),
    DN(___, 0, 0x000),
    DN(___, 0, 0x000),
    DN(___, 0, 0x000),
    DN(___, 0, 0x000),
    DN(___, 0, 0x000),
    DN(___, 0, 0x000),
    DN(___, 0, 0x000),
    DN(E_5, 2, 0xC01),
    DN(F_5, 2, 0xC02),
    DN(Fs5, 2, 0xC05),
    DN(Gs5, 2, 0xC06),
    DN(A_5, 2, 0xC07),
    DN(B_5, 2, 0xC08),
    DN(Cs6, 1, 0x000),
    DN(___, 0, 0x000),
    DN(___, 0, 0x000),
    DN(___, 0, 0x000),
    DN(___, 0, 0x000),
    DN(___, 0, 0x000),
    DN(___, 0, 0x000),
    DN(___, 0, 0x000),
    DN(B_5, 1, 0x000),
    DN(___, 0, 0x000),
    DN(___, 0, 0x000),
    DN(___, 0, 0x000),
    DN(___, 0, 0x000),
    DN(___, 0, 0x000),
    DN(___, 0, 0x000),
    DN(___, 0, 0x000),
    DN(B_5, 1, 0xC08),
    DN(___, 0, 0x000),
    DN(___, 0, 0x000),
    DN(___, 0, 0x000),
    DN(___, 0, 0x000),
    DN(___, 0, 0x000),
    DN(___, 0, 0x000),
    DN(___, 0, 0x000),
    DN(___, 0, 0x000),
    DN(___, 0, 0x000),
    DN(___, 0, 0x000),
    DN(___, 0, 0x000),
    DN(___, 0, 0x000),
    DN(___, 0, 0x000),
    DN(___, 0, 0x000),
    DN(___, 0, 0x000),
    DN(___, 0, 0x000),
    DN(___, 0, 0x000),
    DN(___, 0, 0x000),
    DN(___, 0, 0x000),
    DN(___, 0, 0x000),
    DN(___, 0, 0x000),
    DN(___, 0, 0x000),
    DN(___, 0, 0x000),
    DN(___, 0, 0x000),
    DN(___, 0, 0x000),
    DN(___, 0, 0x000),
    DN(___, 0, 0x000),
    DN(___, 0, 0x000),
    DN(___, 0, 0x000),
    DN(___, 0, 0x000),
    DN(___, 0, 0x000),
};
static const unsigned char song_pattern_7[] = {
    DN(___, 0, 0x000),
    DN(___, 0, 0x000),
    DN(___, 0, 0x000),
    DN(___, 0, 0x000),
    DN(___, 0, 0x000),
    DN(___, 0, 0x000),
    DN(___, 0, 0x000),
    DN(___, 0, 0x000),
    DN(___, 0, 0x000),
    DN(___, 0, 0x000),
    DN(E_5, 2, 0xC01),
    DN(F_5, 2, 0xC02),
    DN(Fs5, 2, 0xC05),
    DN(Gs5, 2, 0xC06),
    DN(A_5, 2, 0xC07),
    DN(B_5, 2, 0xC08),
    DN(Cs6, 1, 0x000),
    DN(___, 0, 0x000),
    DN(___, 0, 0x000),
    DN(___, 0, 0x000),
    DN(___, 0, 0x000),
    DN(___, 0, 0x000),
    DN(___, 0, 0x000),
    DN(___, 0, 0x000),
    DN(Ds6, 1, 0x000),
    DN(___, 0, 0x000),
    DN(___, 0, 0x000),
    DN(___, 0, 0x000),
    DN(___, 0, 0x000),
    DN(___, 0, 0x000),
    DN(___, 0, 0x000),
    DN(___, 0, 0x000),
    DN(Ds6, 1, 0xC08),
    DN(___, 0, 0x000),
    DN(___, 0, 0x000),
    DN(___, 0, 0x000),
    DN(___, 0, 0x000),
    DN(___, 0, 0x000),
    DN(___, 0, 0x000),
    DN(___, 0, 0x000),
    DN(___, 0, 0x000),
    DN(___, 0, 0x000),
    DN(___, 0, 0x000),
    DN(___, 0, 0x000),
    DN(___, 0, 0x000),
    DN(___, 0, 0x000),
    DN(___, 0, 0x000),
    DN(___, 0, 0x000),
    DN(___, 0, 0x000),
    DN(___, 0, 0x000),
    DN(___, 0, 0x000),
    DN(___, 0, 0x000),
    DN(___, 0, 0x000),
    DN(___, 0, 0x000),
    DN(___, 0, 0x000),
    DN(___, 0, 0x000),
    DN(___, 0, 0x000),
    DN(___, 0, 0x000),
    DN(___, 0, 0x000),
    DN(___, 0, 0x000),
    DN(___, 0, 0x000),
    DN(___, 0, 0x000),
    DN(___, 0, 0x000),
    DN(___, 0, 0x000),
};
static const unsigned char song_pattern_8[] = {
    DN(C_4, 1, 0x000),
    DN(C_4, 1, 0xC05),
    DN(___, 0, 0xE00),
    DN(___, 0, 0x000),
    DN(C_4, 1, 0x000),
    DN(C_4, 1, 0xC05),
    DN(___, 0, 0xE00),
    DN(___, 0, 0x000),
    DN(___, 0, 0x000),
    DN(___, 0, 0x000),
    DN(___, 0, 0x000),
    DN(___, 0, 0x000),
    DN(C_4, 1, 0x000),
    DN(C_4, 1, 0xC05),
    DN(___, 0, 0xE00),
    DN(___, 0, 0x000),
    DN(___, 0, 0x000),
    DN(___, 0, 0x000),
    DN(___, 0, 0x000),
    DN(___, 0, 0x000),
    DN(___, 0, 0x000),
    DN(___, 0, 0x000),
    DN(___, 0, 0x000),
    DN(___, 0, 0x000),
    DN(___, 0, 0x000),
    DN(___, 0, 0x000),
    DN(___, 0, 0x000),
    DN(___, 0, 0x000),
    DN(___, 0, 0x000),
    DN(___, 0, 0x000),
    DN(___, 0, 0x000),
    DN(___, 0, 0x000),
    DN(C_4, 1, 0x000),
    DN(C_4, 1, 0xC05),
    DN(___, 0, 0xE00),
    DN(___, 0, 0x000),
    DN(C_4, 1, 0x000),
    DN(C_4, 1, 0xC05),
    DN(___, 0, 0xE00),
    DN(___, 0, 0x000),
    DN(___, 0, 0x000),
    DN(___, 0, 0x000),
    DN(___, 0, 0x000),
    DN(___, 0, 0x000),
    DN(C_4, 1, 0x000),
    DN(C_4, 1, 0xC05),
    DN(___, 0, 0xE00),
    DN(___, 0, 0x000),
    DN(___, 0, 0x000),
    DN(___, 0, 0x000),
    DN(___, 0, 0x000),
    DN(___, 0, 0x000),
    DN(B_4, 1, 0x000),
    DN(B_4, 1, 0xC03),
    DN(B_4, 1, 0x000),
    DN(B_4, 1, 0xC09),
    DN(Fs4, 1, 0x000),
    DN(Fs4, 1, 0xC09),
    DN(Fs4, 1, 0xC09),
    DN(Fs4, 1, 0xC03),
    DN(B_3, 1, 0x000),
    DN(B_3, 1, 0xC09),
    DN(B_3, 1, 0xC09),
    DN(B_3, 1, 0xC00),
};
static const unsigned char song_pattern_9[] = {
    DN(C_6, 1, 0xE01),
    DN(___, 0, 0x000),
    DN(___, 0, 0x000),
    DN(___, 0, 0x000),
    DN(C_6, 1, 0xE01),
    DN(___, 0, 0x000),
    DN(___, 0, 0x000),
    DN(___, 0, 0x000),
    DN(C_7, 2, 0x000),
    DN(___, 0, 0x000),
    DN(___, 0, 0x000),
    DN(___, 0, 0x000),
    DN(C_6, 1, 0xE01),
    DN(___, 0, 0x000),
    DN(___, 0, 0x000),
    DN(___, 0, 0x000),
    DN(___, 0, 0x000),
    DN(___, 0, 0x000),
    DN(___, 0, 0x000),
    DN(___, 0, 0x000),
    DN(___, 0, 0x000),
    DN(___, 0, 0x000),
    DN(___, 0, 0x000),
    DN(___, 0, 0x000),
    DN(___, 0, 0x000),
    DN(___, 0, 0x000),
    DN(___, 0, 0x000),
    DN(___, 0, 0x000),
    DN(___, 0, 0x000),
    DN(___, 0, 0x000),
    DN(___, 0, 0x000),
    DN(___, 0, 0x000),
    DN(C_6, 1, 0xE01),
    DN(___, 0, 0x000),
    DN(___, 0, 0x000),
    DN(___, 0, 0x000),
    DN(C_6, 1, 0xE01),
    DN(___, 0, 0x000),
    DN(___, 0, 0x000),
    DN(___, 0, 0x000),
    DN(C_7, 2, 0x000),
    DN(___, 0, 0x000),
    DN(___, 0, 0x000),
    DN(___, 0, 0x000),
    DN(C_6, 1, 0xE01),
    DN(___, 0, 0x000),
    DN(___, 0, 0x000),
    DN(___, 0, 0x000),
    DN(___, 0, 0x000),
    DN(___, 0, 0x000),
    DN(___, 0, 0x000),
    DN(___, 0, 0x000),
    DN(C_7, 2, 0xC02),
    DN(___, 0, 0x000),
    DN(___, 0, 0x000),
    DN(___, 0, 0x000),
    DN(C_7, 2, 0xC03),
    DN(___, 0, 0x000),
    DN(___, 0, 0x000),
    DN(___, 0, 0x000),
    DN(C_7, 2, 0xC05),
    DN(___, 0, 0x000),
    DN(___, 0, 0x000),
    DN(___, 0, 0x000),
};
static const unsigned char song_pattern_10[] = {
    DN(E_5, 1, 0x000),
    DN(E_5, 1, 0xC05),
    DN(___, 0, 0xE00),
    DN(___, 0, 0x000),
    DN(E_5, 1, 0x000),
    DN(E_5, 1, 0xC05),
    DN(___, 0, 0xE00),
    DN(___, 0, 0x000),
    DN(___, 0, 0x000),
    DN(___, 0, 0x000),
    DN(___, 0, 0x000),
    DN(___, 0, 0x000),
    DN(C_4, 1, 0x000),
    DN(C_4, 1, 0xC05),
    DN(___, 0, 0xE00),
    DN(___, 0, 0x000),
    DN(___, 0, 0x000),
    DN(___, 0, 0x000),
    DN(___, 0, 0x000),
    DN(___, 0, 0x000),
    DN(___, 0, 0x000),
    DN(___, 0, 0x000),
    DN(___, 0, 0x000),
    DN(___, 0, 0x000),
    DN(___, 0, 0x000),
    DN(___, 0, 0x000),
    DN(___, 0, 0x000),
    DN(___, 0, 0x000),
    DN(B_4, 1, 0x000),
    DN(___, 0, 0x000),
    DN(B_4, 1, 0xC05),
    DN(___, 0, 0x000),
    DN(E_5, 1, 0x000),
    DN(E_5, 1, 0xC05),
    DN(___, 0, 0xE00),
    DN(___, 0, 0x000),
    DN(E_5, 1, 0x000),
    DN(E_5, 1, 0xC05),
    DN(___, 0, 0xE00),
    DN(___, 0, 0x000),
    DN(___, 0, 0x000),
    DN(___, 0, 0x000),
    DN(___, 0, 0x000),
    DN(___, 0, 0x000),
    DN(C_4, 1, 0x000),
    DN(C_4, 1, 0xC05),
    DN(___, 0, 0xE00),
    DN(___, 0, 0x000),
    DN(___, 0, 0x000),
    DN(___, 0, 0x000),
    DN(___, 0, 0x000),
    DN(___, 0, 0x000),
    DN(___, 0, 0x000),
    DN(___, 0, 0x000),
    DN(___, 0, 0x000),
    DN(___, 0, 0x000),
    DN(___, 0, 0x000),
    DN(___, 0, 0x000),
    DN(___, 0, 0x000),
    DN(___, 0, 0x000),
    DN(___, 0, 0x000),
    DN(___, 0, 0x000),
    DN(___, 0, 0x000),
    DN(___, 0, 0x000),
};
static const unsigned char song_pattern_11[] = {
    DN(C_6, 1, 0xE01),
    DN(___, 0, 0x000),
    DN(___, 0, 0x000),
    DN(___, 0, 0x000),
    DN(C_6, 1, 0xE01),
    DN(___, 0, 0x000),
    DN(___, 0, 0x000),
    DN(___, 0, 0x000),
    DN(C_7, 2, 0x000),
    DN(___, 0, 0x000),
    DN(___, 0, 0x000),
    DN(___, 0, 0x000),
    DN(C_6, 1, 0xE01),
    DN(___, 0, 0x000),
    DN(___, 0, 0x000),
    DN(___, 0, 0x000),
    DN(C_6, 1, 0xE01),
    DN(___, 0, 0x000),
    DN(___, 0, 0x000),
    DN(___, 0, 0x000),
    DN(___, 0, 0x000),
    DN(___, 0, 0x000),
    DN(___, 0, 0x000),
    DN(___, 0, 0x000),
    DN(C_7, 2, 0x000),
    DN(___, 0, 0x000),
    DN(___, 0, 0x000),
    DN(___, 0, 0x000),
    DN(___, 0, 0x000),
    DN(___, 0, 0x000),
    DN(___, 0, 0x000),
    DN(___, 0, 0x000),
    DN(C_6, 1, 0xE01),
    DN(___, 0, 0x000),
    DN(___, 0, 0x000),
    DN(___, 0, 0x000),
    DN(C_6, 1, 0xE01),
    DN(___, 0, 0x000),
    DN(___, 0, 0x000),
    DN(___, 0, 0x000),
    DN(C_7, 2, 0x000),
    DN(___, 0, 0x000),
    DN(___, 0, 0x000),
    DN(___, 0, 0x000),
    DN(C_6, 1, 0xE01),
    DN(___, 0, 0x000),
    DN(___, 0, 0x000),
    DN(___, 0, 0x000),
    DN(___, 0, 0x000),
    DN(___, 0, 0x000),
    DN(___, 0, 0x000),
    DN(___, 0, 0x000),
    DN(___, 0, 0x000),
    DN(___, 0, 0x000),
    DN(___, 0, 0x000),
    DN(___, 0, 0x000),
    DN(___, 0, 0x000),
    DN(___, 0, 0x000),
    DN(___, 0, 0x000),
    DN(___, 0, 0x000),
    DN(___, 0, 0x000),
    DN(___, 0, 0x000),
    DN(___, 0, 0x000),
    DN(___, 0, 0x000),
};
static const unsigned char song_pattern_12[] = {
    DN(E_5, 1, 0x000),
    DN(E_5, 1, 0xC05),
    DN(___, 0, 0xE00),
    DN(___, 0, 0x000),
    DN(E_5, 1, 0x000),
    DN(E_5, 1, 0xC05),
    DN(___, 0, 0xE00),
    DN(___, 0, 0x000),
    DN(___, 0, 0x000),
    DN(___, 0, 0x000),
    DN(___, 0, 0x000),
    DN(___, 0, 0x000),
    DN(C_4, 1, 0x000),
    DN(C_4, 1, 0xC05),
    DN(___, 0, 0xE00),
    DN(___, 0, 0x000),
    DN(___, 0, 0x000),
    DN(___, 0, 0x000),
    DN(___, 0, 0x000),
    DN(___, 0, 0x000),
    DN(___, 0, 0x000),
    DN(___, 0, 0x000),
    DN(___, 0, 0x000),
    DN(___, 0, 0x000),
    DN(___, 0, 0x000),
    DN(___, 0, 0x000),
    DN(___, 0, 0x000),
    DN(___, 0, 0x000),
    DN(B_4, 1, 0x000),
    DN(___, 0, 0x000),
    DN(B_4, 1, 0xC05),
    DN(___, 0, 0x000),
    DN(E_5, 1, 0x000),
    DN(E_5, 1, 0xC05),
    DN(___, 0, 0xE00),
    DN(___, 0, 0x000),
    DN(E_5, 1, 0x000),
    DN(E_5, 1, 0xC05),
    DN(___, 0, 0xE00),
    DN(___, 0, 0x000),
    DN(___, 0, 0x000),
    DN(___, 0, 0x000),
    DN(___, 0, 0x000),
    DN(___, 0, 0x000),
    DN(C_4, 1, 0x000),
    DN(C_4, 1, 0xC05),
    DN(___, 0, 0xE00),
    DN(___, 0, 0x000),
    DN(___, 0, 0x000),
    DN(___, 0, 0x000),
    DN(___, 0, 0x000),
    DN(___, 0, 0x000),
    DN(___, 0, 0x000),
    DN(___, 0, 0x000),
    DN(___, 0, 0x000),
    DN(___, 0, 0x000),
    DN(B_5, 1, 0x000),
    DN(___, 0, 0x000),
    DN(___, 0, 0x000),
    DN(___, 0, 0x000),
    DN(B_5, 1, 0xC07),
    DN(___, 0, 0x000),
    DN(B_5, 1, 0xC03),
    DN(___, 0, 0x000),
};
static const unsigned char song_pattern_13[] = {
    DN(___, 0, 0x000),
    DN(___, 0, 0x000),
    DN(___, 0, 0x000),
    DN(___, 0, 0x000),
    DN(___, 0, 0x000),
    DN(___, 0, 0x000),
    DN(___, 0, 0x000),
    DN(___, 0, 0x000),
    DN(___, 0, 0x000),
    DN(___, 0, 0x000),
    DN(E_5, 2, 0xC01),
    DN(F_5, 2, 0xC02),
    DN(Fs5, 2, 0xC05),
    DN(Gs5, 2, 0xC06),
    DN(A_5, 2, 0xC07),
    DN(B_5, 2, 0xC08),
    DN(Cs6, 1, 0x000),
    DN(___, 0, 0x000),
    DN(___, 0, 0x000),
    DN(___, 0, 0x000),
    DN(___, 0, 0x000),
    DN(___, 0, 0x000),
    DN(___, 0, 0x000),
    DN(___, 0, 0x000),
    DN(Ds6, 1, 0x000),
    DN(___, 0, 0x000),
    DN(___, 0, 0x000),
    DN(___, 0, 0x000),
    DN(___, 0, 0x000),
    DN(___, 0, 0x000),
    DN(___, 0, 0x000),
    DN(___, 0, 0x000),
    DN(___, 0, 0x000),
    DN(___, 0, 0x000),
    DN(___, 0, 0x000),
    DN(___, 0, 0x000),
    DN(___, 0, 0x000),
    DN(___, 0, 0x000),
    DN(___, 0, 0x000),
    DN(___, 0, 0x000),
    DN(___, 0, 0x000),
    DN(___, 0, 0x000),
    DN(___, 0, 0x000),
    DN(___, 0, 0x000),
    DN(B_5, 2, 0xC02),
    DN(B_5, 2, 0xC01),
    DN(B_5, 2, 0xC00),
    DN(___, 0, 0x000),
    DN(B_5, 2, 0xC03),
    DN(B_5, 2, 0xC02),
    DN(B_5, 2, 0xC01),
    DN(___, 0, 0x000),
    DN(B_5, 2, 0xC04),
    DN(B_5, 2, 0xC03),
    DN(B_5, 2, 0xC02),
    DN(B_5, 2, 0xC01),
    DN(___, 0, 0xE00),
    DN(___, 0, 0x000),
    DN(___, 0, 0x000),
    DN(___, 0, 0x000),
    DN(___, 0, 0x000),
    DN(___, 0, 0x000),
    DN(___, 0, 0x000),
    DN(___, 0, 0x000),
};
static const unsigned char* const order1[] = {song_pattern_0, song_pattern_0, song_pattern_0, song_pattern_0, song_pattern_0, song_pattern_0, song_pattern_0, song_pattern_0};
static const unsigned char* const order2[] = {song_pattern_1, song_pattern_4, song_pattern_6, song_pattern_7, song_pattern_1, song_pattern_4, song_pattern_6, song_pattern_13};
static const unsigned char* const order3[] = {song_pattern_2, song_pattern_5, song_pattern_2, song_pattern_8, song_pattern_10, song_pattern_12, song_pattern_10, song_pattern_12};
static const unsigned char* const order4[] = {song_pattern_3, song_pattern_3, song_pattern_3, song_pattern_9, song_pattern_11, song_pattern_11, song_pattern_11, song_pattern_11};
static const unsigned char duty_instruments[] = {
    0x00, 0x80, 0xB1, 0x80,
    0x00, 0x80, 0xA0, 0x80,
    0x00, 0x80, 0xF0, 0x80,
    0x00, 0xC0, 0xF0, 0x80,
    0x00, 0x00, 0xF1, 0x80,
    0x00, 0x40, 0xF1, 0x80,
    0x00, 0x80, 0xF1, 0x80,
    0x00, 0xC0, 0xF1, 0x80,
    0x00, 0x80, 0xF0, 0x80,
    0x00, 0x80, 0xF0, 0x80,
    0x00, 0x80, 0xF0, 0x80,
    0x00, 0x80, 0xF0, 0x80,
    0x00, 0x80, 0xF0, 0x80,
    0x00, 0x80, 0xF0, 0x80,
    0x00, 0x80, 0xF0, 0x80,
};
static const unsigned char wave_instruments[] = {
    0x00, 0x20, 0x00, 0x80,
    0x00, 0x20, 0x01, 0x80,
    0x00, 0x20, 0x02, 0x80,
    0x00, 0x20, 0x03, 0x80,
    0x00, 0x20, 0x04, 0x80,
    0x00, 0x20, 0x05, 0x80,
    0x00, 0x20, 0x06, 0x80,
    0x00, 0x20, 0x07, 0x80,
    0x00, 0x20, 0x08, 0x80,
    0x00, 0x20, 0x09, 0x80,
    0x00, 0x20, 0x0A, 0x80,
    0x00, 0x20, 0x0B, 0x80,
    0x00, 0x20, 0x0C, 0x80,
    0x00, 0x20, 0x0D, 0x80,
    0x00, 0x20, 0x0E, 0x80,
};
static const unsigned char noise_instruments[] = {
    0xF0, 0x00, 0, 0, 0, 0, 0, 0,
    0x62, 0x00, 251, 4, 13, 0, 0, 0,
    0xF0, 0x00, 0, 0, 0, 0, 0, 0,
    0xF0, 0x00, 0, 0, 0, 0, 0, 0,
    0xF0, 0x00, 0, 0, 0, 0, 0, 0,
    0xF0, 0x00, 0, 0, 0, 0, 0, 0,
    0xF0, 0x00, 0, 0, 0, 0, 0, 0,
    0xF0, 0x00, 0, 0, 0, 0, 0, 0,
    0xF0, 0x00, 0, 0, 0, 0, 0, 0,
    0xF0, 0x00, 0, 0, 0, 0, 0, 0,
    0xF0, 0x00, 0, 0, 0, 0, 0, 0,
    0xF0, 0x00, 0, 0, 0, 0, 0, 0,
    0xF0, 0x00, 0, 0, 0, 0, 0, 0,
    0xF0, 0x00, 0, 0, 0, 0, 0, 0,
    0xF0, 0x00, 0, 0, 0, 0, 0, 0,
};
static const unsigned char waves[] = {
    0x01, 0x23, 0x45, 0x67, 0x89, 0xAB, 0xCD, 0xEF, 0xFE, 0xDC, 0xBA, 0x98, 0x76, 0x54, 0x32, 0x10,
    0x00, 0x00, 0x00, 0x00, 0xFF, 0xFF, 0xFF, 0xFF, 0xFF, 0xFF, 0xFF, 0xFF, 0xFF, 0xFF, 0xFF, 0xFF,
    0x00, 0x00, 0x00, 0x00, 0x00, 0x00, 0x00, 0x00, 0xFF, 0xFF, 0xFF, 0xFF, 0xFF, 0xFF, 0xFF, 0xFF,
    0x00, 0x00, 0x00, 0x00, 0x00, 0x00, 0x00, 0x00, 0x00, 0x00, 0x00, 0x00, 0xFF, 0xFF, 0xFF, 0xFF,
    0x00, 0x01, 0x12, 0x23, 0x34, 0x45, 0x56, 0x67, 0x78, 0x89, 0x9A, 0xAB, 0xBC, 0xCD, 0xDE, 0xEF,
    0xFE, 0xDC, 0xBA, 0x98, 0x76, 0x54, 0x32, 0x10, 0x12, 0x34, 0x56, 0x78, 0x9A, 0xBC, 0xDE, 0xFF,
    0x7A, 0xCD, 0xDB, 0x75, 0x21, 0x13, 0x68, 0xBD, 0xDC, 0x97, 0x41, 0x01, 0x47, 0x9C, 0xDD, 0xB8,
    0x0F, 0x0F, 0x0F, 0x0F, 0x0F, 0x0F, 0x0F, 0x0F, 0x0F, 0x0F, 0x0F, 0x0F, 0x0F, 0x0F, 0x0F, 0x0F,
    0xFE, 0xFC, 0xFA, 0xF8, 0xF6, 0xF4, 0xF2, 0xF0, 0xF2, 0xF4, 0xF6, 0xF8, 0xFA, 0xFC, 0xFE, 0xFF,
    0xFE, 0xDD, 0xCC, 0xBB, 0xAA, 0x99, 0x88, 0x77, 0x8A, 0xBD, 0xF1, 0x24, 0x57, 0x8A, 0xBD, 0xEE,
    0x84, 0x11, 0x61, 0xED, 0x57, 0x47, 0x5A, 0xAD, 0xCE, 0xA3, 0x17, 0x79, 0xDD, 0x20, 0x03, 0x47,
    0xE5, 0x0A, 0x4E, 0xD3, 0x14, 0x7C, 0x4D, 0x57, 0x24, 0xDB, 0x9C, 0x8B, 0x47, 0x59, 0x11, 0x7E,
    0x37, 0x83, 0x08, 0x58, 0x87, 0x95, 0x67, 0x0B, 0x16, 0xDC, 0xE3, 0x70, 0x87, 0xB1, 0x8D, 0x7B,
    0x95, 0x6A, 0x7E, 0x48, 0x53, 0xD3, 0xCD, 0x3D, 0x94, 0x56, 0x6C, 0x84, 0x6E, 0xD5, 0x93, 0x70,
    0x96, 0x0B, 0x73, 0x07, 0xC0, 0xD8, 0xAD, 0x02, 0xD7, 0x2B, 0x2A, 0xB7, 0x1D, 0x26, 0x9D, 0x11,
    0xAC, 0x44, 0xC7, 0xA2, 0x96, 0x34, 0xE5, 0x18, 0xE3, 0x18, 0x3B, 0x53, 0x99, 0x51, 0xBE, 0x18,
};

const void __at(255) __bank_song_rulz_lightmood_0_Data;
const hUGESong_t song_rulz_lightmood_0_Data = {
    4,
    &order_cnt,
    order1, order2, order3, order4,
    duty_instruments, wave_instruments, noise_instruments,
    routines,
    waves
};
