#pragma bank 255

#include "hUGEDriver.h"
#include <stddef.h>
#include "hUGEDriverRoutines.h"

static const unsigned char order_cnt = 8;
static const unsigned char song_pattern_0[] = {
    DN(Fs5, 1, 0x000),
    DN(___, 0, 0xE05),
    DN(Fs5, 1, 0xC05),
    DN(___, 0, 0xE05),
    DN(Fs5, 1, 0xC03),
    DN(___, 0, 0xE05),
    DN(Cs5, 1, 0x000),
    DN(___, 0, 0xE02),
    DN(E_5, 1, 0x000),
    DN(___, 0, 0xE05),
    DN(E_5, 1, 0xC05),
    DN(___, 0, 0xE05),
    DN(E_5, 1, 0xC03),
    DN(___, 0, 0xE05),
    DN(Cs5, 1, 0x000),
    DN(___, 0, 0xE02),
    DN(Fs5, 1, 0x000),
    DN(___, 0, 0xE02),
    DN(Cs5, 1, 0x000),
    DN(___, 0, 0xE05),
    DN(Cs5, 1, 0xC05),
    DN(___, 0, 0xE05),
    DN(E_5, 1, 0x000),
    DN(___, 0, 0xE05),
    DN(E_5, 1, 0xC05),
    DN(___, 0, 0xE05),
    DN(E_5, 1, 0xC03),
    DN(___, 0, 0xE05),
    DN(E_5, 1, 0xC01),
    DN(___, 0, 0xE05),
    DN(___, 0, 0x000),
    DN(___, 0, 0x000),
    DN(___, 0, 0x000),
    DN(___, 0, 0x000),
    DN(___, 0, 0x000),
    DN(___, 0, 0x000),
    DN(___, 0, 0x000),
    DN(___, 0, 0x000),
    DN(___, 0, 0x000),
    DN(___, 0, 0x000),
    DN(___, 0, 0x000),
    DN(___, 0, 0x000),
    DN(___, 0, 0x000),
    DN(___, 0, 0x000),
    DN(___, 0, 0x000),
    DN(___, 0, 0x000),
    DN(___, 0, 0x000),
    DN(___, 0, 0x000),
    DN(___, 0, 0x000),
    DN(___, 0, 0x000),
    DN(___, 0, 0x000),
    DN(___, 0, 0x000),
    DN(___, 0, 0x000),
    DN(___, 0, 0x000),
    DN(___, 0, 0x000),
    DN(___, 0, 0x000),
    DN(___, 0, 0x000),
    DN(___, 0, 0x000),
    DN(___, 0, 0x000),
    DN(___, 0, 0x000),
    DN(___, 0, 0x000),
    DN(___, 0, 0x000),
    DN(___, 0, 0x000),
    DN(___, 0, 0x000),
};
static const unsigned char song_pattern_1[] = {
    DN(Fs4, 2, 0x249),
    DN(___, 0, 0x239),
    DN(___, 0, 0x239),
    DN(___, 0, 0xE01),
    DN(___, 0, 0x000),
    DN(___, 0, 0x000),
    DN(___, 0, 0x000),
    DN(___, 0, 0x000),
    DN(___, 0, 0x000),
    DN(___, 0, 0x000),
    DN(___, 0, 0x000),
    DN(___, 0, 0x000),
    DN(___, 0, 0x000),
    DN(___, 0, 0x000),
    DN(___, 0, 0x000),
    DN(Fs4, 2, 0x260),
    DN(Fs4, 2, 0x249),
    DN(___, 0, 0x239),
    DN(___, 0, 0x239),
    DN(___, 0, 0xE01),
    DN(Fs4, 2, 0x249),
    DN(___, 0, 0x239),
    DN(___, 0, 0x239),
    DN(___, 0, 0xE01),
    DN(___, 0, 0x000),
    DN(___, 0, 0x000),
    DN(___, 0, 0x000),
    DN(___, 0, 0x000),
    DN(___, 0, 0x000),
    DN(___, 0, 0x000),
    DN(___, 0, 0x000),
    DN(___, 0, 0x000),
    DN(Fs4, 2, 0x249),
    DN(___, 0, 0x239),
    DN(___, 0, 0x239),
    DN(___, 0, 0xE01),
    DN(___, 0, 0x000),
    DN(___, 0, 0x000),
    DN(___, 0, 0x000),
    DN(___, 0, 0x000),
    DN(___, 0, 0x000),
    DN(___, 0, 0x000),
    DN(___, 0, 0x000),
    DN(___, 0, 0x000),
    DN(___, 0, 0x000),
    DN(___, 0, 0x000),
    DN(___, 0, 0x000),
    DN(Fs4, 2, 0x260),
    DN(Fs4, 2, 0x249),
    DN(___, 0, 0x239),
    DN(___, 0, 0x239),
    DN(___, 0, 0xE01),
    DN(Fs4, 2, 0x249),
    DN(___, 0, 0x239),
    DN(___, 0, 0x239),
    DN(___, 0, 0xE01),
    DN(___, 0, 0x000),
    DN(___, 0, 0x000),
    DN(___, 0, 0x000),
    DN(___, 0, 0x000),
    DN(___, 0, 0x000),
    DN(___, 0, 0x000),
    DN(___, 0, 0x000),
    DN(___, 0, 0x000),
};
static const unsigned char song_pattern_2[] = {
    DN(Fs4, 1, 0x000),
    DN(___, 0, 0x000),
    DN(___, 0, 0x000),
    DN(___, 0, 0x000),
    DN(___, 0, 0x000),
    DN(___, 0, 0x000),
    DN(___, 0, 0x000),
    DN(___, 0, 0x000),
    DN(C_4, 1, 0x000),
    DN(___, 0, 0x000),
    DN(___, 0, 0x000),
    DN(___, 0, 0x000),
    DN(___, 0, 0x000),
    DN(___, 0, 0x000),
    DN(___, 0, 0x000),
    DN(___, 0, 0x000),
    DN(Cs4, 1, 0x000),
    DN(___, 0, 0x000),
    DN(___, 0, 0x000),
    DN(___, 0, 0x000),
    DN(___, 0, 0x000),
    DN(___, 0, 0x000),
    DN(C_4, 1, 0x000),
    DN(___, 0, 0x000),
    DN(___, 0, 0xE02),
    DN(___, 0, 0x000),
    DN(___, 0, 0x000),
    DN(___, 0, 0x000),
    DN(___, 0, 0x000),
    DN(___, 0, 0x000),
    DN(___, 0, 0x000),
    DN(___, 0, 0x000),
    DN(___, 0, 0x000),
    DN(___, 0, 0x000),
    DN(___, 0, 0x000),
    DN(___, 0, 0x000),
    DN(___, 0, 0x000),
    DN(___, 0, 0x000),
    DN(___, 0, 0x000),
    DN(___, 0, 0x000),
    DN(___, 0, 0x000),
    DN(___, 0, 0x000),
    DN(___, 0, 0x000),
    DN(___, 0, 0x000),
    DN(___, 0, 0x000),
    DN(___, 0, 0x000),
    DN(___, 0, 0x000),
    DN(___, 0, 0x000),
    DN(___, 0, 0x000),
    DN(___, 0, 0x000),
    DN(___, 0, 0x000),
    DN(___, 0, 0x000),
    DN(___, 0, 0x000),
    DN(___, 0, 0x000),
    DN(___, 0, 0x000),
    DN(___, 0, 0x000),
    DN(___, 0, 0x000),
    DN(___, 0, 0x000),
    DN(___, 0, 0x000),
    DN(___, 0, 0x000),
    DN(___, 0, 0x000),
    DN(___, 0, 0x000),
    DN(___, 0, 0x000),
    DN(___, 0, 0x000),
};
static const unsigned char song_pattern_3[] = {
    DN(C_6, 1, 0xE02),
    DN(___, 0, 0x000),
    DN(___, 0, 0x000),
    DN(___, 0, 0x000),
    DN(Ds7, 1, 0xE02),
    DN(___, 0, 0x000),
    DN(___, 0, 0x000),
    DN(___, 0, 0x000),
    DN(Gs6, 1, 0xE02),
    DN(___, 0, 0x000),
    DN(___, 0, 0x000),
    DN(___, 0, 0x000),
    DN(Ds7, 1, 0xE02),
    DN(___, 0, 0x000),
    DN(___, 0, 0x000),
    DN(C_6, 1, 0xE02),
    DN(C_6, 1, 0xE02),
    DN(___, 0, 0x000),
    DN(___, 0, 0x000),
    DN(___, 0, 0x000),
    DN(Ds7, 1, 0xE02),
    DN(___, 0, 0x000),
    DN(___, 0, 0x000),
    DN(___, 0, 0x000),
    DN(Gs6, 1, 0xE02),
    DN(___, 0, 0x000),
    DN(___, 0, 0x000),
    DN(___, 0, 0x000),
    DN(Ds7, 1, 0xE02),
    DN(___, 0, 0x000),
    DN(___, 0, 0x000),
    DN(C_6, 1, 0xE02),
    DN(C_6, 1, 0xE02),
    DN(___, 0, 0x000),
    DN(___, 0, 0x000),
    DN(___, 0, 0x000),
    DN(Ds7, 1, 0xE02),
    DN(___, 0, 0x000),
    DN(___, 0, 0x000),
    DN(___, 0, 0x000),
    DN(Gs6, 1, 0xE02),
    DN(___, 0, 0x000),
    DN(___, 0, 0x000),
    DN(___, 0, 0x000),
    DN(Ds7, 1, 0xE02),
    DN(___, 0, 0x000),
    DN(___, 0, 0x000),
    DN(C_6, 1, 0xE02),
    DN(C_6, 1, 0xE02),
    DN(___, 0, 0x000),
    DN(___, 0, 0x000),
    DN(___, 0, 0x000),
    DN(Ds7, 1, 0xE02),
    DN(___, 0, 0x000),
    DN(___, 0, 0x000),
    DN(___, 0, 0x000),
    DN(Gs6, 1, 0xE02),
    DN(___, 0, 0x000),
    DN(___, 0, 0x000),
    DN(___, 0, 0x000),
    DN(Ds7, 1, 0xE02),
    DN(___, 0, 0x000),
    DN(___, 0, 0x000),
    DN(C_6, 1, 0xE02),
};
static const unsigned char song_pattern_4[] = {
    DN(Fs5, 1, 0x000),
    DN(___, 0, 0xE05),
    DN(Fs5, 1, 0xC05),
    DN(___, 0, 0xE05),
    DN(Cs5, 1, 0x000),
    DN(___, 0, 0xE05),
    DN(Cs5, 1, 0xC05),
    DN(___, 0, 0xE05),
    DN(E_5, 1, 0x000),
    DN(___, 0, 0xE05),
    DN(E_5, 1, 0xC05),
    DN(___, 0, 0xE05),
    DN(Cs5, 1, 0x000),
    DN(___, 0, 0xE05),
    DN(Cs5, 1, 0xC05),
    DN(___, 0, 0xE05),
    DN(Fs5, 1, 0x000),
    DN(___, 0, 0xE02),
    DN(Gs5, 1, 0x000),
    DN(___, 0, 0x000),
    DN(A_5, 1, 0x000),
    DN(___, 0, 0xE04),
    DN(C_5, 1, 0x000),
    DN(___, 0, 0x201),
    DN(___, 0, 0x201),
    DN(___, 0, 0x201),
    DN(___, 0, 0x201),
    DN(___, 0, 0x201),
    DN(___, 0, 0x201),
    DN(___, 0, 0xE02),
    DN(___, 0, 0x000),
    DN(___, 0, 0x000),
    DN(___, 0, 0x000),
    DN(___, 0, 0x000),
    DN(___, 0, 0x000),
    DN(___, 0, 0x000),
    DN(___, 0, 0x000),
    DN(___, 0, 0x000),
    DN(___, 0, 0x000),
    DN(___, 0, 0x000),
    DN(___, 0, 0x000),
    DN(___, 0, 0x000),
    DN(___, 0, 0x000),
    DN(___, 0, 0x000),
    DN(___, 0, 0x000),
    DN(___, 0, 0x000),
    DN(___, 0, 0x000),
    DN(___, 0, 0x000),
    DN(___, 0, 0x000),
    DN(___, 0, 0x000),
    DN(___, 0, 0x000),
    DN(___, 0, 0x000),
    DN(___, 0, 0x000),
    DN(___, 0, 0x000),
    DN(___, 0, 0x000),
    DN(___, 0, 0x000),
    DN(___, 0, 0x000),
    DN(___, 0, 0x000),
    DN(___, 0, 0x000),
    DN(___, 0, 0x000),
    DN(___, 0, 0x000),
    DN(___, 0, 0x000),
    DN(___, 0, 0x000),
    DN(___, 0, 0x000),
};
static const unsigned char song_pattern_5[] = {
    DN(Fs4, 2, 0x249),
    DN(___, 0, 0x239),
    DN(___, 0, 0x239),
    DN(___, 0, 0xE01),
    DN(___, 0, 0x000),
    DN(___, 0, 0x000),
    DN(___, 0, 0x000),
    DN(___, 0, 0x000),
    DN(___, 0, 0x000),
    DN(___, 0, 0x000),
    DN(___, 0, 0x000),
    DN(___, 0, 0x000),
    DN(___, 0, 0x000),
    DN(___, 0, 0x000),
    DN(___, 0, 0x000),
    DN(Fs4, 2, 0x260),
    DN(Fs4, 2, 0x249),
    DN(___, 0, 0x239),
    DN(___, 0, 0x239),
    DN(___, 0, 0xE01),
    DN(Fs4, 2, 0x249),
    DN(___, 0, 0x239),
    DN(___, 0, 0x239),
    DN(___, 0, 0xE01),
    DN(C_5, 1, 0xC06),
    DN(___, 0, 0x201),
    DN(C_5, 1, 0xC05),
    DN(___, 0, 0x201),
    DN(C_5, 1, 0xC04),
    DN(___, 0, 0x201),
    DN(C_5, 1, 0xC03),
    DN(___, 0, 0x000),
    DN(Fs4, 2, 0x249),
    DN(___, 0, 0x239),
    DN(___, 0, 0x239),
    DN(___, 0, 0xE01),
    DN(___, 0, 0x000),
    DN(___, 0, 0x000),
    DN(___, 0, 0x000),
    DN(___, 0, 0x000),
    DN(___, 0, 0x000),
    DN(___, 0, 0x000),
    DN(___, 0, 0x000),
    DN(___, 0, 0x000),
    DN(___, 0, 0x000),
    DN(___, 0, 0x000),
    DN(___, 0, 0x000),
    DN(Fs4, 2, 0x260),
    DN(Fs4, 2, 0x249),
    DN(___, 0, 0x239),
    DN(___, 0, 0x239),
    DN(___, 0, 0xE01),
    DN(Fs4, 2, 0x249),
    DN(___, 0, 0x239),
    DN(___, 0, 0x239),
    DN(___, 0, 0xE01),
    DN(___, 0, 0x000),
    DN(___, 0, 0x000),
    DN(___, 0, 0x000),
    DN(___, 0, 0x000),
    DN(___, 0, 0x000),
    DN(___, 0, 0x000),
    DN(___, 0, 0x000),
    DN(___, 0, 0x000),
};
static const unsigned char song_pattern_6[] = {
    DN(Fs4, 1, 0x000),
    DN(___, 0, 0x000),
    DN(___, 0, 0x000),
    DN(___, 0, 0x000),
    DN(___, 0, 0x000),
    DN(___, 0, 0x000),
    DN(___, 0, 0x000),
    DN(___, 0, 0x000),
    DN(C_4, 1, 0x000),
    DN(___, 0, 0x000),
    DN(___, 0, 0x000),
    DN(___, 0, 0x000),
    DN(___, 0, 0x000),
    DN(___, 0, 0x000),
    DN(___, 0, 0x000),
    DN(___, 0, 0x000),
    DN(Cs4, 1, 0x000),
    DN(___, 0, 0x000),
    DN(___, 0, 0x000),
    DN(___, 0, 0x000),
    DN(___, 0, 0x000),
    DN(___, 0, 0x000),
    DN(E_4, 1, 0x000),
    DN(___, 0, 0x000),
    DN(___, 0, 0xE02),
    DN(___, 0, 0x000),
    DN(___, 0, 0x000),
    DN(___, 0, 0x000),
    DN(___, 0, 0x000),
    DN(___, 0, 0x000),
    DN(___, 0, 0x000),
    DN(___, 0, 0x000),
    DN(___, 0, 0x000),
    DN(___, 0, 0x000),
    DN(___, 0, 0x000),
    DN(___, 0, 0x000),
    DN(___, 0, 0x000),
    DN(___, 0, 0x000),
    DN(___, 0, 0x000),
    DN(___, 0, 0x000),
    DN(___, 0, 0x000),
    DN(___, 0, 0x000),
    DN(___, 0, 0x000),
    DN(___, 0, 0x000),
    DN(___, 0, 0x000),
    DN(___, 0, 0x000),
    DN(___, 0, 0x000),
    DN(___, 0, 0x000),
    DN(___, 0, 0x000),
    DN(___, 0, 0x000),
    DN(___, 0, 0x000),
    DN(___, 0, 0x000),
    DN(___, 0, 0x000),
    DN(___, 0, 0x000),
    DN(___, 0, 0x000),
    DN(___, 0, 0x000),
    DN(___, 0, 0x000),
    DN(___, 0, 0x000),
    DN(___, 0, 0x000),
    DN(___, 0, 0x000),
    DN(___, 0, 0x000),
    DN(___, 0, 0x000),
    DN(___, 0, 0x000),
    DN(___, 0, 0x000),
};
static const unsigned char song_pattern_7[] = {
    DN(Fs5, 1, 0x000),
    DN(___, 0, 0xE05),
    DN(Fs5, 1, 0xC05),
    DN(___, 0, 0xE05),
    DN(Cs5, 1, 0x000),
    DN(___, 0, 0xE05),
    DN(Cs5, 1, 0xC05),
    DN(___, 0, 0xE05),
    DN(E_5, 1, 0x000),
    DN(___, 0, 0xE05),
    DN(E_5, 1, 0xC05),
    DN(___, 0, 0xE05),
    DN(Cs5, 1, 0x000),
    DN(___, 0, 0xE05),
    DN(Cs5, 1, 0xC05),
    DN(___, 0, 0xE05),
    DN(Fs5, 1, 0x000),
    DN(___, 0, 0xE02),
    DN(Gs5, 1, 0x000),
    DN(___, 0, 0x000),
    DN(A_5, 1, 0x000),
    DN(___, 0, 0xE04),
    DN(B_4, 1, 0x000),
    DN(___, 0, 0x101),
    DN(___, 0, 0x101),
    DN(___, 0, 0x101),
    DN(___, 0, 0x101),
    DN(___, 0, 0x101),
    DN(___, 0, 0x101),
    DN(___, 0, 0xE02),
    DN(___, 0, 0x000),
    DN(___, 0, 0x000),
    DN(___, 0, 0x000),
    DN(___, 0, 0x000),
    DN(___, 0, 0x000),
    DN(___, 0, 0x000),
    DN(___, 0, 0x000),
    DN(___, 0, 0x000),
    DN(___, 0, 0x000),
    DN(___, 0, 0x000),
    DN(___, 0, 0x000),
    DN(___, 0, 0x000),
    DN(___, 0, 0x000),
    DN(___, 0, 0x000),
    DN(___, 0, 0x000),
    DN(___, 0, 0x000),
    DN(___, 0, 0x000),
    DN(___, 0, 0x000),
    DN(___, 0, 0x000),
    DN(___, 0, 0x000),
    DN(___, 0, 0x000),
    DN(___, 0, 0x000),
    DN(___, 0, 0x000),
    DN(___, 0, 0x000),
    DN(___, 0, 0x000),
    DN(___, 0, 0x000),
    DN(___, 0, 0x000),
    DN(___, 0, 0x000),
    DN(___, 0, 0x000),
    DN(___, 0, 0x000),
    DN(___, 0, 0x000),
    DN(___, 0, 0x000),
    DN(___, 0, 0x000),
    DN(___, 0, 0x000),
};
static const unsigned char* const order1[] = {song_pattern_0, song_pattern_4, song_pattern_0, song_pattern_7};
static const unsigned char* const order2[] = {song_pattern_1, song_pattern_5, song_pattern_1, song_pattern_5};
static const unsigned char* const order3[] = {song_pattern_2, song_pattern_6, song_pattern_2, song_pattern_6};
static const unsigned char* const order4[] = {song_pattern_3, song_pattern_3, song_pattern_3, song_pattern_3};
static const unsigned char duty_instruments[] = {
    0x00, 0x80, 0xA0, 0x80,
    0x00, 0x80, 0xC6, 0x80,
    0x00, 0x80, 0xF0, 0x80,
    0x00, 0xC0, 0xF0, 0x80,
    0x00, 0x00, 0xF1, 0x80,
    0x00, 0x40, 0xF1, 0x80,
    0x00, 0x80, 0xF1, 0x80,
    0x00, 0xC0, 0xF1, 0x80,
    0x00, 0x80, 0xF0, 0x80,
    0x00, 0x80, 0xF0, 0x80,
    0x00, 0x80, 0xF0, 0x80,
    0x00, 0x80, 0xF0, 0x80,
    0x00, 0x80, 0xF0, 0x80,
    0x00, 0x80, 0xF0, 0x80,
    0x00, 0x80, 0xF0, 0x80,
};
static const unsigned char wave_instruments[] = {
    0x00, 0x20, 0x00, 0x80,
    0x00, 0x20, 0x01, 0x80,
    0x00, 0x20, 0x02, 0x80,
    0x00, 0x20, 0x03, 0x80,
    0x00, 0x20, 0x04, 0x80,
    0x00, 0x20, 0x05, 0x80,
    0x00, 0x20, 0x06, 0x80,
    0x00, 0x20, 0x07, 0x80,
    0x00, 0x20, 0x08, 0x80,
    0x00, 0x20, 0x09, 0x80,
    0x00, 0x20, 0x0A, 0x80,
    0x00, 0x20, 0x0B, 0x80,
    0x00, 0x20, 0x0C, 0x80,
    0x00, 0x20, 0x0D, 0x80,
    0x00, 0x20, 0x0E, 0x80,
};
static const unsigned char noise_instruments[] = {
    0xB0, 0x00, 0, 0, 0, 0, 0, 0,
    0xF0, 0x00, 0, 0, 0, 0, 0, 0,
    0xF0, 0x00, 0, 0, 0, 0, 0, 0,
    0xF0, 0x00, 0, 0, 0, 0, 0, 0,
    0xF0, 0x00, 0, 0, 0, 0, 0, 0,
    0xF0, 0x00, 0, 0, 0, 0, 0, 0,
    0xF0, 0x00, 0, 0, 0, 0, 0, 0,
    0xF0, 0x00, 0, 0, 0, 0, 0, 0,
    0xF0, 0x00, 0, 0, 0, 0, 0, 0,
    0xF0, 0x00, 0, 0, 0, 0, 0, 0,
    0xF0, 0x00, 0, 0, 0, 0, 0, 0,
    0xF0, 0x00, 0, 0, 0, 0, 0, 0,
    0xF0, 0x00, 0, 0, 0, 0, 0, 0,
    0xF0, 0x00, 0, 0, 0, 0, 0, 0,
    0xF0, 0x00, 0, 0, 0, 0, 0, 0,
};
static const unsigned char waves[] = {
    0x01, 0x23, 0x45, 0x67, 0x89, 0xAB, 0xCD, 0xEF, 0xFE, 0xDC, 0xBA, 0x98, 0x76, 0x54, 0x32, 0x10,
    0x00, 0x00, 0x00, 0x00, 0xFF, 0xFF, 0xFF, 0xFF, 0xFF, 0xFF, 0xFF, 0xFF, 0xFF, 0xFF, 0xFF, 0xFF,
    0x00, 0x00, 0x00, 0x00, 0x00, 0x00, 0x00, 0x00, 0xFF, 0xFF, 0xFF, 0xFF, 0xFF, 0xFF, 0xFF, 0xFF,
    0x00, 0x00, 0x00, 0x00, 0x00, 0x00, 0x00, 0x00, 0x00, 0x00, 0x00, 0x00, 0xFF, 0xFF, 0xFF, 0xFF,
    0x00, 0x01, 0x12, 0x23, 0x34, 0x45, 0x56, 0x67, 0x78, 0x89, 0x9A, 0xAB, 0xBC, 0xCD, 0xDE, 0xEF,
    0xFE, 0xDC, 0xBA, 0x98, 0x76, 0x54, 0x32, 0x10, 0x12, 0x34, 0x56, 0x78, 0x9A, 0xBC, 0xDE, 0xFF,
    0x7A, 0xCD, 0xDB, 0x75, 0x21, 0x13, 0x68, 0xBD, 0xDC, 0x97, 0x41, 0x01, 0x47, 0x9C, 0xDD, 0xB8,
    0x0F, 0x0F, 0x0F, 0x0F, 0x0F, 0x0F, 0x0F, 0x0F, 0x0F, 0x0F, 0x0F, 0x0F, 0x0F, 0x0F, 0x0F, 0x0F,
    0xFE, 0xFC, 0xFA, 0xF8, 0xF6, 0xF4, 0xF2, 0xF0, 0xF2, 0xF4, 0xF6, 0xF8, 0xFA, 0xFC, 0xFE, 0xFF,
    0xFE, 0xDD, 0xCC, 0xBB, 0xAA, 0x99, 0x88, 0x77, 0x8A, 0xBD, 0xF1, 0x24, 0x57, 0x8A, 0xBD, 0xEE,
    0x84, 0x11, 0x61, 0xED, 0x57, 0x47, 0x5A, 0xAD, 0xCE, 0xA3, 0x17, 0x79, 0xDD, 0x20, 0x03, 0x47,
    0x17, 0x28, 0x7E, 0x4A, 0xE3, 0xDC, 0x33, 0xB9, 0x45, 0x97, 0xA6, 0x76, 0x30, 0x47, 0x8D, 0x63,
    0xE7, 0x8D, 0xBB, 0x55, 0x30, 0x7C, 0xDD, 0xA9, 0x58, 0x6D, 0x35, 0xAB, 0x31, 0x3E, 0x50, 0x38,
    0x88, 0x1B, 0x4E, 0x1E, 0x5A, 0x59, 0x2C, 0xA4, 0xA2, 0x6A, 0x80, 0x79, 0x4A, 0x29, 0x78, 0x41,
    0xEC, 0x19, 0x4E, 0x22, 0x62, 0x3B, 0x8A, 0x63, 0xB8, 0x64, 0x2B, 0x5A, 0x72, 0x25, 0x01, 0xB2,
    0xAA, 0xB9, 0x20, 0x27, 0xB8, 0x97, 0x63, 0x86, 0xB5, 0xB2, 0x58, 0xB1, 0x88, 0xEC, 0x5E, 0x04,
};

const void __at(255) __bank_song_rulz_pause_underground_0_Data;
const hUGESong_t song_rulz_pause_underground_0_Data = {
    8,
    &order_cnt,
    order1, order2, order3, order4,
    duty_instruments, wave_instruments, noise_instruments,
    routines,
    waves
};
