#pragma bank 255

#include "hUGEDriver.h"
#include <stddef.h>
#include "hUGEDriverRoutines.h"

static const unsigned char order_cnt = 6;
static const unsigned char song_pattern_0[] = {
    DN(G_4, 2, 0x000),
    DN(___, 0, 0xA06),
    DN(C_5, 2, 0x000),
    DN(E_5, 2, 0x000),
    DN(___, 0, 0xA06),
    DN(G_5, 2, 0x000),
    DN(___, 0, 0xA06),
    DN(Fs5, 2, 0x000),
    DN(___, 0, 0xA06),
    DN(___, 0, 0x000),
    DN(D_5, 2, 0x000),
    DN(___, 0, 0xA06),
    DN(A_4, 2, 0x000),
    DN(___, 0, 0xA06),
    DN(Gs4, 2, 0x000),
    DN(___, 0, 0xA06),
    DN(F_4, 2, 0x000),
    DN(___, 0, 0xA06),
    DN(A_4, 2, 0x000),
    DN(D_5, 2, 0x000),
    DN(___, 0, 0xA06),
    DN(F_5, 2, 0x000),
    DN(___, 0, 0xA06),
    DN(E_5, 2, 0x000),
    DN(___, 0, 0xA06),
    DN(___, 0, 0x000),
    DN(C_5, 2, 0x000),
    DN(___, 0, 0xA06),
    DN(F_4, 2, 0x000),
    DN(___, 0, 0xA06),
    DN(Fs4, 2, 0x000),
    DN(___, 0, 0x000),
    DN(G_4, 2, 0x000),
    DN(___, 0, 0x000),
    DN(C_5, 2, 0x000),
    DN(E_5, 2, 0x000),
    DN(___, 0, 0x000),
    DN(G_5, 2, 0x000),
    DN(___, 0, 0x000),
    DN(Fs5, 2, 0x000),
    DN(___, 0, 0x000),
    DN(___, 0, 0x000),
    DN(D_5, 2, 0x000),
    DN(___, 0, 0x000),
    DN(A_4, 2, 0x000),
    DN(___, 0, 0x000),
    DN(Gs4, 2, 0x000),
    DN(___, 0, 0x000),
    DN(F_4, 2, 0x000),
    DN(___, 0, 0x000),
    DN(A_4, 2, 0x000),
    DN(D_5, 2, 0x000),
    DN(___, 0, 0x000),
    DN(F_5, 2, 0x000),
    DN(___, 0, 0x000),
    DN(E_5, 2, 0x000),
    DN(___, 0, 0x000),
    DN(___, 0, 0x000),
    DN(C_5, 2, 0x000),
    DN(___, 0, 0x000),
    DN(F_4, 2, 0x000),
    DN(___, 0, 0x000),
    DN(Fs4, 2, 0x000),
    DN(___, 0, 0x000),
};
static const unsigned char song_pattern_1[] = {
    DN(G_4, 1, 0xC05),
    DN(___, 0, 0x000),
    DN(___, 0, 0x000),
    DN(___, 0, 0x000),
    DN(___, 0, 0x000),
    DN(___, 0, 0x000),
    DN(___, 0, 0x000),
    DN(Fs4, 1, 0xC05),
    DN(___, 0, 0x000),
    DN(___, 0, 0x000),
    DN(___, 0, 0x000),
    DN(___, 0, 0x000),
    DN(___, 0, 0x000),
    DN(___, 0, 0x000),
    DN(___, 0, 0x000),
    DN(___, 0, 0x000),
    DN(F_4, 1, 0xC05),
    DN(___, 0, 0x000),
    DN(___, 0, 0x000),
    DN(___, 0, 0x000),
    DN(___, 0, 0x000),
    DN(___, 0, 0x000),
    DN(___, 0, 0x000),
    DN(E_4, 1, 0xC05),
    DN(___, 0, 0x000),
    DN(___, 0, 0x000),
    DN(___, 0, 0x000),
    DN(___, 0, 0x000),
    DN(___, 0, 0x000),
    DN(___, 0, 0x000),
    DN(___, 0, 0x000),
    DN(___, 0, 0x000),
    DN(G_4, 1, 0xC05),
    DN(___, 0, 0x000),
    DN(___, 0, 0x000),
    DN(___, 0, 0x000),
    DN(___, 0, 0x000),
    DN(___, 0, 0x000),
    DN(___, 0, 0x000),
    DN(Fs4, 1, 0xC05),
    DN(___, 0, 0x000),
    DN(___, 0, 0x000),
    DN(___, 0, 0x000),
    DN(___, 0, 0x000),
    DN(___, 0, 0x000),
    DN(___, 0, 0x000),
    DN(___, 0, 0x000),
    DN(___, 0, 0x000),
    DN(F_4, 1, 0xC05),
    DN(___, 0, 0x000),
    DN(___, 0, 0x000),
    DN(___, 0, 0x000),
    DN(___, 0, 0x000),
    DN(___, 0, 0x000),
    DN(___, 0, 0x000),
    DN(E_4, 1, 0xC05),
    DN(___, 0, 0x000),
    DN(___, 0, 0x000),
    DN(___, 0, 0x000),
    DN(___, 0, 0x000),
    DN(___, 0, 0x000),
    DN(___, 0, 0x000),
    DN(___, 0, 0x000),
    DN(___, 0, 0x000),
};
static const unsigned char song_pattern_2[] = {
    DN(C_5, 1, 0x240),
    DN(___, 0, 0x240),
    DN(___, 0, 0x240),
    DN(___, 0, 0x240),
    DN(C_5, 1, 0x240),
    DN(___, 0, 0x240),
    DN(___, 0, 0x240),
    DN(___, 0, 0x240),
    DN(C_5, 1, 0x240),
    DN(___, 0, 0x240),
    DN(___, 0, 0x240),
    DN(___, 0, 0x240),
    DN(C_5, 1, 0x240),
    DN(___, 0, 0x240),
    DN(___, 0, 0x240),
    DN(___, 0, 0x240),
    DN(C_5, 1, 0x240),
    DN(___, 0, 0x240),
    DN(___, 0, 0x240),
    DN(___, 0, 0x240),
    DN(C_5, 1, 0x240),
    DN(___, 0, 0x240),
    DN(___, 0, 0x240),
    DN(___, 0, 0x240),
    DN(C_5, 1, 0x240),
    DN(___, 0, 0x240),
    DN(___, 0, 0x240),
    DN(___, 0, 0x240),
    DN(C_5, 1, 0x240),
    DN(___, 0, 0x240),
    DN(___, 0, 0x240),
    DN(___, 0, 0x240),
    DN(C_5, 1, 0x240),
    DN(___, 0, 0x240),
    DN(___, 0, 0x240),
    DN(___, 0, 0x240),
    DN(C_5, 1, 0x240),
    DN(___, 0, 0x240),
    DN(___, 0, 0x240),
    DN(___, 0, 0x240),
    DN(C_5, 1, 0x240),
    DN(___, 0, 0x240),
    DN(___, 0, 0x240),
    DN(___, 0, 0x240),
    DN(C_5, 1, 0x240),
    DN(___, 0, 0x240),
    DN(___, 0, 0x240),
    DN(___, 0, 0x240),
    DN(C_5, 1, 0x240),
    DN(___, 0, 0x240),
    DN(___, 0, 0x240),
    DN(___, 0, 0x240),
    DN(C_5, 1, 0x240),
    DN(___, 0, 0x240),
    DN(___, 0, 0x240),
    DN(___, 0, 0x240),
    DN(C_5, 1, 0x240),
    DN(___, 0, 0x240),
    DN(___, 0, 0x240),
    DN(___, 0, 0x240),
    DN(___, 0, 0xC00),
    DN(___, 0, 0x000),
    DN(___, 0, 0x000),
    DN(___, 0, 0x000),
};
static const unsigned char song_pattern_3[] = {
    DN(___, 0, 0x000),
    DN(___, 0, 0x000),
    DN(___, 0, 0x000),
    DN(___, 0, 0x000),
    DN(___, 0, 0x000),
    DN(___, 0, 0x000),
    DN(___, 0, 0x000),
    DN(___, 0, 0x000),
    DN(___, 0, 0x000),
    DN(___, 0, 0x000),
    DN(___, 0, 0x000),
    DN(___, 0, 0x000),
    DN(___, 0, 0x000),
    DN(___, 0, 0x000),
    DN(___, 0, 0x000),
    DN(___, 0, 0x000),
    DN(___, 0, 0x000),
    DN(___, 0, 0x000),
    DN(___, 0, 0x000),
    DN(___, 0, 0x000),
    DN(___, 0, 0x000),
    DN(___, 0, 0x000),
    DN(___, 0, 0x000),
    DN(___, 0, 0x000),
    DN(___, 0, 0x000),
    DN(___, 0, 0x000),
    DN(Gs5, 1, 0xC01),
    DN(___, 0, 0x000),
    DN(A_5, 1, 0xC01),
    DN(___, 0, 0x000),
    DN(As5, 1, 0xC02),
    DN(___, 0, 0x000),
    DN(B_5, 1, 0xC02),
    DN(___, 0, 0x000),
    DN(C_6, 1, 0xC02),
    DN(___, 0, 0x000),
    DN(Cs6, 1, 0xC03),
    DN(___, 0, 0x000),
    DN(D_6, 1, 0xC03),
    DN(___, 0, 0x000),
    DN(Ds6, 1, 0xC04),
    DN(___, 0, 0x000),
    DN(E_6, 1, 0xC04),
    DN(___, 0, 0x000),
    DN(F_6, 1, 0xC04),
    DN(___, 0, 0x000),
    DN(Fs6, 1, 0xC05),
    DN(___, 0, 0x000),
    DN(G_6, 1, 0xC05),
    DN(___, 0, 0x000),
    DN(Gs6, 1, 0xC06),
    DN(___, 0, 0x000),
    DN(A_6, 1, 0xC06),
    DN(___, 0, 0x000),
    DN(As6, 1, 0xC06),
    DN(___, 0, 0x000),
    DN(B_6, 1, 0xC07),
    DN(___, 0, 0x000),
    DN(C_7, 1, 0xC07),
    DN(___, 0, 0x000),
    DN(Cs7, 1, 0xC08),
    DN(___, 0, 0x000),
    DN(D_7, 1, 0xC08),
    DN(___, 0, 0x000),
};
static const unsigned char song_pattern_4[] = {
    DN(G_4, 2, 0x000),
    DN(___, 0, 0xA06),
    DN(C_5, 2, 0x000),
    DN(E_5, 2, 0x000),
    DN(___, 0, 0xA06),
    DN(G_5, 2, 0x000),
    DN(___, 0, 0xA06),
    DN(Fs5, 2, 0x000),
    DN(___, 0, 0xA06),
    DN(___, 0, 0x000),
    DN(D_5, 2, 0x000),
    DN(___, 0, 0xA06),
    DN(A_4, 2, 0x000),
    DN(___, 0, 0xA06),
    DN(Gs4, 2, 0x000),
    DN(___, 0, 0xA06),
    DN(F_4, 2, 0x000),
    DN(___, 0, 0xA06),
    DN(A_4, 2, 0x000),
    DN(D_5, 2, 0x000),
    DN(___, 0, 0xA06),
    DN(F_5, 2, 0x000),
    DN(___, 0, 0xA06),
    DN(E_5, 2, 0x000),
    DN(___, 0, 0xA06),
    DN(___, 0, 0x000),
    DN(C_5, 2, 0x000),
    DN(___, 0, 0xA06),
    DN(F_4, 2, 0x000),
    DN(___, 0, 0xA06),
    DN(Fs4, 2, 0x000),
    DN(___, 0, 0xA06),
    DN(G_4, 2, 0x000),
    DN(___, 0, 0xA06),
    DN(C_5, 2, 0x000),
    DN(E_5, 2, 0x000),
    DN(___, 0, 0xA06),
    DN(G_5, 2, 0x000),
    DN(___, 0, 0xA06),
    DN(Fs5, 2, 0x000),
    DN(___, 0, 0xA06),
    DN(___, 0, 0x000),
    DN(D_5, 2, 0x000),
    DN(___, 0, 0xA06),
    DN(A_4, 2, 0x000),
    DN(___, 0, 0xA06),
    DN(Gs4, 2, 0x000),
    DN(___, 0, 0xA06),
    DN(F_4, 2, 0x000),
    DN(___, 0, 0xA06),
    DN(A_4, 2, 0x000),
    DN(D_5, 2, 0x000),
    DN(___, 0, 0xA06),
    DN(F_5, 2, 0x000),
    DN(___, 0, 0xA06),
    DN(E_5, 2, 0x000),
    DN(___, 0, 0xA06),
    DN(___, 0, 0x000),
    DN(C_5, 2, 0x000),
    DN(___, 0, 0xA06),
    DN(F_4, 2, 0x000),
    DN(___, 0, 0xA06),
    DN(Fs4, 2, 0x000),
    DN(___, 0, 0xA06),
};
static const unsigned char song_pattern_5[] = {
    DN(C_6, 1, 0xE02),
    DN(___, 0, 0x000),
    DN(C_6, 1, 0xE02),
    DN(___, 0, 0x000),
    DN(C_6, 1, 0xE02),
    DN(C_6, 1, 0xE02),
    DN(___, 0, 0x000),
    DN(C_6, 1, 0x000),
    DN(___, 0, 0xE02),
    DN(___, 0, 0x000),
    DN(C_6, 1, 0xE02),
    DN(___, 0, 0x000),
    DN(C_6, 1, 0xE02),
    DN(C_6, 1, 0xE02),
    DN(C_6, 1, 0x000),
    DN(___, 0, 0xE02),
    DN(C_6, 1, 0xE02),
    DN(___, 0, 0x000),
    DN(C_6, 1, 0xE02),
    DN(___, 0, 0x000),
    DN(C_6, 1, 0xE02),
    DN(C_6, 1, 0xE02),
    DN(___, 0, 0x000),
    DN(C_6, 1, 0x000),
    DN(___, 0, 0xE02),
    DN(___, 0, 0x000),
    DN(C_6, 1, 0xE02),
    DN(___, 0, 0x000),
    DN(C_6, 1, 0xE04),
    DN(___, 0, 0x000),
    DN(C_6, 1, 0xE04),
    DN(___, 0, 0x000),
    DN(C_6, 1, 0xE02),
    DN(___, 0, 0x000),
    DN(C_6, 1, 0xE02),
    DN(___, 0, 0x000),
    DN(C_6, 1, 0xE02),
    DN(C_6, 1, 0xE02),
    DN(___, 0, 0x000),
    DN(C_6, 1, 0x000),
    DN(___, 0, 0xE02),
    DN(___, 0, 0x000),
    DN(C_6, 1, 0xE02),
    DN(___, 0, 0x000),
    DN(C_6, 1, 0xE02),
    DN(C_6, 1, 0xE02),
    DN(C_6, 1, 0x000),
    DN(___, 0, 0xE02),
    DN(C_6, 1, 0xE02),
    DN(___, 0, 0x000),
    DN(C_6, 1, 0xE02),
    DN(___, 0, 0x000),
    DN(C_6, 1, 0xE02),
    DN(C_6, 1, 0xE02),
    DN(___, 0, 0x000),
    DN(C_6, 1, 0x000),
    DN(___, 0, 0xE02),
    DN(___, 0, 0x000),
    DN(C_6, 1, 0xE02),
    DN(___, 0, 0x000),
    DN(C_6, 1, 0xE04),
    DN(___, 0, 0x000),
    DN(C_6, 1, 0xE04),
    DN(___, 0, 0x000),
};
static const unsigned char song_pattern_6[] = {
    DN(F_7, 1, 0xE02),
    DN(E_7, 1, 0xE01),
    DN(Ds7, 1, 0xE01),
    DN(D_7, 1, 0xE01),
    DN(F_7, 1, 0xE02),
    DN(E_7, 1, 0xE01),
    DN(Ds7, 1, 0xE01),
    DN(C_7, 1, 0xE01),
    DN(F_7, 1, 0xE02),
    DN(E_7, 1, 0xE01),
    DN(Ds7, 1, 0xE01),
    DN(D_7, 1, 0xE01),
    DN(F_7, 1, 0xE02),
    DN(E_7, 1, 0xE01),
    DN(Ds7, 1, 0xE01),
    DN(C_7, 1, 0xE01),
    DN(F_7, 1, 0xE02),
    DN(E_7, 1, 0xE01),
    DN(Ds7, 1, 0xE01),
    DN(D_7, 1, 0xE01),
    DN(F_7, 1, 0xE02),
    DN(E_7, 1, 0xE01),
    DN(Ds7, 1, 0xE01),
    DN(C_7, 1, 0xE01),
    DN(F_7, 1, 0xE02),
    DN(E_7, 1, 0xE01),
    DN(Ds7, 1, 0xE01),
    DN(D_7, 1, 0xE01),
    DN(F_7, 1, 0xE02),
    DN(E_7, 1, 0xE01),
    DN(Ds7, 1, 0xE01),
    DN(C_7, 1, 0xE01),
    DN(F_7, 1, 0xE02),
    DN(E_7, 1, 0xE01),
    DN(Ds7, 1, 0xE01),
    DN(D_7, 1, 0xE01),
    DN(F_7, 1, 0xE02),
    DN(E_7, 1, 0xE01),
    DN(Ds7, 1, 0xE01),
    DN(C_7, 1, 0xE01),
    DN(F_7, 1, 0xE02),
    DN(E_7, 1, 0xE01),
    DN(Ds7, 1, 0xE01),
    DN(D_7, 1, 0xE01),
    DN(F_7, 1, 0xE02),
    DN(E_7, 1, 0xE01),
    DN(Ds7, 1, 0xE01),
    DN(C_7, 1, 0xE01),
    DN(F_7, 1, 0xE02),
    DN(E_7, 1, 0xE01),
    DN(Ds7, 1, 0xE01),
    DN(D_7, 1, 0xE01),
    DN(F_7, 1, 0xE02),
    DN(E_7, 1, 0xE01),
    DN(Ds7, 1, 0xE01),
    DN(C_7, 1, 0xE01),
    DN(F_7, 1, 0xE02),
    DN(E_7, 2, 0xE01),
    DN(Ds7, 2, 0xE01),
    DN(D_7, 2, 0xE01),
    DN(F_7, 1, 0xE02),
    DN(E_7, 1, 0xE01),
    DN(Ds7, 1, 0xE01),
    DN(C_7, 1, 0xE01),
};
static const unsigned char song_pattern_7[] = {
    DN(G_4, 2, 0x000),
    DN(___, 0, 0xA06),
    DN(C_5, 2, 0x000),
    DN(E_5, 2, 0x000),
    DN(___, 0, 0xA06),
    DN(G_5, 2, 0x000),
    DN(___, 0, 0xA06),
    DN(Fs5, 2, 0x000),
    DN(___, 0, 0xA06),
    DN(___, 0, 0x000),
    DN(D_5, 2, 0x000),
    DN(___, 0, 0xA06),
    DN(A_4, 2, 0x000),
    DN(___, 0, 0xA06),
    DN(Gs4, 2, 0x000),
    DN(___, 0, 0xA06),
    DN(F_4, 2, 0x000),
    DN(___, 0, 0xA06),
    DN(A_4, 2, 0x000),
    DN(D_5, 2, 0x000),
    DN(___, 0, 0xA06),
    DN(F_5, 2, 0x000),
    DN(___, 0, 0xA06),
    DN(E_5, 2, 0x000),
    DN(___, 0, 0xA06),
    DN(___, 0, 0x000),
    DN(C_5, 2, 0x000),
    DN(___, 0, 0xA06),
    DN(F_4, 2, 0x000),
    DN(___, 0, 0xA06),
    DN(Fs4, 2, 0x000),
    DN(___, 0, 0xA06),
    DN(G_4, 2, 0x000),
    DN(___, 0, 0xA06),
    DN(G_4, 2, 0xC00),
    DN(___, 0, 0x000),
    DN(___, 0, 0x000),
    DN(___, 0, 0x000),
    DN(___, 0, 0x000),
    DN(___, 0, 0x000),
    DN(___, 0, 0x000),
    DN(___, 0, 0x000),
    DN(___, 0, 0x000),
    DN(___, 0, 0x000),
    DN(___, 0, 0x000),
    DN(___, 0, 0x000),
    DN(___, 0, 0x000),
    DN(___, 0, 0x000),
    DN(F_4, 2, 0x000),
    DN(___, 0, 0xA06),
    DN(A_4, 2, 0x000),
    DN(D_5, 2, 0x000),
    DN(___, 0, 0xA06),
    DN(F_5, 2, 0x000),
    DN(___, 0, 0xA06),
    DN(E_5, 2, 0x000),
    DN(___, 0, 0xA06),
    DN(___, 0, 0x000),
    DN(C_5, 2, 0x000),
    DN(___, 0, 0xA06),
    DN(F_4, 2, 0x000),
    DN(___, 0, 0xA06),
    DN(Fs4, 2, 0x000),
    DN(___, 0, 0xA06),
};
static const unsigned char song_pattern_8[] = {
    DN(C_5, 1, 0x240),
    DN(___, 0, 0x240),
    DN(___, 0, 0x240),
    DN(___, 0, 0x240),
    DN(C_5, 1, 0x240),
    DN(___, 0, 0x240),
    DN(C_5, 1, 0x240),
    DN(___, 0, 0x240),
    DN(C_5, 1, 0x240),
    DN(___, 0, 0x240),
    DN(___, 0, 0x240),
    DN(___, 0, 0x240),
    DN(C_5, 1, 0x240),
    DN(___, 0, 0x240),
    DN(C_5, 1, 0x240),
    DN(___, 0, 0x240),
    DN(___, 0, 0x000),
    DN(___, 0, 0x000),
    DN(G_5, 1, 0x240),
    DN(___, 0, 0x240),
    DN(G_5, 1, 0x240),
    DN(___, 0, 0x240),
    DN(E_5, 1, 0x240),
    DN(___, 0, 0x240),
    DN(E_5, 1, 0x240),
    DN(___, 0, 0x240),
    DN(C_5, 1, 0x240),
    DN(___, 0, 0x240),
    DN(C_5, 1, 0x240),
    DN(___, 0, 0x240),
    DN(___, 0, 0xC00),
    DN(___, 0, 0x000),
    DN(___, 0, 0x000),
    DN(___, 0, 0x000),
    DN(___, 0, 0x000),
    DN(___, 0, 0x000),
    DN(___, 0, 0x000),
    DN(___, 0, 0x000),
    DN(___, 0, 0x000),
    DN(___, 0, 0x000),
    DN(___, 0, 0x000),
    DN(___, 0, 0x000),
    DN(___, 0, 0x000),
    DN(___, 0, 0x000),
    DN(___, 0, 0x000),
    DN(___, 0, 0x000),
    DN(___, 0, 0x000),
    DN(___, 0, 0x000),
    DN(___, 0, 0x000),
    DN(___, 0, 0x000),
    DN(___, 0, 0x000),
    DN(___, 0, 0x000),
    DN(___, 0, 0x000),
    DN(___, 0, 0x000),
    DN(___, 0, 0x000),
    DN(___, 0, 0x000),
    DN(___, 0, 0x000),
    DN(___, 0, 0x000),
    DN(___, 0, 0x000),
    DN(___, 0, 0x000),
    DN(___, 0, 0x000),
    DN(___, 0, 0x000),
    DN(___, 0, 0x000),
    DN(___, 0, 0x000),
};
static const unsigned char song_pattern_9[] = {
    DN(B_5, 1, 0xC07),
    DN(B_5, 1, 0xC06),
    DN(B_5, 1, 0xC05),
    DN(B_5, 1, 0xC04),
    DN(B_5, 1, 0xC03),
    DN(B_5, 1, 0xC02),
    DN(B_5, 1, 0xC01),
    DN(B_5, 1, 0xC00),
    DN(D_7, 1, 0xC07),
    DN(D_7, 1, 0xC06),
    DN(D_7, 1, 0xC05),
    DN(D_7, 1, 0xC04),
    DN(D_7, 1, 0xC03),
    DN(D_7, 1, 0xC02),
    DN(D_7, 1, 0xC01),
    DN(D_7, 1, 0xC00),
    DN(___, 0, 0x000),
    DN(___, 0, 0x000),
    DN(___, 0, 0x000),
    DN(___, 0, 0x000),
    DN(___, 0, 0x000),
    DN(___, 0, 0x000),
    DN(___, 0, 0x000),
    DN(___, 0, 0x000),
    DN(___, 0, 0x000),
    DN(___, 0, 0x000),
    DN(___, 0, 0x000),
    DN(___, 0, 0x000),
    DN(___, 0, 0x000),
    DN(___, 0, 0x000),
    DN(___, 0, 0x000),
    DN(___, 0, 0x000),
    DN(___, 0, 0x000),
    DN(___, 0, 0x000),
    DN(___, 0, 0x000),
    DN(___, 0, 0x000),
    DN(___, 0, 0x000),
    DN(___, 0, 0x000),
    DN(___, 0, 0x000),
    DN(___, 0, 0x000),
    DN(___, 0, 0x000),
    DN(___, 0, 0x000),
    DN(___, 0, 0x000),
    DN(___, 0, 0x000),
    DN(___, 0, 0x000),
    DN(___, 0, 0x000),
    DN(___, 0, 0x000),
    DN(___, 0, 0x000),
    DN(___, 0, 0x000),
    DN(___, 0, 0x000),
    DN(___, 0, 0x000),
    DN(___, 0, 0x000),
    DN(___, 0, 0x000),
    DN(___, 0, 0x000),
    DN(___, 0, 0x000),
    DN(___, 0, 0x000),
    DN(___, 0, 0x000),
    DN(___, 0, 0x000),
    DN(___, 0, 0x000),
    DN(___, 0, 0x000),
    DN(___, 0, 0x000),
    DN(___, 0, 0x000),
    DN(___, 0, 0x000),
    DN(___, 0, 0x000),
};
static const unsigned char* const order1[] = {song_pattern_0, song_pattern_4, song_pattern_7};
static const unsigned char* const order2[] = {song_pattern_1, song_pattern_5, song_pattern_5};
static const unsigned char* const order3[] = {song_pattern_2, song_pattern_2, song_pattern_8};
static const unsigned char* const order4[] = {song_pattern_3, song_pattern_6, song_pattern_9};
static const unsigned char duty_instruments[] = {
    0x00, 0x40, 0xB0, 0x80,
    0x00, 0x00, 0xA0, 0x80,
    0x00, 0x80, 0xF0, 0x80,
    0x00, 0xC0, 0xF0, 0x80,
    0x00, 0x00, 0xF1, 0x80,
    0x00, 0x40, 0xF1, 0x80,
    0x00, 0x80, 0xF1, 0x80,
    0x00, 0xC0, 0xF1, 0x80,
    0x00, 0x80, 0xF0, 0x80,
    0x00, 0x80, 0xF0, 0x80,
    0x00, 0x80, 0xF0, 0x80,
    0x00, 0x80, 0xF0, 0x80,
    0x00, 0x80, 0xF0, 0x80,
    0x00, 0x80, 0xF0, 0x80,
    0x00, 0x80, 0xF0, 0x80,
};
static const unsigned char wave_instruments[] = {
    0x00, 0x20, 0x00, 0x80,
    0x00, 0x20, 0x01, 0x80,
    0x00, 0x20, 0x02, 0x80,
    0x00, 0x20, 0x03, 0x80,
    0x00, 0x20, 0x04, 0x80,
    0x00, 0x20, 0x05, 0x80,
    0x00, 0x20, 0x06, 0x80,
    0x00, 0x20, 0x07, 0x80,
    0x00, 0x20, 0x08, 0x80,
    0x00, 0x20, 0x09, 0x80,
    0x00, 0x20, 0x0A, 0x80,
    0x00, 0x20, 0x0B, 0x80,
    0x00, 0x20, 0x0C, 0x80,
    0x00, 0x20, 0x0D, 0x80,
    0x00, 0x20, 0x0E, 0x80,
};
static const unsigned char noise_instruments[] = {
    0x50, 0x00, 0, 0, 0, 0, 0, 0,
    0xF0, 0x00, 0, 0, 0, 0, 0, 0,
    0xF0, 0x00, 0, 0, 0, 0, 0, 0,
    0xF0, 0x00, 0, 0, 0, 0, 0, 0,
    0xF0, 0x00, 0, 0, 0, 0, 0, 0,
    0xF0, 0x00, 0, 0, 0, 0, 0, 0,
    0xF0, 0x00, 0, 0, 0, 0, 0, 0,
    0xF0, 0x00, 0, 0, 0, 0, 0, 0,
    0xF0, 0x00, 0, 0, 0, 0, 0, 0,
    0xF0, 0x00, 0, 0, 0, 0, 0, 0,
    0xF0, 0x00, 0, 0, 0, 0, 0, 0,
    0xF0, 0x00, 0, 0, 0, 0, 0, 0,
    0xF0, 0x00, 0, 0, 0, 0, 0, 0,
    0xF0, 0x00, 0, 0, 0, 0, 0, 0,
    0xF0, 0x00, 0, 0, 0, 0, 0, 0,
};
static const unsigned char waves[] = {
    0x01, 0x23, 0x45, 0x67, 0x89, 0xAB, 0xCD, 0xEF, 0xFE, 0xDC, 0xBA, 0x98, 0x76, 0x54, 0x32, 0x10,
    0x00, 0x00, 0x00, 0x00, 0xFF, 0xFF, 0xFF, 0xFF, 0xFF, 0xFF, 0xFF, 0xFF, 0xFF, 0xFF, 0xFF, 0xFF,
    0x00, 0x00, 0x00, 0x00, 0x00, 0x00, 0x00, 0x00, 0xFF, 0xFF, 0xFF, 0xFF, 0xFF, 0xFF, 0xFF, 0xFF,
    0x00, 0x00, 0x00, 0x00, 0x00, 0x00, 0x00, 0x00, 0x00, 0x00, 0x00, 0x00, 0xFF, 0xFF, 0xFF, 0xFF,
    0x00, 0x01, 0x12, 0x23, 0x34, 0x45, 0x56, 0x67, 0x78, 0x89, 0x9A, 0xAB, 0xBC, 0xCD, 0xDE, 0xEF,
    0xFE, 0xDC, 0xBA, 0x98, 0x76, 0x54, 0x32, 0x10, 0x12, 0x34, 0x56, 0x78, 0x9A, 0xBC, 0xDE, 0xFF,
    0x7A, 0xCD, 0xDB, 0x75, 0x21, 0x13, 0x68, 0xBD, 0xDC, 0x97, 0x41, 0x01, 0x47, 0x9C, 0xDD, 0xB8,
    0x0F, 0x0F, 0x0F, 0x0F, 0x0F, 0x0F, 0x0F, 0x0F, 0x0F, 0x0F, 0x0F, 0x0F, 0x0F, 0x0F, 0x0F, 0x0F,
    0xFE, 0xFC, 0xFA, 0xF8, 0xF6, 0xF4, 0xF2, 0xF0, 0xF2, 0xF4, 0xF6, 0xF8, 0xFA, 0xFC, 0xFE, 0xFF,
    0xFE, 0xDD, 0xCC, 0xBB, 0xAA, 0x99, 0x88, 0x77, 0x8A, 0xBD, 0xF1, 0x24, 0x57, 0x8A, 0xBD, 0xEE,
    0x84, 0x11, 0x61, 0xED, 0x57, 0x47, 0x5A, 0xAD, 0xCE, 0xA3, 0x17, 0x79, 0xDD, 0x20, 0x03, 0x47,
    0xB7, 0x41, 0x59, 0x12, 0x27, 0xA7, 0x25, 0x27, 0x2D, 0xA8, 0xC9, 0xAE, 0x06, 0xB3, 0x21, 0x05,
    0x5B, 0xEC, 0xBC, 0x80, 0x82, 0x61, 0xCE, 0x56, 0xCE, 0x9C, 0x8C, 0xED, 0x24, 0x1A, 0xAD, 0x56,
    0x56, 0xBC, 0xDD, 0x71, 0x64, 0x77, 0x04, 0xC0, 0x7E, 0x2E, 0x49, 0x2A, 0x11, 0x47, 0xC2, 0xBB,
    0x61, 0x60, 0x5E, 0x25, 0xBB, 0xB5, 0x3B, 0x35, 0x4D, 0x0B, 0x6E, 0x6E, 0x7D, 0x71, 0x4D, 0xB9,
    0x2B, 0xA0, 0x5C, 0x68, 0x1E, 0xE5, 0x71, 0xD5, 0x2B, 0x22, 0xD4, 0x66, 0x23, 0xDB, 0x90, 0x01,
};

const void __at(255) __bank_song_rulz_gonaspace_0_Data;
const hUGESong_t song_rulz_gonaspace_0_Data = {
    7,
    &order_cnt,
    order1, order2, order3, order4,
    duty_instruments, wave_instruments, noise_instruments,
    routines,
    waves
};
