#pragma bank 255

#include "hUGEDriver.h"
#include <stddef.h>
#include "hUGEDriverRoutines.h"

static const unsigned char order_cnt = 2;
static const unsigned char song_pattern_0[] = {
    DN(___, 0, 0x000),
    DN(___, 0, 0x000),
    DN(___, 0, 0x000),
    DN(___, 0, 0x000),
    DN(F_6, 1, 0x000),
    DN(G_6, 1, 0x000),
    DN(Gs6, 1, 0x000),
    DN(___, 0, 0xE00),
    DN(Cs7, 1, 0x000),
    DN(___, 0, 0xE00),
    DN(Gs6, 1, 0x000),
    DN(___, 0, 0xE00),
    DN(D_6, 1, 0x000),
    DN(E_6, 1, 0x000),
    DN(F_6, 1, 0x000),
    DN(___, 0, 0xE00),
    DN(As6, 1, 0x000),
    DN(___, 0, 0xE00),
    DN(D_6, 1, 0x000),
    DN(___, 0, 0xE00),
    DN(C_6, 1, 0x000),
    DN(E_6, 1, 0x000),
    DN(F_6, 1, 0x000),
    DN(___, 0, 0xE00),
    DN(G_7, 1, 0x000),
    DN(___, 0, 0xE00),
    DN(G_6, 1, 0x000),
    DN(___, 0, 0xE00),
    DN(G_7, 1, 0xC05),
    DN(___, 0, 0xE00),
    DN(G_6, 1, 0xC05),
    DN(___, 0, 0xE00),
    DN(G_7, 1, 0xC04),
    DN(___, 0, 0xE00),
    DN(G_6, 1, 0xC04),
    DN(___, 0, 0xE00),
    DN(G_7, 1, 0xC02),
    DN(___, 0, 0xE00),
    DN(G_6, 1, 0xC01),
    DN(___, 0, 0xE00),
    DN(___, 0, 0x000),
    DN(___, 0, 0x000),
    DN(___, 0, 0x000),
    DN(___, 0, 0x000),
    DN(___, 0, 0x000),
    DN(___, 0, 0x000),
    DN(___, 0, 0x000),
    DN(___, 0, 0x000),
    DN(___, 0, 0x000),
    DN(___, 0, 0x000),
    DN(___, 0, 0x000),
    DN(___, 0, 0x000),
    DN(___, 0, 0x000),
    DN(___, 0, 0x000),
    DN(___, 0, 0x000),
    DN(___, 0, 0x000),
    DN(___, 0, 0x000),
    DN(___, 0, 0x000),
    DN(___, 0, 0x000),
    DN(___, 0, 0x000),
    DN(___, 0, 0x000),
    DN(___, 0, 0x000),
    DN(___, 0, 0x000),
    DN(___, 0, 0x000),
};
static const unsigned char song_pattern_1[] = {
    DN(___, 0, 0x000),
    DN(___, 0, 0x000),
    DN(___, 0, 0x000),
    DN(___, 0, 0x000),
    DN(___, 0, 0x000),
    DN(F_6, 2, 0x000),
    DN(G_6, 2, 0x000),
    DN(Gs6, 2, 0x000),
    DN(___, 0, 0xE00),
    DN(Cs7, 2, 0x000),
    DN(___, 0, 0xE00),
    DN(Gs6, 2, 0x000),
    DN(___, 0, 0xE00),
    DN(D_6, 2, 0x000),
    DN(E_6, 2, 0x000),
    DN(F_6, 2, 0x000),
    DN(___, 0, 0xE00),
    DN(As6, 2, 0x000),
    DN(___, 0, 0xE00),
    DN(D_6, 2, 0x000),
    DN(___, 0, 0xE00),
    DN(C_6, 2, 0x000),
    DN(E_6, 2, 0x000),
    DN(F_6, 2, 0x000),
    DN(___, 0, 0xE00),
    DN(G_6, 2, 0x000),
    DN(___, 0, 0xE00),
    DN(G_7, 2, 0x000),
    DN(___, 0, 0xE00),
    DN(G_6, 2, 0xC05),
    DN(___, 0, 0xE00),
    DN(G_7, 2, 0xC05),
    DN(___, 0, 0xE00),
    DN(G_6, 2, 0xC04),
    DN(___, 0, 0xE00),
    DN(G_7, 2, 0xC04),
    DN(___, 0, 0xE00),
    DN(G_6, 2, 0xC02),
    DN(___, 0, 0xE00),
    DN(G_7, 2, 0xC01),
    DN(___, 0, 0xE00),
    DN(___, 0, 0x000),
    DN(___, 0, 0x000),
    DN(___, 0, 0x000),
    DN(___, 0, 0x000),
    DN(___, 0, 0x000),
    DN(___, 0, 0x000),
    DN(___, 0, 0x000),
    DN(___, 0, 0x000),
    DN(___, 0, 0x000),
    DN(___, 0, 0x000),
    DN(___, 0, 0x000),
    DN(___, 0, 0x000),
    DN(___, 0, 0x000),
    DN(___, 0, 0x000),
    DN(___, 0, 0x000),
    DN(___, 0, 0x000),
    DN(___, 0, 0x000),
    DN(___, 0, 0x000),
    DN(___, 0, 0x000),
    DN(___, 0, 0x000),
    DN(___, 0, 0x000),
    DN(___, 0, 0x000),
    DN(___, 0, 0x000),
};
static const unsigned char song_pattern_2[] = {
    DN(___, 0, 0x000),
    DN(___, 0, 0x000),
    DN(___, 0, 0x000),
    DN(___, 0, 0x000),
    DN(Gs5, 1, 0x000),
    DN(Gs5, 1, 0xC07),
    DN(Gs5, 1, 0x000),
    DN(___, 0, 0x000),
    DN(Gs5, 1, 0x000),
    DN(Gs5, 1, 0xC07),
    DN(Gs5, 1, 0xC07),
    DN(___, 0, 0xC0D),
    DN(F_5, 1, 0x000),
    DN(F_5, 1, 0xC07),
    DN(F_5, 1, 0x000),
    DN(___, 0, 0x000),
    DN(F_5, 1, 0x000),
    DN(F_5, 1, 0xC07),
    DN(F_5, 1, 0xC04),
    DN(___, 0, 0xC0D),
    DN(G_5, 1, 0x000),
    DN(G_5, 1, 0xC07),
    DN(G_5, 1, 0x000),
    DN(___, 0, 0x000),
    DN(E_5, 1, 0x000),
    DN(E_5, 1, 0xC07),
    DN(E_5, 1, 0x000),
    DN(___, 0, 0x000),
    DN(E_5, 1, 0xC07),
    DN(___, 0, 0x000),
    DN(E_5, 1, 0xC04),
    DN(___, 0, 0x000),
    DN(___, 0, 0xC00),
    DN(___, 0, 0x000),
    DN(___, 0, 0x000),
    DN(___, 0, 0x000),
    DN(___, 0, 0x000),
    DN(___, 0, 0x000),
    DN(___, 0, 0x000),
    DN(___, 0, 0x000),
    DN(___, 0, 0x000),
    DN(___, 0, 0x000),
    DN(___, 0, 0x000),
    DN(___, 0, 0x000),
    DN(___, 0, 0x000),
    DN(___, 0, 0x000),
    DN(___, 0, 0x000),
    DN(___, 0, 0x000),
    DN(___, 0, 0x000),
    DN(___, 0, 0x000),
    DN(___, 0, 0x000),
    DN(___, 0, 0x000),
    DN(___, 0, 0x000),
    DN(___, 0, 0x000),
    DN(___, 0, 0x000),
    DN(___, 0, 0x000),
    DN(___, 0, 0x000),
    DN(___, 0, 0x000),
    DN(___, 0, 0x000),
    DN(___, 0, 0x000),
    DN(___, 0, 0x000),
    DN(___, 0, 0x000),
    DN(___, 0, 0x000),
    DN(___, 0, 0x000),
};
static const unsigned char song_pattern_3[] = {
    DN(Cs7, 1, 0xC01),
    DN(Cs7, 1, 0xC02),
    DN(Cs7, 1, 0xC03),
    DN(Cs7, 1, 0xC05),
    DN(Cs7, 1, 0xC07),
    DN(___, 0, 0x000),
    DN(Cs6, 1, 0xE06),
    DN(___, 0, 0x000),
    DN(Cs7, 1, 0xC08),
    DN(C_6, 1, 0xE06),
    DN(___, 0, 0xC00),
    DN(Cs7, 1, 0xC08),
    DN(___, 0, 0xE00),
    DN(Cs7, 1, 0xC08),
    DN(As5, 1, 0x000),
    DN(___, 0, 0xE00),
    DN(Cs7, 1, 0xC06),
    DN(Cs7, 1, 0xC06),
    DN(Cs7, 1, 0xC05),
    DN(Cs7, 1, 0xC04),
    DN(Cs7, 1, 0xC03),
    DN(Cs7, 1, 0xC01),
    DN(___, 0, 0xE00),
    DN(___, 0, 0x000),
    DN(___, 0, 0x000),
    DN(___, 0, 0x000),
    DN(___, 0, 0x000),
    DN(___, 0, 0x000),
    DN(___, 0, 0x000),
    DN(___, 0, 0x000),
    DN(___, 0, 0x000),
    DN(___, 0, 0x000),
    DN(___, 0, 0x000),
    DN(___, 0, 0x000),
    DN(___, 0, 0x000),
    DN(___, 0, 0x000),
    DN(___, 0, 0x000),
    DN(___, 0, 0x000),
    DN(___, 0, 0x000),
    DN(___, 0, 0x000),
    DN(___, 0, 0x000),
    DN(___, 0, 0x000),
    DN(___, 0, 0x000),
    DN(___, 0, 0x000),
    DN(___, 0, 0x000),
    DN(___, 0, 0x000),
    DN(___, 0, 0x000),
    DN(___, 0, 0x000),
    DN(___, 0, 0x000),
    DN(___, 0, 0x000),
    DN(___, 0, 0x000),
    DN(___, 0, 0x000),
    DN(___, 0, 0x000),
    DN(___, 0, 0x000),
    DN(___, 0, 0x000),
    DN(___, 0, 0x000),
    DN(___, 0, 0x000),
    DN(___, 0, 0x000),
    DN(___, 0, 0x000),
    DN(___, 0, 0x000),
    DN(___, 0, 0x000),
    DN(___, 0, 0x000),
    DN(___, 0, 0x000),
    DN(___, 0, 0x000),
};
static const unsigned char* const order1[] = {song_pattern_0};
static const unsigned char* const order2[] = {song_pattern_1};
static const unsigned char* const order3[] = {song_pattern_2};
static const unsigned char* const order4[] = {song_pattern_3};
static const unsigned char duty_instruments[] = {
    0x00, 0x40, 0xB0, 0x80,
    0x00, 0x80, 0x60, 0x80,
    0x00, 0x80, 0xF0, 0x80,
    0x00, 0xC0, 0xF0, 0x80,
    0x00, 0x00, 0xF1, 0x80,
    0x00, 0x40, 0xF1, 0x80,
    0x00, 0x80, 0xF1, 0x80,
    0x00, 0xC0, 0xF1, 0x80,
    0x00, 0x80, 0xF0, 0x80,
    0x00, 0x80, 0xF0, 0x80,
    0x00, 0x80, 0xF0, 0x80,
    0x00, 0x80, 0xF0, 0x80,
    0x00, 0x80, 0xF0, 0x80,
    0x00, 0x80, 0xF0, 0x80,
    0x00, 0x80, 0xF0, 0x80,
};
static const unsigned char wave_instruments[] = {
    0x00, 0x20, 0x00, 0x80,
    0x00, 0x20, 0x01, 0x80,
    0x00, 0x20, 0x02, 0x80,
    0x00, 0x20, 0x03, 0x80,
    0x00, 0x20, 0x04, 0x80,
    0x00, 0x20, 0x05, 0x80,
    0x00, 0x20, 0x06, 0x80,
    0x00, 0x20, 0x07, 0x80,
    0x00, 0x20, 0x08, 0x80,
    0x00, 0x20, 0x09, 0x80,
    0x00, 0x20, 0x0A, 0x80,
    0x00, 0x20, 0x0B, 0x80,
    0x00, 0x20, 0x0C, 0x80,
    0x00, 0x20, 0x0D, 0x80,
    0x00, 0x20, 0x0E, 0x80,
};
static const unsigned char noise_instruments[] = {
    0xF0, 0x00, 0, 0, 0, 0, 0, 0,
    0xF0, 0x00, 0, 0, 0, 0, 0, 0,
    0xF0, 0x00, 0, 0, 0, 0, 0, 0,
    0xF0, 0x00, 0, 0, 0, 0, 0, 0,
    0xF0, 0x00, 0, 0, 0, 0, 0, 0,
    0xF0, 0x00, 0, 0, 0, 0, 0, 0,
    0xF0, 0x00, 0, 0, 0, 0, 0, 0,
    0xF0, 0x00, 0, 0, 0, 0, 0, 0,
    0xF0, 0x00, 0, 0, 0, 0, 0, 0,
    0xF0, 0x00, 0, 0, 0, 0, 0, 0,
    0xF0, 0x00, 0, 0, 0, 0, 0, 0,
    0xF0, 0x00, 0, 0, 0, 0, 0, 0,
    0xF0, 0x00, 0, 0, 0, 0, 0, 0,
    0xF0, 0x00, 0, 0, 0, 0, 0, 0,
    0xF0, 0x00, 0, 0, 0, 0, 0, 0,
};
static const unsigned char waves[] = {
    0x01, 0x23, 0x45, 0x67, 0x89, 0xAB, 0xCD, 0xEF, 0xFE, 0xDC, 0xBA, 0x98, 0x76, 0x54, 0x32, 0x10,
    0x00, 0x00, 0x00, 0x00, 0xFF, 0xFF, 0xFF, 0xFF, 0xFF, 0xFF, 0xFF, 0xFF, 0xFF, 0xFF, 0xFF, 0xFF,
    0x00, 0x00, 0x00, 0x00, 0x00, 0x00, 0x00, 0x00, 0xFF, 0xFF, 0xFF, 0xFF, 0xFF, 0xFF, 0xFF, 0xFF,
    0x00, 0x00, 0x00, 0x00, 0x00, 0x00, 0x00, 0x00, 0x00, 0x00, 0x00, 0x00, 0xFF, 0xFF, 0xFF, 0xFF,
    0x00, 0x01, 0x12, 0x23, 0x34, 0x45, 0x56, 0x67, 0x78, 0x89, 0x9A, 0xAB, 0xBC, 0xCD, 0xDE, 0xEF,
    0xFE, 0xDC, 0xBA, 0x98, 0x76, 0x54, 0x32, 0x10, 0x12, 0x34, 0x56, 0x78, 0x9A, 0xBC, 0xDE, 0xFF,
    0x7A, 0xCD, 0xDB, 0x75, 0x21, 0x13, 0x68, 0xBD, 0xDC, 0x97, 0x41, 0x01, 0x47, 0x9C, 0xDD, 0xB8,
    0x0F, 0x0F, 0x0F, 0x0F, 0x0F, 0x0F, 0x0F, 0x0F, 0x0F, 0x0F, 0x0F, 0x0F, 0x0F, 0x0F, 0x0F, 0x0F,
    0xFE, 0xFC, 0xFA, 0xF8, 0xF6, 0xF4, 0xF2, 0xF0, 0xF2, 0xF4, 0xF6, 0xF8, 0xFA, 0xFC, 0xFE, 0xFF,
    0xFE, 0xDD, 0xCC, 0xBB, 0xAA, 0x99, 0x88, 0x77, 0x8A, 0xBD, 0xF1, 0x24, 0x57, 0x8A, 0xBD, 0xEE,
    0x84, 0x11, 0x61, 0xED, 0x57, 0x47, 0x5A, 0xAD, 0xCE, 0xA3, 0x17, 0x79, 0xDD, 0x20, 0x03, 0x47,
    0xC9, 0x45, 0xAE, 0xE1, 0x74, 0x16, 0xE4, 0xE0, 0xC2, 0x60, 0x30, 0x87, 0xB1, 0x16, 0xDE, 0xB0,
    0xE8, 0x33, 0x44, 0xD3, 0x63, 0x3C, 0xD4, 0x6A, 0x54, 0x29, 0xAA, 0x8D, 0xE3, 0x7C, 0x8D, 0xC8,
    0x38, 0x29, 0xEA, 0x9D, 0x50, 0xE2, 0x6E, 0x9D, 0x52, 0xA1, 0x5C, 0xE2, 0x76, 0xE9, 0x22, 0x1B,
    0x73, 0x73, 0xAA, 0x00, 0xC3, 0x60, 0x0B, 0x35, 0x29, 0x4C, 0xA3, 0x3D, 0xD1, 0xDB, 0x11, 0xA6,
    0x84, 0xB2, 0xE8, 0x9D, 0x31, 0x07, 0x96, 0x2B, 0x6C, 0x16, 0x01, 0x8A, 0xAB, 0x1A, 0x31, 0x64,
};

const void __at(255) __bank_song_rulz_intro_0_Data;
const hUGESong_t song_rulz_intro_0_Data = {
    7,
    &order_cnt,
    order1, order2, order3, order4,
    duty_instruments, wave_instruments, noise_instruments,
    routines,
    waves
};
