#pragma bank 255

#include "hUGEDriver.h"
#include <stddef.h>
#include "hUGEDriverRoutines.h"

static const unsigned char order_cnt = 4;
static const unsigned char song_pattern_0[] = {
    DN(C_4, 1, 0x000),
    DN(___, 0, 0x000),
    DN(___, 0, 0x000),
    DN(___, 0, 0x000),
    DN(___, 0, 0x000),
    DN(___, 0, 0x000),
    DN(___, 0, 0x000),
    DN(___, 0, 0x000),
    DN(___, 0, 0x000),
    DN(___, 0, 0x000),
    DN(___, 0, 0x000),
    DN(___, 0, 0x000),
    DN(___, 0, 0x000),
    DN(Gs6, 2, 0xC06),
    DN(G_6, 2, 0xC05),
    DN(Gs6, 2, 0xC04),
    DN(G_6, 2, 0xC03),
    DN(Gs6, 2, 0xC02),
    DN(G_6, 2, 0xC01),
    DN(___, 0, 0xE00),
    DN(___, 0, 0x000),
    DN(___, 0, 0x000),
    DN(___, 0, 0x000),
    DN(___, 0, 0x000),
    DN(___, 0, 0x000),
    DN(E_6, 2, 0xC06),
    DN(Ds6, 2, 0xC05),
    DN(E_6, 2, 0xC04),
    DN(Ds6, 2, 0xC03),
    DN(E_6, 2, 0xC02),
    DN(Ds6, 2, 0xC01),
    DN(___, 0, 0xE00),
    DN(___, 0, 0x000),
    DN(___, 0, 0x000),
    DN(C_6, 3, 0xC05),
    DN(___, 0, 0xE00),
    DN(___, 0, 0x000),
    DN(___, 0, 0x000),
    DN(C_6, 3, 0xC05),
    DN(___, 0, 0xE00),
    DN(___, 0, 0x000),
    DN(___, 0, 0x000),
    DN(C_6, 3, 0xC05),
    DN(___, 0, 0xE00),
    DN(___, 0, 0x000),
    DN(___, 0, 0x000),
    DN(C_6, 3, 0xC05),
    DN(___, 0, 0xE00),
    DN(___, 0, 0x000),
    DN(___, 0, 0x000),
    DN(C_6, 3, 0xC05),
    DN(___, 0, 0xE00),
    DN(___, 0, 0x000),
    DN(___, 0, 0x000),
    DN(C_6, 3, 0xC05),
    DN(___, 0, 0xE00),
    DN(___, 0, 0x000),
    DN(___, 0, 0x000),
    DN(C_6, 3, 0xC05),
    DN(___, 0, 0xE00),
    DN(___, 0, 0x000),
    DN(___, 0, 0x000),
    DN(C_6, 3, 0xC05),
    DN(___, 0, 0xE00),
};
static const unsigned char song_pattern_1[] = {
    DN(___, 0, 0x000),
    DN(___, 0, 0x000),
    DN(___, 0, 0x000),
    DN(___, 0, 0x000),
    DN(___, 0, 0x000),
    DN(___, 0, 0x000),
    DN(___, 0, 0x000),
    DN(___, 0, 0x000),
    DN(___, 0, 0x000),
    DN(___, 0, 0x000),
    DN(___, 0, 0x000),
    DN(___, 0, 0x000),
    DN(___, 0, 0x000),
    DN(___, 0, 0x000),
    DN(Fs6, 2, 0xC03),
    DN(E_6, 2, 0xC03),
    DN(Fs6, 2, 0xC02),
    DN(E_6, 2, 0xC02),
    DN(Fs6, 2, 0xC01),
    DN(___, 0, 0xE01),
    DN(___, 0, 0x000),
    DN(___, 0, 0x000),
    DN(___, 0, 0x000),
    DN(___, 0, 0x000),
    DN(___, 0, 0x000),
    DN(___, 0, 0x000),
    DN(Fs6, 4, 0xC03),
    DN(E_6, 4, 0xC03),
    DN(Fs6, 4, 0xC02),
    DN(E_6, 4, 0xC02),
    DN(Fs6, 4, 0xC01),
    DN(___, 0, 0x000),
    DN(C_6, 3, 0xC06),
    DN(___, 0, 0x037),
    DN(___, 0, 0x037),
    DN(___, 0, 0x037),
    DN(C_6, 3, 0xC06),
    DN(___, 0, 0x038),
    DN(___, 0, 0x038),
    DN(___, 0, 0x038),
    DN(C_6, 3, 0xC06),
    DN(___, 0, 0x037),
    DN(___, 0, 0x037),
    DN(___, 0, 0x037),
    DN(C_6, 3, 0xC06),
    DN(___, 0, 0x035),
    DN(___, 0, 0x035),
    DN(___, 0, 0x035),
    DN(C_6, 3, 0xC06),
    DN(___, 0, 0x037),
    DN(___, 0, 0x037),
    DN(___, 0, 0x037),
    DN(C_6, 3, 0xC06),
    DN(___, 0, 0x038),
    DN(___, 0, 0x038),
    DN(___, 0, 0x038),
    DN(C_6, 3, 0xC06),
    DN(___, 0, 0x037),
    DN(___, 0, 0x037),
    DN(___, 0, 0x037),
    DN(C_6, 3, 0xC06),
    DN(___, 0, 0x035),
    DN(___, 0, 0x035),
    DN(___, 0, 0x035),
};
static const unsigned char song_pattern_2[] = {
    DN(C_5, 1, 0x000),
    DN(___, 0, 0x000),
    DN(___, 0, 0xC07),
    DN(___, 0, 0xC01),
    DN(Ds5, 1, 0x000),
    DN(___, 0, 0x000),
    DN(___, 0, 0xC07),
    DN(___, 0, 0xC01),
    DN(D_5, 1, 0x000),
    DN(___, 0, 0x000),
    DN(___, 0, 0xC07),
    DN(___, 0, 0xC01),
    DN(As4, 1, 0x000),
    DN(___, 0, 0x000),
    DN(___, 0, 0xC07),
    DN(___, 0, 0xC01),
    DN(C_5, 1, 0x000),
    DN(___, 0, 0x000),
    DN(___, 0, 0xC07),
    DN(___, 0, 0xC01),
    DN(Ds5, 1, 0x000),
    DN(___, 0, 0x000),
    DN(___, 0, 0xC07),
    DN(___, 0, 0xC01),
    DN(D_5, 1, 0x000),
    DN(___, 0, 0x000),
    DN(___, 0, 0xC07),
    DN(___, 0, 0xC01),
    DN(As4, 1, 0x000),
    DN(___, 0, 0x000),
    DN(___, 0, 0xC07),
    DN(___, 0, 0xC01),
    DN(C_5, 1, 0x000),
    DN(___, 0, 0x000),
    DN(___, 0, 0xC07),
    DN(___, 0, 0xC01),
    DN(Ds5, 1, 0x000),
    DN(___, 0, 0x000),
    DN(___, 0, 0xC07),
    DN(___, 0, 0xC01),
    DN(D_5, 1, 0x000),
    DN(___, 0, 0x000),
    DN(___, 0, 0xC07),
    DN(___, 0, 0xC01),
    DN(As4, 1, 0x000),
    DN(___, 0, 0x000),
    DN(___, 0, 0xC07),
    DN(___, 0, 0xC01),
    DN(C_5, 1, 0x000),
    DN(___, 0, 0x000),
    DN(___, 0, 0xC07),
    DN(___, 0, 0xC01),
    DN(Ds5, 1, 0x000),
    DN(___, 0, 0x000),
    DN(___, 0, 0xC07),
    DN(___, 0, 0xC01),
    DN(D_5, 1, 0x000),
    DN(___, 0, 0x000),
    DN(___, 0, 0xC07),
    DN(___, 0, 0xC01),
    DN(As4, 1, 0x000),
    DN(___, 0, 0x000),
    DN(___, 0, 0xC07),
    DN(___, 0, 0xC01),
};
static const unsigned char song_pattern_3[] = {
    DN(B_5, 1, 0x000),
    DN(G_6, 1, 0xE02),
    DN(Cs7, 1, 0xE02),
    DN(G_6, 1, 0xE02),
    DN(___, 0, 0x000),
    DN(G_6, 1, 0xE02),
    DN(Cs7, 1, 0xE02),
    DN(G_6, 1, 0xE02),
    DN(___, 0, 0x000),
    DN(G_6, 1, 0xE02),
    DN(Cs7, 1, 0xE02),
    DN(G_6, 1, 0xE02),
    DN(B_5, 1, 0xC05),
    DN(G_6, 1, 0xE02),
    DN(Cs7, 1, 0xE02),
    DN(___, 0, 0x000),
    DN(B_5, 1, 0x000),
    DN(G_6, 1, 0xE02),
    DN(Cs7, 1, 0xE02),
    DN(G_6, 1, 0xE02),
    DN(___, 0, 0x000),
    DN(G_6, 1, 0xE02),
    DN(Cs7, 1, 0xE02),
    DN(G_6, 1, 0xE02),
    DN(___, 0, 0x000),
    DN(G_6, 1, 0xE02),
    DN(Cs7, 1, 0xE02),
    DN(G_6, 1, 0xE02),
    DN(B_5, 1, 0xC05),
    DN(G_6, 1, 0xE02),
    DN(Cs7, 1, 0xE02),
    DN(___, 0, 0x000),
    DN(B_5, 1, 0x000),
    DN(G_6, 1, 0xE02),
    DN(Cs7, 1, 0xE02),
    DN(G_6, 1, 0xE02),
    DN(___, 0, 0x000),
    DN(G_6, 1, 0xE02),
    DN(Cs7, 1, 0xE02),
    DN(G_6, 1, 0xE02),
    DN(___, 0, 0x000),
    DN(G_6, 1, 0xE02),
    DN(Cs7, 1, 0xE02),
    DN(G_6, 1, 0xE02),
    DN(B_5, 1, 0xC05),
    DN(G_6, 1, 0xE02),
    DN(Cs7, 1, 0xE02),
    DN(___, 0, 0x000),
    DN(B_5, 1, 0x000),
    DN(G_6, 1, 0xE02),
    DN(Cs7, 1, 0xE02),
    DN(G_6, 1, 0xE02),
    DN(___, 0, 0x000),
    DN(G_6, 1, 0xE02),
    DN(Cs7, 1, 0xE02),
    DN(G_6, 1, 0xE02),
    DN(___, 0, 0x000),
    DN(G_6, 1, 0xE02),
    DN(Cs7, 1, 0xE02),
    DN(G_6, 1, 0xE02),
    DN(B_5, 1, 0xC05),
    DN(G_6, 1, 0xE02),
    DN(Cs7, 1, 0xE02),
    DN(___, 0, 0x000),
};
static const unsigned char song_pattern_4[] = {
    DN(C_4, 1, 0x000),
    DN(___, 0, 0x000),
    DN(___, 0, 0x000),
    DN(___, 0, 0x000),
    DN(___, 0, 0x000),
    DN(___, 0, 0x000),
    DN(___, 0, 0x000),
    DN(___, 0, 0x000),
    DN(___, 0, 0x000),
    DN(___, 0, 0x000),
    DN(___, 0, 0x000),
    DN(___, 0, 0x000),
    DN(___, 0, 0x000),
    DN(___, 0, 0x000),
    DN(___, 0, 0x000),
    DN(___, 0, 0x000),
    DN(___, 0, 0x000),
    DN(___, 0, 0x000),
    DN(___, 0, 0x000),
    DN(___, 0, 0x000),
    DN(___, 0, 0x000),
    DN(___, 0, 0x000),
    DN(___, 0, 0x000),
    DN(___, 0, 0x000),
    DN(___, 0, 0x000),
    DN(___, 0, 0x000),
    DN(___, 0, 0x000),
    DN(___, 0, 0x000),
    DN(___, 0, 0x000),
    DN(___, 0, 0x000),
    DN(___, 0, 0x000),
    DN(___, 0, 0x000),
    DN(C_5, 4, 0x000),
    DN(C_5, 4, 0x037),
    DN(Ds5, 4, 0x000),
    DN(C_5, 4, 0x073),
    DN(F_5, 4, 0x000),
    DN(C_5, 4, 0x038),
    DN(Ds5, 4, 0x000),
    DN(C_5, 4, 0x083),
    DN(G_5, 4, 0x000),
    DN(C_5, 4, 0x037),
    DN(Gs5, 4, 0x000),
    DN(C_5, 4, 0x073),
    DN(As5, 4, 0x000),
    DN(C_5, 4, 0x035),
    DN(D_6, 4, 0x000),
    DN(C_5, 4, 0x053),
    DN(C_6, 4, 0x000),
    DN(C_5, 4, 0x037),
    DN(C_6, 4, 0x000),
    DN(C_5, 4, 0x073),
    DN(C_6, 4, 0x000),
    DN(C_5, 4, 0x038),
    DN(G_5, 4, 0x000),
    DN(C_5, 4, 0x083),
    DN(Gs5, 4, 0x000),
    DN(C_5, 4, 0x037),
    DN(G_5, 4, 0x000),
    DN(C_5, 4, 0x073),
    DN(Ds5, 4, 0x000),
    DN(C_5, 4, 0x035),
    DN(F_5, 4, 0x000),
    DN(C_5, 4, 0x053),
};
static const unsigned char song_pattern_5[] = {
    DN(___, 0, 0x000),
    DN(___, 0, 0x000),
    DN(___, 0, 0x000),
    DN(___, 0, 0x000),
    DN(___, 0, 0x000),
    DN(___, 0, 0x000),
    DN(___, 0, 0x000),
    DN(___, 0, 0x000),
    DN(___, 0, 0x000),
    DN(___, 0, 0x000),
    DN(___, 0, 0x000),
    DN(___, 0, 0x000),
    DN(___, 0, 0x000),
    DN(___, 0, 0x000),
    DN(___, 0, 0x000),
    DN(___, 0, 0x000),
    DN(___, 0, 0x000),
    DN(___, 0, 0x000),
    DN(___, 0, 0x000),
    DN(___, 0, 0x000),
    DN(___, 0, 0x000),
    DN(___, 0, 0x000),
    DN(___, 0, 0x000),
    DN(___, 0, 0x000),
    DN(___, 0, 0x000),
    DN(___, 0, 0x000),
    DN(___, 0, 0x000),
    DN(___, 0, 0x000),
    DN(___, 0, 0x000),
    DN(___, 0, 0x000),
    DN(___, 0, 0x000),
    DN(___, 0, 0x000),
    DN(C_6, 3, 0xC06),
    DN(___, 0, 0x037),
    DN(C_6, 3, 0xC03),
    DN(___, 0, 0x000),
    DN(C_6, 3, 0xC06),
    DN(___, 0, 0x038),
    DN(C_6, 3, 0xC03),
    DN(___, 0, 0x000),
    DN(C_6, 3, 0xC06),
    DN(___, 0, 0x037),
    DN(C_6, 3, 0xC03),
    DN(___, 0, 0x000),
    DN(C_6, 3, 0xC06),
    DN(___, 0, 0x035),
    DN(C_6, 3, 0xC03),
    DN(___, 0, 0x000),
    DN(C_6, 3, 0xC06),
    DN(___, 0, 0x037),
    DN(C_6, 3, 0xC03),
    DN(___, 0, 0x000),
    DN(C_6, 3, 0xC06),
    DN(___, 0, 0x038),
    DN(C_6, 3, 0xC03),
    DN(___, 0, 0x000),
    DN(C_6, 3, 0xC06),
    DN(___, 0, 0x037),
    DN(C_6, 3, 0xC03),
    DN(___, 0, 0x000),
    DN(C_6, 3, 0xC06),
    DN(___, 0, 0x035),
    DN(C_6, 3, 0xC03),
    DN(___, 0, 0x000),
};
static const unsigned char* const order1[] = {song_pattern_0, song_pattern_4};
static const unsigned char* const order2[] = {song_pattern_1, song_pattern_5};
static const unsigned char* const order3[] = {song_pattern_2, song_pattern_2};
static const unsigned char* const order4[] = {song_pattern_3, song_pattern_3};
static const unsigned char duty_instruments[] = {
    0x00, 0x00, 0xA7, 0x80,
    0x00, 0x00, 0xA0, 0x80,
    0x00, 0x80, 0x70, 0x80,
    0x00, 0xC0, 0x70, 0x80,
    0x00, 0x00, 0xF1, 0x80,
    0x00, 0x40, 0xF1, 0x80,
    0x00, 0x80, 0xF1, 0x80,
    0x00, 0xC0, 0xF1, 0x80,
    0x00, 0x80, 0xF0, 0x80,
    0x00, 0x80, 0xF0, 0x80,
    0x00, 0x80, 0xF0, 0x80,
    0x00, 0x80, 0xF0, 0x80,
    0x00, 0x80, 0xF0, 0x80,
    0x00, 0x80, 0xF0, 0x80,
    0x00, 0x80, 0xF0, 0x80,
};
static const unsigned char wave_instruments[] = {
    0x00, 0x20, 0x00, 0x80,
    0x00, 0x20, 0x01, 0x80,
    0x00, 0x20, 0x02, 0x80,
    0x00, 0x20, 0x03, 0x80,
    0x00, 0x20, 0x04, 0x80,
    0x00, 0x20, 0x05, 0x80,
    0x00, 0x20, 0x06, 0x80,
    0x00, 0x20, 0x07, 0x80,
    0x00, 0x20, 0x08, 0x80,
    0x00, 0x20, 0x09, 0x80,
    0x00, 0x20, 0x0A, 0x80,
    0x00, 0x20, 0x0B, 0x80,
    0x00, 0x20, 0x0C, 0x80,
    0x00, 0x20, 0x0D, 0x80,
    0x00, 0x20, 0x0E, 0x80,
};
static const unsigned char noise_instruments[] = {
    0xB0, 0x00, 0, 0, 0, 0, 0, 0,
    0xF0, 0x00, 0, 0, 0, 0, 0, 0,
    0xF0, 0x00, 0, 0, 0, 0, 0, 0,
    0xF0, 0x00, 0, 0, 0, 0, 0, 0,
    0xF0, 0x00, 0, 0, 0, 0, 0, 0,
    0xF0, 0x00, 0, 0, 0, 0, 0, 0,
    0xF0, 0x00, 0, 0, 0, 0, 0, 0,
    0xF0, 0x00, 0, 0, 0, 0, 0, 0,
    0xF0, 0x00, 0, 0, 0, 0, 0, 0,
    0xF0, 0x00, 0, 0, 0, 0, 0, 0,
    0xF0, 0x00, 0, 0, 0, 0, 0, 0,
    0xF0, 0x00, 0, 0, 0, 0, 0, 0,
    0xF0, 0x00, 0, 0, 0, 0, 0, 0,
    0xF0, 0x00, 0, 0, 0, 0, 0, 0,
    0xF0, 0x00, 0, 0, 0, 0, 0, 0,
};
static const unsigned char waves[] = {
    0x01, 0x23, 0x45, 0x67, 0x89, 0xAB, 0xCD, 0xEF, 0xFE, 0xDC, 0xBA, 0x98, 0x76, 0x54, 0x32, 0x10,
    0x00, 0x00, 0x00, 0x00, 0xFF, 0xFF, 0xFF, 0xFF, 0xFF, 0xFF, 0xFF, 0xFF, 0xFF, 0xFF, 0xFF, 0xFF,
    0x00, 0x00, 0x00, 0x00, 0x00, 0x00, 0x00, 0x00, 0xFF, 0xFF, 0xFF, 0xFF, 0xFF, 0xFF, 0xFF, 0xFF,
    0x00, 0x00, 0x00, 0x00, 0x00, 0x00, 0x00, 0x00, 0x00, 0x00, 0x00, 0x00, 0xFF, 0xFF, 0xFF, 0xFF,
    0x00, 0x01, 0x12, 0x23, 0x34, 0x45, 0x56, 0x67, 0x78, 0x89, 0x9A, 0xAB, 0xBC, 0xCD, 0xDE, 0xEF,
    0xFE, 0xDC, 0xBA, 0x98, 0x76, 0x54, 0x32, 0x10, 0x12, 0x34, 0x56, 0x78, 0x9A, 0xBC, 0xDE, 0xFF,
    0x7A, 0xCD, 0xDB, 0x75, 0x21, 0x13, 0x68, 0xBD, 0xDC, 0x97, 0x41, 0x01, 0x47, 0x9C, 0xDD, 0xB8,
    0x0F, 0x0F, 0x0F, 0x0F, 0x0F, 0x0F, 0x0F, 0x0F, 0x0F, 0x0F, 0x0F, 0x0F, 0x0F, 0x0F, 0x0F, 0x0F,
    0xFE, 0xFC, 0xFA, 0xF8, 0xF6, 0xF4, 0xF2, 0xF0, 0xF2, 0xF4, 0xF6, 0xF8, 0xFA, 0xFC, 0xFE, 0xFF,
    0xFE, 0xDD, 0xCC, 0xBB, 0xAA, 0x99, 0x88, 0x77, 0x8A, 0xBD, 0xF1, 0x24, 0x57, 0x8A, 0xBD, 0xEE,
    0x84, 0x11, 0x61, 0xED, 0x57, 0x47, 0x5A, 0xAD, 0xCE, 0xA3, 0x17, 0x79, 0xDD, 0x20, 0x03, 0x47,
    0xAA, 0xED, 0x4A, 0xA0, 0x35, 0xCC, 0x2E, 0x37, 0xDD, 0xBD, 0x7C, 0x24, 0xBB, 0x80, 0xC0, 0xCB,
    0x3B, 0xD0, 0x44, 0x8E, 0x27, 0x6D, 0xA6, 0x77, 0xE1, 0x07, 0xA0, 0xDE, 0xD8, 0xB2, 0x7C, 0x2A,
    0x54, 0x96, 0x1E, 0xD1, 0xA4, 0xE3, 0x85, 0x4C, 0x5A, 0x4B, 0x28, 0xC9, 0x9D, 0x2B, 0x39, 0xB3,
    0xB6, 0x67, 0x30, 0x8C, 0xB6, 0xD4, 0x37, 0x6C, 0x7C, 0xA9, 0x88, 0x8A, 0xE2, 0x2E, 0xB5, 0x2C,
    0x38, 0x34, 0x70, 0xED, 0x54, 0x00, 0x20, 0x65, 0x9C, 0x28, 0x26, 0x2C, 0xD7, 0x5B, 0x83, 0x81,
};

const void __at(255) __bank_song_rulz_undergroundcave_0_Data;
const hUGESong_t song_rulz_undergroundcave_0_Data = {
    15,
    &order_cnt,
    order1, order2, order3, order4,
    duty_instruments, wave_instruments, noise_instruments,
    routines,
    waves
};
