#pragma bank 255

#include "hUGEDriver.h"
#include <stddef.h>
#include "hUGEDriverRoutines.h"

static const unsigned char order_cnt = 8;
static const unsigned char song_pattern_0[] = {
    DN(Cs6, 1, 0xC0F),
    DN(Cs6, 1, 0xC00),
    DN(___, 0, 0x000),
    DN(___, 0, 0x000),
    DN(___, 0, 0x000),
    DN(___, 0, 0x000),
    DN(Cs6, 1, 0xC0F),
    DN(Cs6, 1, 0xC00),
    DN(___, 0, 0x000),
    DN(___, 0, 0x000),
    DN(___, 0, 0x000),
    DN(___, 0, 0x000),
    DN(Cs6, 1, 0xC0A),
    DN(Cs6, 1, 0xC00),
    DN(___, 0, 0x000),
    DN(___, 0, 0x000),
    DN(___, 0, 0x000),
    DN(___, 0, 0x000),
    DN(Cs6, 1, 0xC0F),
    DN(Cs6, 1, 0xC00),
    DN(___, 0, 0x000),
    DN(___, 0, 0x000),
    DN(___, 0, 0x000),
    DN(___, 0, 0x000),
    DN(Cs6, 1, 0xC0A),
    DN(Cs6, 1, 0xC00),
    DN(___, 0, 0x000),
    DN(___, 0, 0x000),
    DN(Cs6, 1, 0xC0F),
    DN(Cs6, 1, 0xC00),
    DN(___, 0, 0x000),
    DN(___, 0, 0x000),
    DN(Cs6, 1, 0xC0A),
    DN(Cs6, 1, 0xC00),
    DN(___, 0, 0x000),
    DN(___, 0, 0x000),
    DN(___, 0, 0x000),
    DN(___, 0, 0x000),
    DN(Cs6, 1, 0xC0F),
    DN(Cs6, 1, 0xC00),
    DN(___, 0, 0x000),
    DN(___, 0, 0x000),
    DN(___, 0, 0x000),
    DN(___, 0, 0x000),
    DN(Cs6, 1, 0xC0A),
    DN(Cs6, 1, 0xC00),
    DN(___, 0, 0x000),
    DN(___, 0, 0x000),
    DN(___, 0, 0x000),
    DN(___, 0, 0x000),
    DN(Cs6, 1, 0xC0F),
    DN(Cs6, 1, 0xC00),
    DN(___, 0, 0x000),
    DN(___, 0, 0x000),
    DN(___, 0, 0x000),
    DN(___, 0, 0x000),
    DN(Cs6, 1, 0xC0A),
    DN(Cs6, 1, 0xC00),
    DN(___, 0, 0x000),
    DN(___, 0, 0x000),
    DN(___, 0, 0x000),
    DN(___, 0, 0x000),
    DN(___, 0, 0x000),
    DN(___, 0, 0x000),
};
static const unsigned char song_pattern_1[] = {
    DN(Fs5, 1, 0xC0F),
    DN(Fs5, 1, 0xC00),
    DN(___, 0, 0x000),
    DN(___, 0, 0x000),
    DN(___, 0, 0x000),
    DN(___, 0, 0x000),
    DN(Fs5, 1, 0xC0A),
    DN(Fs5, 1, 0xC00),
    DN(___, 0, 0x000),
    DN(___, 0, 0x000),
    DN(___, 0, 0x000),
    DN(___, 0, 0x000),
    DN(Fs5, 1, 0xC0F),
    DN(Fs5, 1, 0xC00),
    DN(___, 0, 0x000),
    DN(___, 0, 0x000),
    DN(___, 0, 0x000),
    DN(___, 0, 0x000),
    DN(Fs5, 1, 0xC0A),
    DN(Fs5, 1, 0xC00),
    DN(___, 0, 0x000),
    DN(___, 0, 0x000),
    DN(___, 0, 0x000),
    DN(___, 0, 0x000),
    DN(Fs5, 1, 0xC0F),
    DN(Fs5, 1, 0xC00),
    DN(___, 0, 0x000),
    DN(___, 0, 0x000),
    DN(Fs5, 1, 0xC0A),
    DN(Fs5, 1, 0xC00),
    DN(___, 0, 0x000),
    DN(___, 0, 0x000),
    DN(Fs5, 1, 0xC0F),
    DN(Fs5, 1, 0xC00),
    DN(___, 0, 0x000),
    DN(___, 0, 0x000),
    DN(___, 0, 0x000),
    DN(___, 0, 0x000),
    DN(Fs5, 1, 0xC0A),
    DN(Fs5, 1, 0xC00),
    DN(___, 0, 0x000),
    DN(___, 0, 0x000),
    DN(___, 0, 0x000),
    DN(___, 0, 0x000),
    DN(Fs5, 1, 0xC0F),
    DN(Fs5, 1, 0xC00),
    DN(___, 0, 0x000),
    DN(___, 0, 0x000),
    DN(___, 0, 0x000),
    DN(___, 0, 0x000),
    DN(Fs5, 1, 0xC0A),
    DN(Fs5, 1, 0xC00),
    DN(___, 0, 0x000),
    DN(___, 0, 0x000),
    DN(___, 0, 0x000),
    DN(___, 0, 0x000),
    DN(Fs5, 1, 0xC0F),
    DN(Fs5, 1, 0xC00),
    DN(___, 0, 0x000),
    DN(___, 0, 0x000),
    DN(___, 0, 0x000),
    DN(___, 0, 0x000),
    DN(___, 0, 0x000),
    DN(___, 0, 0x000),
};
static const unsigned char song_pattern_2[] = {
    DN(Ds5, 1, 0xC40),
    DN(___, 0, 0xC00),
    DN(___, 0, 0x000),
    DN(___, 0, 0x000),
    DN(___, 0, 0x000),
    DN(___, 0, 0x000),
    DN(Ds5, 1, 0xC40),
    DN(___, 0, 0xC00),
    DN(___, 0, 0x000),
    DN(___, 0, 0x000),
    DN(___, 0, 0x000),
    DN(___, 0, 0x000),
    DN(Ds5, 1, 0xC40),
    DN(___, 0, 0xC00),
    DN(___, 0, 0x000),
    DN(___, 0, 0x000),
    DN(___, 0, 0x000),
    DN(___, 0, 0x000),
    DN(Ds5, 1, 0xC40),
    DN(___, 0, 0xC00),
    DN(___, 0, 0x000),
    DN(___, 0, 0x000),
    DN(___, 0, 0x000),
    DN(___, 0, 0x000),
    DN(Ds5, 1, 0xC40),
    DN(___, 0, 0xC00),
    DN(___, 0, 0x000),
    DN(___, 0, 0x000),
    DN(Ds5, 1, 0xC40),
    DN(___, 0, 0xC00),
    DN(___, 0, 0x000),
    DN(___, 0, 0x000),
    DN(Ds5, 1, 0xC40),
    DN(___, 0, 0xC00),
    DN(___, 0, 0x000),
    DN(___, 0, 0x000),
    DN(___, 0, 0x000),
    DN(___, 0, 0x000),
    DN(Ds5, 1, 0xC40),
    DN(___, 0, 0xC00),
    DN(___, 0, 0x000),
    DN(___, 0, 0x000),
    DN(___, 0, 0x000),
    DN(___, 0, 0x000),
    DN(Ds5, 1, 0xC40),
    DN(___, 0, 0xC00),
    DN(___, 0, 0x000),
    DN(___, 0, 0x000),
    DN(___, 0, 0x000),
    DN(___, 0, 0x000),
    DN(Ds5, 1, 0xC40),
    DN(___, 0, 0xC00),
    DN(___, 0, 0x000),
    DN(___, 0, 0x000),
    DN(___, 0, 0x000),
    DN(___, 0, 0x000),
    DN(Cs5, 1, 0xC40),
    DN(___, 0, 0xEC2),
    DN(___, 0, 0xC00),
    DN(___, 0, 0x000),
    DN(D_5, 1, 0xC40),
    DN(___, 0, 0xEC2),
    DN(___, 0, 0xC00),
    DN(___, 0, 0x000),
};
static const unsigned char song_pattern_3[] = {
    DN(Gs5, 1, 0x000),
    DN(___, 0, 0x000),
    DN(___, 0, 0x000),
    DN(___, 0, 0x000),
    DN(___, 0, 0x000),
    DN(___, 0, 0x000),
    DN(___, 0, 0x000),
    DN(___, 0, 0x000),
    DN(___, 0, 0x000),
    DN(___, 0, 0x000),
    DN(___, 0, 0x000),
    DN(___, 0, 0x000),
    DN(Gs5, 1, 0x000),
    DN(___, 0, 0x000),
    DN(___, 0, 0x000),
    DN(___, 0, 0x000),
    DN(___, 0, 0x000),
    DN(___, 0, 0x000),
    DN(___, 0, 0x000),
    DN(___, 0, 0x000),
    DN(___, 0, 0x000),
    DN(___, 0, 0x000),
    DN(___, 0, 0x000),
    DN(___, 0, 0x000),
    DN(Fs6, 1, 0xC06),
    DN(Fs6, 1, 0xC00),
    DN(___, 0, 0x000),
    DN(___, 0, 0x000),
    DN(___, 0, 0x000),
    DN(___, 0, 0x000),
    DN(___, 0, 0x000),
    DN(___, 0, 0x000),
    DN(___, 0, 0x000),
    DN(___, 0, 0x000),
    DN(___, 0, 0x000),
    DN(___, 0, 0x000),
    DN(___, 0, 0x000),
    DN(___, 0, 0x000),
    DN(___, 0, 0x000),
    DN(___, 0, 0x000),
    DN(Fs6, 1, 0xC06),
    DN(Fs6, 1, 0xC00),
    DN(___, 0, 0x000),
    DN(___, 0, 0x000),
    DN(___, 0, 0x000),
    DN(___, 0, 0x000),
    DN(___, 0, 0x000),
    DN(___, 0, 0x000),
    DN(___, 0, 0x000),
    DN(___, 0, 0x000),
    DN(___, 0, 0x000),
    DN(___, 0, 0x000),
    DN(___, 0, 0x000),
    DN(___, 0, 0x000),
    DN(___, 0, 0x000),
    DN(___, 0, 0x000),
    DN(Fs6, 1, 0xC06),
    DN(Fs6, 1, 0xC00),
    DN(___, 0, 0x000),
    DN(___, 0, 0x000),
    DN(___, 0, 0x000),
    DN(___, 0, 0x000),
    DN(___, 0, 0x000),
    DN(___, 0, 0x000),
};
static const unsigned char song_pattern_4[] = {
    DN(Cs6, 1, 0xC0F),
    DN(Cs6, 1, 0xC00),
    DN(___, 0, 0x000),
    DN(___, 0, 0x000),
    DN(___, 0, 0x000),
    DN(___, 0, 0x000),
    DN(Cs6, 1, 0xC0F),
    DN(Cs6, 1, 0xC00),
    DN(___, 0, 0x000),
    DN(___, 0, 0x000),
    DN(___, 0, 0x000),
    DN(___, 0, 0x000),
    DN(Cs6, 1, 0xC0A),
    DN(Cs6, 1, 0xC00),
    DN(___, 0, 0x000),
    DN(___, 0, 0x000),
    DN(___, 0, 0x000),
    DN(___, 0, 0x000),
    DN(Cs6, 1, 0xC0F),
    DN(Cs6, 1, 0xC00),
    DN(___, 0, 0x000),
    DN(___, 0, 0x000),
    DN(___, 0, 0x000),
    DN(___, 0, 0x000),
    DN(Cs6, 1, 0xC0A),
    DN(Cs6, 1, 0xC00),
    DN(___, 0, 0x000),
    DN(___, 0, 0x000),
    DN(Cs6, 1, 0xC0F),
    DN(Cs6, 1, 0xC00),
    DN(___, 0, 0x000),
    DN(___, 0, 0x000),
    DN(Cs6, 1, 0xC0A),
    DN(Cs6, 1, 0xC00),
    DN(___, 0, 0x000),
    DN(___, 0, 0x000),
    DN(___, 0, 0x000),
    DN(___, 0, 0x000),
    DN(Cs6, 1, 0xC0F),
    DN(Cs6, 1, 0xC00),
    DN(___, 0, 0x000),
    DN(___, 0, 0x000),
    DN(___, 0, 0x000),
    DN(___, 0, 0x000),
    DN(Cs6, 1, 0xC0A),
    DN(Cs6, 1, 0xC00),
    DN(___, 0, 0x000),
    DN(___, 0, 0x000),
    DN(___, 0, 0x000),
    DN(___, 0, 0x000),
    DN(Cs6, 1, 0xC0F),
    DN(Cs6, 1, 0xC00),
    DN(___, 0, 0x000),
    DN(___, 0, 0x000),
    DN(___, 0, 0x000),
    DN(___, 0, 0x000),
    DN(C_6, 1, 0xC0A),
    DN(___, 0, 0x000),
    DN(Cs6, 1, 0xC00),
    DN(___, 0, 0x000),
    DN(___, 0, 0x000),
    DN(___, 0, 0x000),
    DN(___, 0, 0x000),
    DN(___, 0, 0x000),
};
static const unsigned char song_pattern_5[] = {
    DN(Fs5, 1, 0xC0F),
    DN(Fs5, 1, 0xC00),
    DN(___, 0, 0x000),
    DN(___, 0, 0x000),
    DN(___, 0, 0x000),
    DN(___, 0, 0x000),
    DN(Fs5, 1, 0xC0A),
    DN(Fs5, 1, 0xC00),
    DN(___, 0, 0x000),
    DN(___, 0, 0x000),
    DN(___, 0, 0x000),
    DN(___, 0, 0x000),
    DN(Fs5, 1, 0xC0F),
    DN(Fs5, 1, 0xC00),
    DN(___, 0, 0x000),
    DN(___, 0, 0x000),
    DN(___, 0, 0x000),
    DN(___, 0, 0x000),
    DN(Fs5, 1, 0xC0A),
    DN(Fs5, 1, 0xC00),
    DN(___, 0, 0x000),
    DN(___, 0, 0x000),
    DN(___, 0, 0x000),
    DN(___, 0, 0x000),
    DN(Fs5, 1, 0xC0F),
    DN(Fs5, 1, 0xC00),
    DN(___, 0, 0x000),
    DN(___, 0, 0x000),
    DN(Fs5, 1, 0xC0A),
    DN(Fs5, 1, 0xC00),
    DN(___, 0, 0x000),
    DN(___, 0, 0x000),
    DN(Fs5, 1, 0xC0F),
    DN(Fs5, 1, 0xC00),
    DN(___, 0, 0x000),
    DN(___, 0, 0x000),
    DN(___, 0, 0x000),
    DN(___, 0, 0x000),
    DN(Fs5, 1, 0xC0A),
    DN(Fs5, 1, 0xC00),
    DN(___, 0, 0x000),
    DN(___, 0, 0x000),
    DN(___, 0, 0x000),
    DN(___, 0, 0x000),
    DN(Fs5, 1, 0xC0F),
    DN(Fs5, 1, 0xC00),
    DN(___, 0, 0x000),
    DN(___, 0, 0x000),
    DN(___, 0, 0x000),
    DN(___, 0, 0x000),
    DN(Fs5, 1, 0xC0A),
    DN(Fs5, 1, 0xC00),
    DN(___, 0, 0x000),
    DN(___, 0, 0x000),
    DN(___, 0, 0x000),
    DN(___, 0, 0x000),
    DN(Fs5, 1, 0xC0F),
    DN(___, 0, 0x000),
    DN(Fs5, 1, 0xC00),
    DN(___, 0, 0x000),
    DN(___, 0, 0x000),
    DN(___, 0, 0x000),
    DN(___, 0, 0x000),
    DN(___, 0, 0x000),
};
static const unsigned char song_pattern_6[] = {
    DN(Ds5, 1, 0xC0F),
    DN(Ds5, 1, 0xC00),
    DN(Ds5, 1, 0xC07),
    DN(Ds5, 1, 0xC00),
    DN(Ds5, 1, 0xC0F),
    DN(Ds5, 1, 0xC00),
    DN(Ds5, 1, 0xC07),
    DN(Ds5, 1, 0xC00),
    DN(Ds5, 1, 0xC0F),
    DN(Ds5, 1, 0xC00),
    DN(Ds5, 1, 0xC07),
    DN(Ds5, 1, 0xC00),
    DN(Ds5, 1, 0xC0F),
    DN(Ds5, 1, 0xC00),
    DN(Ds5, 1, 0xC07),
    DN(Ds5, 1, 0xC00),
    DN(Ds5, 1, 0xC0F),
    DN(Ds5, 1, 0xC00),
    DN(Ds5, 1, 0xC07),
    DN(Ds5, 1, 0xC00),
    DN(Ds5, 1, 0xC0F),
    DN(Ds5, 1, 0xC00),
    DN(___, 0, 0x000),
    DN(___, 0, 0x000),
    DN(Ds5, 1, 0xC0F),
    DN(Ds5, 1, 0xC00),
    DN(Ds5, 1, 0xC0F),
    DN(Ds5, 1, 0xC00),
    DN(Ds5, 1, 0xC0F),
    DN(Ds5, 1, 0xC00),
    DN(Ds5, 1, 0xC0F),
    DN(Ds5, 1, 0xC00),
    DN(Ds5, 1, 0xC07),
    DN(Ds5, 1, 0xC00),
    DN(Ds5, 1, 0xC0F),
    DN(Ds5, 1, 0xC00),
    DN(Ds5, 1, 0xC07),
    DN(Ds5, 1, 0xC00),
    DN(Ds5, 1, 0xC0F),
    DN(Ds5, 1, 0xC00),
    DN(Ds5, 1, 0xC07),
    DN(Ds5, 1, 0xC00),
    DN(Ds5, 1, 0xC0F),
    DN(Ds5, 1, 0xC00),
    DN(Ds5, 1, 0xC07),
    DN(Ds5, 1, 0xC00),
    DN(Ds5, 1, 0xC0F),
    DN(Ds5, 1, 0xC00),
    DN(Ds5, 1, 0xC07),
    DN(Ds5, 1, 0xC00),
    DN(Ds5, 1, 0xC0F),
    DN(Ds5, 1, 0xC00),
    DN(Ds5, 1, 0xC07),
    DN(Ds5, 1, 0xC00),
    DN(Ds5, 1, 0xC0F),
    DN(Ds5, 1, 0xC00),
    DN(D_5, 1, 0xC0F),
    DN(___, 0, 0x000),
    DN(D_5, 1, 0xC00),
    DN(___, 0, 0x000),
    DN(___, 0, 0x000),
    DN(___, 0, 0x000),
    DN(___, 0, 0x000),
    DN(___, 0, 0x000),
};
static const unsigned char song_pattern_7[] = {
    DN(B_5, 1, 0xC0F),
    DN(B_5, 1, 0xC00),
    DN(___, 0, 0x000),
    DN(___, 0, 0x000),
    DN(___, 0, 0x000),
    DN(___, 0, 0x000),
    DN(B_5, 1, 0xC0F),
    DN(B_5, 1, 0xC00),
    DN(___, 0, 0x000),
    DN(___, 0, 0x000),
    DN(___, 0, 0x000),
    DN(___, 0, 0x000),
    DN(B_5, 1, 0xC0A),
    DN(B_5, 1, 0xC00),
    DN(___, 0, 0x000),
    DN(___, 0, 0x000),
    DN(___, 0, 0x000),
    DN(___, 0, 0x000),
    DN(B_5, 1, 0xC0F),
    DN(B_5, 1, 0xC00),
    DN(___, 0, 0x000),
    DN(___, 0, 0x000),
    DN(___, 0, 0x000),
    DN(___, 0, 0x000),
    DN(B_5, 1, 0xC0A),
    DN(B_5, 1, 0xC00),
    DN(___, 0, 0x000),
    DN(___, 0, 0x000),
    DN(B_5, 1, 0xC0F),
    DN(B_5, 1, 0xC00),
    DN(___, 0, 0x000),
    DN(___, 0, 0x000),
    DN(B_5, 1, 0xC0A),
    DN(B_5, 1, 0xC00),
    DN(___, 0, 0x000),
    DN(___, 0, 0x000),
    DN(___, 0, 0x000),
    DN(___, 0, 0x000),
    DN(B_5, 1, 0xC0F),
    DN(B_5, 1, 0xC00),
    DN(___, 0, 0x000),
    DN(___, 0, 0x000),
    DN(___, 0, 0x000),
    DN(___, 0, 0x000),
    DN(B_5, 1, 0xC0A),
    DN(B_5, 1, 0xC00),
    DN(___, 0, 0x000),
    DN(___, 0, 0x000),
    DN(___, 0, 0x000),
    DN(___, 0, 0x000),
    DN(B_5, 1, 0xC0F),
    DN(B_5, 1, 0xC00),
    DN(___, 0, 0x000),
    DN(___, 0, 0x000),
    DN(___, 0, 0x000),
    DN(___, 0, 0x000),
    DN(B_5, 1, 0xC0A),
    DN(B_5, 1, 0xC00),
    DN(___, 0, 0x000),
    DN(___, 0, 0x000),
    DN(C_6, 1, 0xC0A),
    DN(C_6, 1, 0xC00),
    DN(___, 0, 0x000),
    DN(___, 0, 0x000),
};
static const unsigned char song_pattern_8[] = {
    DN(E_5, 1, 0xC0F),
    DN(E_5, 1, 0xC00),
    DN(___, 0, 0x000),
    DN(___, 0, 0x000),
    DN(___, 0, 0x000),
    DN(___, 0, 0x000),
    DN(E_5, 1, 0xC0A),
    DN(E_5, 1, 0xC00),
    DN(___, 0, 0x000),
    DN(___, 0, 0x000),
    DN(___, 0, 0x000),
    DN(___, 0, 0x000),
    DN(E_5, 1, 0xC0F),
    DN(E_5, 1, 0xC00),
    DN(___, 0, 0x000),
    DN(___, 0, 0x000),
    DN(___, 0, 0x000),
    DN(___, 0, 0x000),
    DN(E_5, 1, 0xC0A),
    DN(E_5, 1, 0xC00),
    DN(___, 0, 0x000),
    DN(___, 0, 0x000),
    DN(___, 0, 0x000),
    DN(___, 0, 0x000),
    DN(E_5, 1, 0xC0F),
    DN(E_5, 1, 0xC00),
    DN(___, 0, 0x000),
    DN(___, 0, 0x000),
    DN(Ds5, 1, 0xC0A),
    DN(E_5, 1, 0xC00),
    DN(___, 0, 0x000),
    DN(___, 0, 0x000),
    DN(E_5, 1, 0xC0F),
    DN(E_5, 1, 0xC00),
    DN(___, 0, 0x000),
    DN(___, 0, 0x000),
    DN(___, 0, 0x000),
    DN(___, 0, 0x000),
    DN(E_5, 1, 0xC0A),
    DN(E_5, 1, 0xC00),
    DN(___, 0, 0x000),
    DN(___, 0, 0x000),
    DN(___, 0, 0x000),
    DN(___, 0, 0x000),
    DN(E_5, 1, 0xC0F),
    DN(E_5, 1, 0xC00),
    DN(___, 0, 0x000),
    DN(___, 0, 0x000),
    DN(___, 0, 0x000),
    DN(___, 0, 0x000),
    DN(E_5, 1, 0xC0A),
    DN(E_5, 1, 0xC00),
    DN(___, 0, 0x000),
    DN(___, 0, 0x000),
    DN(___, 0, 0x000),
    DN(___, 0, 0x000),
    DN(E_5, 1, 0xC0F),
    DN(E_5, 1, 0xC00),
    DN(___, 0, 0x000),
    DN(___, 0, 0x000),
    DN(F_5, 1, 0xC0F),
    DN(E_5, 1, 0xC00),
    DN(___, 0, 0x000),
    DN(___, 0, 0x000),
};
static const unsigned char song_pattern_9[] = {
    DN(Cs5, 1, 0xC40),
    DN(___, 0, 0xE01),
    DN(Cs5, 1, 0xE02),
    DN(___, 0, 0x000),
    DN(Cs5, 1, 0xE02),
    DN(___, 0, 0x000),
    DN(Cs5, 1, 0xE02),
    DN(___, 0, 0x000),
    DN(Cs5, 1, 0xE02),
    DN(___, 0, 0x000),
    DN(Cs5, 1, 0xE02),
    DN(___, 0, 0x000),
    DN(Cs5, 1, 0xE02),
    DN(___, 0, 0x000),
    DN(Cs5, 1, 0xE02),
    DN(___, 0, 0x000),
    DN(Cs5, 1, 0xE02),
    DN(___, 0, 0x000),
    DN(Cs5, 1, 0xE02),
    DN(___, 0, 0x000),
    DN(Cs5, 1, 0xE02),
    DN(___, 0, 0x000),
    DN(___, 0, 0x000),
    DN(___, 0, 0x000),
    DN(Cs5, 1, 0xC0F),
    DN(Cs5, 1, 0xC00),
    DN(Cs5, 1, 0xC0F),
    DN(Cs5, 1, 0xC00),
    DN(Cs5, 1, 0xC0F),
    DN(Cs5, 1, 0xC00),
    DN(Cs5, 1, 0xC0F),
    DN(Cs5, 1, 0xE01),
    DN(Cs5, 1, 0xE02),
    DN(Cs5, 1, 0xC00),
    DN(Cs5, 1, 0xC0F),
    DN(Cs5, 1, 0xE01),
    DN(Cs5, 1, 0xE02),
    DN(___, 0, 0x000),
    DN(Cs5, 1, 0xE02),
    DN(___, 0, 0x000),
    DN(Cs5, 1, 0xE02),
    DN(___, 0, 0x000),
    DN(Cs5, 1, 0xE02),
    DN(___, 0, 0x000),
    DN(Cs5, 1, 0xE02),
    DN(___, 0, 0x000),
    DN(Cs5, 1, 0xE02),
    DN(___, 0, 0x000),
    DN(Cs5, 1, 0xE02),
    DN(___, 0, 0x000),
    DN(Cs5, 1, 0xE02),
    DN(___, 0, 0x000),
    DN(Cs5, 1, 0xE02),
    DN(___, 0, 0x000),
    DN(Cs5, 1, 0xE02),
    DN(___, 0, 0x000),
    DN(Cs5, 1, 0xE02),
    DN(___, 0, 0x000),
    DN(D_5, 1, 0xE02),
    DN(___, 0, 0x000),
    DN(D_5, 1, 0xE02),
    DN(___, 0, 0x000),
    DN(___, 0, 0x000),
    DN(___, 0, 0x000),
};
static const unsigned char song_pattern_10[] = {
    DN(Ds5, 1, 0xE02),
    DN(___, 0, 0x000),
    DN(Ds5, 1, 0xE02),
    DN(___, 0, 0x000),
    DN(Ds5, 1, 0xE02),
    DN(___, 0, 0x000),
    DN(Ds5, 1, 0xE02),
    DN(___, 0, 0x000),
    DN(Ds5, 1, 0xE02),
    DN(___, 0, 0x000),
    DN(Ds5, 1, 0xE02),
    DN(___, 0, 0x000),
    DN(Ds5, 1, 0xE02),
    DN(___, 0, 0x000),
    DN(Ds5, 1, 0xE02),
    DN(___, 0, 0x000),
    DN(Ds5, 1, 0xE02),
    DN(___, 0, 0x000),
    DN(Ds5, 1, 0xE02),
    DN(___, 0, 0x000),
    DN(Ds5, 1, 0xE02),
    DN(___, 0, 0x000),
    DN(___, 0, 0x000),
    DN(___, 0, 0x000),
    DN(Ds5, 1, 0xC0F),
    DN(Ds5, 1, 0xC00),
    DN(Ds5, 1, 0xC0F),
    DN(Ds5, 1, 0xC00),
    DN(Ds5, 1, 0xC0F),
    DN(Ds5, 1, 0xC00),
    DN(Ds5, 1, 0xC0F),
    DN(Ds5, 1, 0xE01),
    DN(Ds5, 1, 0xE02),
    DN(___, 0, 0x000),
    DN(Ds5, 1, 0xE02),
    DN(___, 0, 0x000),
    DN(Ds5, 1, 0xE02),
    DN(___, 0, 0x000),
    DN(Ds5, 1, 0xE02),
    DN(___, 0, 0x000),
    DN(Ds5, 1, 0xE02),
    DN(___, 0, 0x000),
    DN(Ds5, 1, 0xE02),
    DN(___, 0, 0x000),
    DN(Ds5, 1, 0xE02),
    DN(___, 0, 0x000),
    DN(Ds5, 1, 0xE02),
    DN(___, 0, 0x000),
    DN(Ds5, 1, 0xE02),
    DN(___, 0, 0x000),
    DN(Ds5, 1, 0xE02),
    DN(___, 0, 0x000),
    DN(Ds5, 1, 0xE02),
    DN(___, 0, 0x000),
    DN(Ds5, 1, 0xE02),
    DN(___, 0, 0x000),
    DN(Ds5, 1, 0xC40),
    DN(___, 0, 0x000),
    DN(Ds5, 1, 0xC00),
    DN(___, 0, 0x000),
    DN(___, 0, 0x000),
    DN(___, 0, 0x000),
    DN(___, 0, 0x000),
    DN(___, 0, 0x000),
};
static const unsigned char* const order1[] = {song_pattern_0, song_pattern_4, song_pattern_7, song_pattern_0};
static const unsigned char* const order2[] = {song_pattern_1, song_pattern_5, song_pattern_8, song_pattern_1};
static const unsigned char* const order3[] = {song_pattern_2, song_pattern_6, song_pattern_9, song_pattern_10};
static const unsigned char* const order4[] = {song_pattern_3, song_pattern_3, song_pattern_3, song_pattern_3};
static const unsigned char duty_instruments[] = {
    0x00, 0x80, 0xF0, 0x80,
    0x00, 0x40, 0xF0, 0x80,
    0x00, 0x80, 0xF0, 0x80,
    0x00, 0xC0, 0xF0, 0x80,
    0x00, 0x00, 0xF1, 0x80,
    0x00, 0x40, 0xF1, 0x80,
    0x00, 0x80, 0xF1, 0x80,
    0x00, 0xC0, 0xF1, 0x80,
    0x00, 0x80, 0xF0, 0x80,
    0x00, 0x80, 0xF0, 0x80,
    0x00, 0x80, 0xF0, 0x80,
    0x00, 0x80, 0xF0, 0x80,
    0x00, 0x80, 0xF0, 0x80,
    0x00, 0x80, 0xF0, 0x80,
    0x00, 0x80, 0xF0, 0x80,
};
static const unsigned char wave_instruments[] = {
    0x00, 0x20, 0x00, 0x80,
    0x00, 0x20, 0x01, 0x80,
    0x00, 0x20, 0x02, 0x80,
    0x00, 0x20, 0x03, 0x80,
    0x00, 0x20, 0x04, 0x80,
    0x00, 0x20, 0x05, 0x80,
    0x00, 0x20, 0x06, 0x80,
    0x00, 0x20, 0x07, 0x80,
    0x00, 0x20, 0x08, 0x80,
    0x00, 0x20, 0x09, 0x80,
    0x00, 0x20, 0x0A, 0x80,
    0x00, 0x20, 0x0B, 0x80,
    0x00, 0x20, 0x0C, 0x80,
    0x00, 0x20, 0x0D, 0x80,
    0x00, 0x20, 0x0E, 0x80,
};
static const unsigned char noise_instruments[] = {
    0x82, 0x00, 0, 0, 0, 0, 0, 0,
    0xF0, 0x00, 0, 0, 0, 0, 0, 0,
    0xF0, 0x00, 0, 0, 0, 0, 0, 0,
    0xF0, 0x00, 0, 0, 0, 0, 0, 0,
    0xF0, 0x00, 0, 0, 0, 0, 0, 0,
    0xF0, 0x00, 0, 0, 0, 0, 0, 0,
    0xF0, 0x00, 0, 0, 0, 0, 0, 0,
    0xF0, 0x00, 0, 0, 0, 0, 0, 0,
    0xF0, 0x00, 0, 0, 0, 0, 0, 0,
    0xF0, 0x00, 0, 0, 0, 0, 0, 0,
    0xF0, 0x00, 0, 0, 0, 0, 0, 0,
    0xF0, 0x00, 0, 0, 0, 0, 0, 0,
    0xF0, 0x00, 0, 0, 0, 0, 0, 0,
    0xF0, 0x00, 0, 0, 0, 0, 0, 0,
    0xF0, 0x00, 0, 0, 0, 0, 0, 0,
};
static const unsigned char waves[] = {
    0x22, 0x22, 0x22, 0x22, 0x22, 0x22, 0x22, 0x22, 0xDD, 0xDD, 0xDD, 0xDD, 0xDD, 0xDD, 0xDD, 0xDD,
    0x00, 0x00, 0x00, 0x00, 0xFF, 0xFF, 0xFF, 0xFF, 0xFF, 0xFF, 0xFF, 0xFF, 0xFF, 0xFF, 0xFF, 0xFF,
    0x00, 0x00, 0x00, 0x00, 0x00, 0x00, 0x00, 0x00, 0xFF, 0xFF, 0xFF, 0xFF, 0xFF, 0xFF, 0xFF, 0xFF,
    0x00, 0x00, 0x00, 0x00, 0x00, 0x00, 0x00, 0x00, 0x00, 0x00, 0x00, 0x00, 0xFF, 0xFF, 0xFF, 0xFF,
    0x00, 0x01, 0x12, 0x23, 0x34, 0x45, 0x56, 0x67, 0x78, 0x89, 0x9A, 0xAB, 0xBC, 0xCD, 0xDE, 0xEF,
    0xFE, 0xDC, 0xBA, 0x98, 0x76, 0x54, 0x32, 0x10, 0x12, 0x34, 0x56, 0x78, 0x9A, 0xBC, 0xDE, 0xFF,
    0x7A, 0xCD, 0xDB, 0x75, 0x21, 0x13, 0x68, 0xBD, 0xDC, 0x97, 0x41, 0x01, 0x47, 0x9C, 0xDD, 0xB8,
    0x0F, 0x0F, 0x0F, 0x0F, 0x0F, 0x0F, 0x0F, 0x0F, 0x0F, 0x0F, 0x0F, 0x0F, 0x0F, 0x0F, 0x0F, 0x0F,
    0xFE, 0xFC, 0xFA, 0xF8, 0xF6, 0xF4, 0xF2, 0xF0, 0xF2, 0xF4, 0xF6, 0xF8, 0xFA, 0xFC, 0xFE, 0xFF,
    0xFE, 0xDD, 0xCC, 0xBB, 0xAA, 0x99, 0x88, 0x77, 0x8A, 0xBD, 0xF1, 0x24, 0x57, 0x8A, 0xBD, 0xEE,
    0x84, 0x11, 0x61, 0xED, 0x57, 0x47, 0x5A, 0xAD, 0xCE, 0xA3, 0x17, 0x79, 0xDD, 0x20, 0x03, 0x47,
    0x8C, 0x37, 0x2A, 0xA2, 0xE5, 0x73, 0x56, 0x3B, 0xD6, 0xD2, 0x80, 0x6E, 0x28, 0x2B, 0x8B, 0xB8,
    0xAD, 0xB0, 0x86, 0x19, 0xD5, 0x82, 0x64, 0x09, 0x2D, 0x4E, 0x51, 0x29, 0x95, 0xA4, 0x2C, 0x0C,
    0x90, 0xA9, 0x8C, 0x93, 0x6C, 0xA8, 0xE0, 0xD5, 0xEC, 0xA1, 0x78, 0xE5, 0xD8, 0x05, 0x97, 0xDC,
    0x58, 0x24, 0x3C, 0x9C, 0x11, 0x78, 0x85, 0xEA, 0x9A, 0x3B, 0xAD, 0x7A, 0x01, 0xC4, 0xDD, 0x0D,
    0x94, 0xB0, 0x6B, 0x9C, 0x18, 0xD6, 0xE1, 0x84, 0x0A, 0x0E, 0xC2, 0x12, 0xED, 0xCA, 0xA0, 0xC4,
};

const void __at(255) __bank_song_rulz_battletheme_0_Data;
const hUGESong_t song_rulz_battletheme_0_Data = {
    3,
    &order_cnt,
    order1, order2, order3, order4,
    duty_instruments, wave_instruments, noise_instruments,
    routines,
    waves
};
